  0
SECTION
  2
HEADER
  9
$ACADVER
  1
AC1015
  9
$ACADMAINTVER
 70
     6
  9
$DWGCODEPAGE
  3
ANSI_1251
  9
$INSBASE
 10
0.0
 20
0.0
 30
0.0
  9
$EXTMIN
 10
-106.0
 20
-13.8866668612
 30
0.0
  9
$EXTMAX
 10
106.0
 20
27.0
 30
0.0
  9
$LIMMIN
 10
0.0
 20
0.0
  9
$LIMMAX
 10
420.0
 20
297.0
  9
$ORTHOMODE
 70
     0
  9
$REGENMODE
 70
     1
  9
$FILLMODE
 70
     1
  9
$QTEXTMODE
 70
     0
  9
$MIRRTEXT
 70
     1
  9
$LTSCALE
 40
1.0
  9
$ATTMODE
 70
     1
  9
$TEXTSIZE
 40
3.5
  9
$TRACEWID
 40
1.0
  9
$TEXTSTYLE
  7
Standard
  9
$CLAYER
  8
0
  9
$CELTYPE
  6
ByLayer
  9
$CECOLOR
 62
   256
  9
$CELTSCALE
 40
1.0
  9
$DISPSILH
 70
     0
  9
$DIMSCALE
 40
1.0
  9
$DIMASZ
 40
3.556
  9
$DIMEXO
 40
0.0
  9
$DIMDLI
 40
3.75
  9
$DIMRND
 40
0.0
  9
$DIMDLE
 40
0.0
  9
$DIMEXE
 40
1.0
  9
$DIMTP
 40
0.0
  9
$DIMTM
 40
0.0
  9
$DIMTXT
 40
3.5
  9
$DIMCEN
 40
2.5
  9
$DIMTSZ
 40
0.0
  9
$DIMTOL
 70
     0
  9
$DIMLIM
 70
     0
  9
$DIMTIH
 70
     1
  9
$DIMTOH
 70
     1
  9
$DIMSE1
 70
     0
  9
$DIMSE2
 70
     0
  9
$DIMTAD
 70
     1
  9
$DIMZIN
 70
     1
  9
$DIMBLK
  1

  9
$DIMASO
 70
     1
  9
$DIMSHO
 70
     1
  9
$DIMPOST
  1

  9
$DIMAPOST
  1

  9
$DIMALT
 70
     0
  9
$DIMALTD
 70
     3
  9
$DIMALTF
 40
0.0393700787
  9
$DIMLFAC
 40
1.0
  9
$DIMTOFL
 70
     1
  9
$DIMTVP
 40
0.0
  9
$DIMTIX
 70
     0
  9
$DIMSOXD
 70
     0
  9
$DIMSAH
 70
     0
  9
$DIMBLK1
  1

  9
$DIMBLK2
  1

  9
$DIMSTYLE
  2
ISO-25
  9
$DIMCLRD
 70
     0
  9
$DIMCLRE
 70
     0
  9
$DIMCLRT
 70
     0
  9
$DIMTFAC
 40
1.0
  9
$DIMGAP
 40
1.524
  9
$DIMJUST
 70
     0
  9
$DIMSD1
 70
     0
  9
$DIMSD2
 70
     0
  9
$DIMTOLJ
 70
     0
  9
$DIMTZIN
 70
     1
  9
$DIMALTZ
 70
     0
  9
$DIMALTTZ
 70
     0
  9
$DIMUPT
 70
     0
  9
$DIMDEC
 70
     2
  9
$DIMTDEC
 70
     2
  9
$DIMALTU
 70
     2
  9
$DIMALTTD
 70
     3
  9
$DIMTXSTY
  7
Standard
  9
$DIMAUNIT
 70
     0
  9
$DIMADEC
 70
     2
  9
$DIMALTRND
 40
0.0
  9
$DIMAZIN
 70
     0
  9
$DIMDSEP
 70
    44
  9
$DIMATFIT
 70
     3
  9
$DIMFRAC
 70
     0
  9
$DIMLDRBLK
  1

  9
$DIMLUNIT
 70
     2
  9
$DIMLWD
 70
    -2
  9
$DIMLWE
 70
    -2
  9
$DIMTMOVE
 70
     0
  9
$LUNITS
 70
     2
  9
$LUPREC
 70
     2
  9
$SKETCHINC
 40
1.0
  9
$FILLETRAD
 40
10.0
  9
$AUNITS
 70
     0
  9
$AUPREC
 70
     2
  9
$MENU
  1
.
  9
$ELEVATION
 40
0.0
  9
$PELEVATION
 40
0.0
  9
$THICKNESS
 40
0.0
  9
$LIMCHECK
 70
     0
  9
$CHAMFERA
 40
0.0
  9
$CHAMFERB
 40
0.0
  9
$CHAMFERC
 40
0.0
  9
$CHAMFERD
 40
0.0
  9
$SKPOLY
 70
     0
  9
$TDCREATE
 40
2461010.68780603
  9
$TDUCREATE
 40
2461010.56280603
  9
$TDUPDATE
 40
2461010.687893079
  9
$TDUUPDATE
 40
2461010.562893079
  9
$TDINDWG
 40
0.0000000116
  9
$TDUSRTIMER
 40
0.0000000116
  9
$USRTIMER
 70
     1
  9
$ANGBASE
 50
0.0
  9
$ANGDIR
 70
     0
  9
$PDMODE
 70
     0
  9
$PDSIZE
 40
-1.0
  9
$PLINEWID
 40
0.0
  9
$SPLFRAME
 70
     0
  9
$SPLINETYPE
 70
     6
  9
$SPLINESEGS
 70
     8
  9
$HANDSEED
  5
1A1
  9
$SURFTAB1
 70
     6
  9
$SURFTAB2
 70
     6
  9
$SURFTYPE
 70
     6
  9
$SURFU
 70
     6
  9
$SURFV
 70
     6
  9
$UCSBASE
  2

  9
$UCSNAME
  2

  9
$UCSORG
 10
0.0
 20
0.0
 30
0.0
  9
$UCSXDIR
 10
1.0
 20
0.0
 30
0.0
  9
$UCSYDIR
 10
0.0
 20
1.0
 30
0.0
  9
$UCSORTHOREF
  2

  9
$UCSORTHOVIEW
 70
     0
  9
$UCSORGTOP
 10
0.0
 20
0.0
 30
0.0
  9
$UCSORGBOTTOM
 10
0.0
 20
0.0
 30
0.0
  9
$UCSORGLEFT
 10
0.0
 20
0.0
 30
0.0
  9
$UCSORGRIGHT
 10
0.0
 20
0.0
 30
0.0
  9
$UCSORGFRONT
 10
0.0
 20
0.0
 30
0.0
  9
$UCSORGBACK
 10
0.0
 20
0.0
 30
0.0
  9
$PUCSBASE
  2

  9
$PUCSNAME
  2

  9
$PUCSORG
 10
0.0
 20
0.0
 30
0.0
  9
$PUCSXDIR
 10
1.0
 20
0.0
 30
0.0
  9
$PUCSYDIR
 10
0.0
 20
1.0
 30
0.0
  9
$PUCSORTHOREF
  2

  9
$PUCSORTHOVIEW
 70
     0
  9
$PUCSORGTOP
 10
0.0
 20
0.0
 30
0.0
  9
$PUCSORGBOTTOM
 10
0.0
 20
0.0
 30
0.0
  9
$PUCSORGLEFT
 10
0.0
 20
0.0
 30
0.0
  9
$PUCSORGRIGHT
 10
0.0
 20
0.0
 30
0.0
  9
$PUCSORGFRONT
 10
0.0
 20
0.0
 30
0.0
  9
$PUCSORGBACK
 10
0.0
 20
0.0
 30
0.0
  9
$USERI1
 70
     0
  9
$USERI2
 70
     0
  9
$USERI3
 70
     0
  9
$USERI4
 70
     0
  9
$USERI5
 70
     0
  9
$USERR1
 40
0.0
  9
$USERR2
 40
0.0
  9
$USERR3
 40
0.0
  9
$USERR4
 40
0.0
  9
$USERR5
 40
0.0
  9
$WORLDVIEW
 70
     1
  9
$SHADEDGE
 70
     3
  9
$SHADEDIF
 70
    70
  9
$TILEMODE
 70
     1
  9
$MAXACTVP
 70
    64
  9
$PINSBASE
 10
0.0
 20
0.0
 30
0.0
  9
$PLIMCHECK
 70
     0
  9
$PEXTMIN
 10
1.0000000000E+20
 20
1.0000000000E+20
 30
1.0000000000E+20
  9
$PEXTMAX
 10
-1.0000000000E+20
 20
-1.0000000000E+20
 30
-1.0000000000E+20
  9
$PLIMMIN
 10
0.0
 20
0.0
  9
$PLIMMAX
 10
420.0
 20
297.0
  9
$UNITMODE
 70
     0
  9
$VISRETAIN
 70
     1
  9
$PLINEGEN
 70
     0
  9
$PSLTSCALE
 70
     1
  9
$TREEDEPTH
 70
  3020
  9
$CMLSTYLE
  2
Standard
  9
$CMLJUST
 70
     0
  9
$CMLSCALE
 40
20.0
  9
$PROXYGRAPHICS
 70
     1
  9
$MEASUREMENT
 70
     1
  9
$CELWEIGHT
370
    -1
  9
$ENDCAPS
280
     0
  9
$JOINSTYLE
280
     0
  9
$LWDISPLAY
290
     1
  9
$INSUNITS
 70
     4
  9
$HYPERLINKBASE
  1

  9
$STYLESHEET
  1

  9
$XEDIT
290
     1
  9
$CEPSNTYPE
380
     0
  9
$PSTYLEMODE
290
     1
  9
$FINGERPRINTGUID
  2
{60f99a01-d255-48f0-9b4d-1bf08b130a7b}
  9
$VERSIONGUID
  2
{FAEB1C32-E019-11D5-929B-00C0DF256EC4}
  9
$EXTNAMES
290
     1
  9
$PSVPSCALE
 40
0.0
  9
$OLESTARTUP
290
     0
  0
ENDSEC
  0
SECTION
  2
CLASSES
  0
CLASS
  1
ACDBDICTIONARYWDFLT
  2
AcDbDictionaryWithDefault
  3
ObjectDBX Classes
 90
        0
280
     0
281
     0
  0
CLASS
  1
VISUALSTYLE
  2
AcDbVisualStyle
  3
ObjectDBX Classes
 90
     4095
280
     0
281
     0
  0
CLASS
  1
MATERIAL
  2
AcDbMaterial
  3
ObjectDBX Classes
 90
     1153
280
     0
281
     0
  0
CLASS
  1
SCALE
  2
AcDbScale
  3
ObjectDBX Classes
 90
     1153
280
     0
281
     0
  0
CLASS
  1
TABLESTYLE
  2
AcDbTableStyle
  3
ObjectDBX Classes
 90
     4095
280
     0
281
     0
  0
CLASS
  1
MLEADERSTYLE
  2
AcDbMLeaderStyle
  3
ACDB_MLEADERSTYLE_CLASS
 90
     4095
280
     0
281
     0
  0
CLASS
  1
SUN
  2
AcDbSun
  3
SCENEOE
 90
     1153
280
     0
281
     0
  0
CLASS
  1
ACDBPLACEHOLDER
  2
AcDbPlaceHolder
  3
ObjectDBX Classes
 90
        0
280
     0
281
     0
  0
CLASS
  1
LAYOUT
  2
AcDbLayout
  3
ObjectDBX Classes
 90
        0
280
     0
281
     0
  0
ENDSEC
  0
SECTION
  2
TABLES
  0
TABLE
  2
VPORT
  5
8
330
0
100
AcDbSymbolTable
 70
     1
  0
VPORT
  5
29
330
8
100
AcDbSymbolTableRecord
100
AcDbViewportTableRecord
  2
*Active
 70
     0
 10
0.0
 20
0.0
 11
1.0
 21
1.0
 12
0.0
 22
6.5566665694
 13
0.0
 23
0.0
 14
10.0
 24
10.0
 15
10.0
 25
10.0
 16
0.0
 26
0.0
 36
1.0
 17
0.0
 27
0.0
 37
0.0
 40
41.7044001985
 41
5.185064381
 42
50.0
 43
0.0
 44
0.0
 50
0.0
 51
0.0
 71
     0
 72
   100
 73
     1
 74
     3
 75
     0
 76
     0
 77
     0
 78
     0
281
     0
 65
     1
110
0.0
120
0.0
130
0.0
111
1.0
121
0.0
131
0.0
112
0.0
122
1.0
132
0.0
 79
     0
146
0.0
  0
ENDTAB
  0
TABLE
  2
LTYPE
  5
5
330
0
100
AcDbSymbolTable
 70
     6
  0
LTYPE
  5
14
330
5
100
AcDbSymbolTableRecord
100
AcDbLinetypeTableRecord
  2
ByBlock
 70
     0
  3

 72
    65
 73
     0
 40
0.0
  0
LTYPE
  5
15
330
5
100
AcDbSymbolTableRecord
100
AcDbLinetypeTableRecord
  2
ByLayer
 70
     0
  3

 72
    65
 73
     0
 40
0.0
  0
LTYPE
  5
16
330
5
100
AcDbSymbolTableRecord
100
AcDbLinetypeTableRecord
  2
Continuous
 70
     0
  3
Solid line
 72
    65
 73
     0
 40
0.0
  0
LTYPE
  5
6E
330
5
100
AcDbSymbolTableRecord
100
AcDbLinetypeTableRecord
  2
HIDDEN
 70
     0
  3
Hidden __ __ __ __ __ __ __ __ __ __ __ __ __ __
 72
    65
 73
     2
 40
1.905
 49
1.27
 74
     0
 49
-0.635
 74
     0
  0
LTYPE
  5
6F
330
5
100
AcDbSymbolTableRecord
100
AcDbLinetypeTableRecord
  2
PHANTOM
 70
     0
  3
Phantom ______  __  __  ______  __  __  ______
 72
    65
 73
     6
 40
12.7
 49
6.35
 74
     0
 49
-1.27
 74
     0
 49
1.27
 74
     0
 49
-1.27
 74
     0
 49
1.27
 74
     0
 49
-1.27
 74
     0
  0
LTYPE
  5
70
330
5
100
AcDbSymbolTableRecord
100
AcDbLinetypeTableRecord
  2
CENTER
 70
     0
  3
Center ____ _ ____ _ ____ _ ____ _ ____ _ ____
 72
    65
 73
     4
 40
10.16
 49
6.35
 74
     0
 49
-1.27
 74
     0
 49
1.27
 74
     0
 49
-1.27
 74
     0
  0
LTYPE
  5
71
330
5
100
AcDbSymbolTableRecord
100
AcDbLinetypeTableRecord
  2
CENTERX2
 70
     0
  3
Center (2x) ________  __  ________  __  _____
 72
    65
 73
     4
 40
20.32
 49
12.7
 74
     0
 49
-2.54
 74
     0
 49
2.54
 74
     0
 49
-2.54
 74
     0
  0
LTYPE
  5
72
330
5
100
AcDbSymbolTableRecord
100
AcDbLinetypeTableRecord
  2
DOT2
 70
     0
  3
Dot (.5x) ........................................
 72
    65
 73
     2
 40
0.635
 49
0.0
 74
     0
 49
-0.635
 74
     0
  0
ENDTAB
  0
TABLE
  2
LAYER
  5
2
330
0
100
AcDbSymbolTable
 70
     1
  0
LAYER
  5
10
330
2
100
AcDbSymbolTableRecord
100
AcDbLayerTableRecord
  2
0
 70
     0
 62
     7
  6
Continuous
370
    -3
390
F
  0
ENDTAB
  0
TABLE
  2
STYLE
  5
3
330
0
100
AcDbSymbolTable
 70
     2
  0
STYLE
  5
11
330
3
100
AcDbSymbolTableRecord
100
AcDbTextStyleTableRecord
  2
Standard
 70
     0
 40
0.0
 41
1.0
 50
0.0
 71
     0
 42
3.5
  3
txt
  4

  0
STYLE
  5
19D
330
3
100
AcDbSymbolTableRecord
100
AcDbTextStyleTableRecord
  2
SLDTEXTSTYLE0
 70
     0
 40
0.0
 41
0.7
 50
0.0
 71
     0
 42
3.5
  3
TXT
  4
bigfont
  0
ENDTAB
  0
TABLE
  2
VIEW
  5
6
330
0
100
AcDbSymbolTable
 70
     0
  0
ENDTAB
  0
TABLE
  2
UCS
  5
7
330
0
100
AcDbSymbolTable
 70
     0
  0
ENDTAB
  0
TABLE
  2
APPID
  5
9
330
0
100
AcDbSymbolTable
 70
     1
  0
APPID
  5
12
330
9
100
AcDbSymbolTableRecord
100
AcDbRegAppTableRecord
  2
ACAD
 70
     0
  0
ENDTAB
  0
TABLE
  2
DIMSTYLE
  5
A
330
0
100
AcDbSymbolTable
 70
     1
100
AcDbDimStyleTable
  0
DIMSTYLE
105
27
330
A
100
AcDbSymbolTableRecord
100
AcDbDimStyleTableRecord
  2
ISO-25
 70
     0
 41
2.5
 42
0.625
 43
3.75
 44
1.25
 73
     0
 74
     0
 77
     1
 78
     8
140
2.5
141
2.5
143
0.0393700787
147
0.625
171
     3
172
     1
178
     0
271
     2
272
     2
274
     3
278
    44
283
     0
284
     8
340
11
  0
ENDTAB
  0
TABLE
  2
BLOCK_RECORD
  5
1
330
0
100
AcDbSymbolTable
 70
     1
  0
BLOCK_RECORD
  5
1F
330
1
100
AcDbSymbolTableRecord
100
AcDbBlockTableRecord
  2
*Model_Space
340
22
  0
BLOCK_RECORD
  5
1B
330
1
100
AcDbSymbolTableRecord
100
AcDbBlockTableRecord
  2
*Paper_Space
340
1E
  0
BLOCK_RECORD
  5
23
330
1
100
AcDbSymbolTableRecord
100
AcDbBlockTableRecord
  2
*Paper_Space0
340
26
  0
ENDTAB
  0
ENDSEC
  0
SECTION
  2
BLOCKS
  0
BLOCK
  5
20
330
1F
100
AcDbEntity
  8
0
100
AcDbBlockBegin
  2
*Model_Space
 70
     0
 10
0.0
 20
0.0
 30
0.0
  3
*Model_Space
  1

  0
ENDBLK
  5
21
330
1F
100
AcDbEntity
  8
0
100
AcDbBlockEnd
  0
BLOCK
  5
1C
330
1B
100
AcDbEntity
 67
     1
  8
0
100
AcDbBlockBegin
  2
*Paper_Space
 70
     0
 10
0.0
 20
0.0
 30
0.0
  3
*Paper_Space
  1

  0
ENDBLK
  5
1D
330
1B
100
AcDbEntity
 67
     1
  8
0
100
AcDbBlockEnd
  0
BLOCK
  5
24
330
23
100
AcDbEntity
  8
0
100
AcDbBlockBegin
  2
*Paper_Space0
 70
     0
 10
0.0
 20
0.0
 30
0.0
  3
*Paper_Space0
  1

  0
ENDBLK
  5
25
330
23
100
AcDbEntity
  8
0
100
AcDbBlockEnd
  0
ENDSEC
  0
SECTION
  2
ENTITIES
  0
SPLINE
  5
73
330
1F
100
AcDbEntity
  8
0
  6
Continuous
 62
     7
370
    25
100
AcDbSpline
210
0.0
220
0.0
230
1.0
 70
     8
 71
     3
 72
    11
 73
     7
 74
     0
 42
0.00000001
 43
0.00000001
 40
0.3777062379123917
 40
0.3777062379123917
 40
0.3777062379123917
 40
0.3777062379123917
 40
0.4899538766795211
 40
0.6638876740592491
 40
0.7792793869501562
 40
1.0
 40
1.0
 40
1.0
 40
1.0
 10
91.3170484366041
 20
16.49834528291235
 30
0.0
 10
91.81776324055554
 20
15.70678994152598
 30
0.0
 10
93.30062027079323
 20
13.76209144181931
 30
0.0
 10
93.895382380229
 20
10.10433845547975
 30
0.0
 10
91.83428002063978
 20
6.200629102704989
 30
0.0
 10
89.21772994583054
 20
4.499860673858118
 30
0.0
 10
89.37529511210495
 20
2.609840864989006
 30
0.0
  0
SPLINE
  5
74
330
1F
100
AcDbEntity
  8
0
  6
Continuous
 62
     7
370
    25
100
AcDbSpline
210
0.0
220
0.0
230
1.0
 70
     8
 71
     3
 72
    15
 73
    11
 74
     0
 42
0.00000001
 43
0.00000001
 40
0.9794310463423448
 40
0.9794310463423448
 40
0.9794310463423448
 40
0.9794310463423448
 40
0.987490285444475
 40
0.9925706624729678
 40
0.9967144823848962
 40
1.0
 40
1.00472974913217
 40
1.011488646712323
 40
1.02561573383421
 40
1.030032940101528
 40
1.030032940101528
 40
1.030032940101528
 40
1.030032940101528
 10
97.75966021607847
 20
14.1727790471354
 30
0.0
 10
98.1388547379364
 20
13.25319807411363
 30
0.0
 10
98.88220755555847
 20
11.72222681839089
 30
0.0
 10
97.64302301404452
 20
9.858117610877152
 30
0.0
 10
97.86783161210025
 20
8.357459372184671
 30
0.0
 10
98.18084476162059
 20
6.935633994135881
 30
0.0
 10
97.44092334608213
 20
5.262937198053533
 30
0.0
 10
95.33834117537616
 20
2.933334953084342
 30
0.0
 10
92.1208655821338
 20
2.873098333695566
 30
0.0
 10
89.89921264603475
 20
2.66048981396624
 30
0.0
 10
89.37529511212774
 20
2.609840864991209
 30
0.0
  0
SPLINE
  5
75
330
1F
100
AcDbEntity
  8
0
  6
Continuous
 62
     7
370
    25
100
AcDbSpline
210
0.0
220
0.0
230
1.0
 70
     8
 71
     3
 72
    13
 73
     9
 74
     0
 42
0.00000001
 43
0.00000001
 40
0.0
 40
0.0
 40
0.0
 40
0.0
 40
0.2780913009729425
 40
0.3720419630292601
 40
0.4304830010715422
 40
0.5248586358545229
 40
0.6791154313656741
 40
1.0
 40
1.0
 40
1.0
 40
1.0
 10
97.7596602160789
 20
14.17277904713437
 30
0.0
 10
96.82432291164542
 20
13.93348030372785
 30
0.0
 10
96.269777657042
 20
14.84096379382104
 30
0.0
 10
95.3158967018893
 20
15.46170770130169
 30
0.0
 10
95.0868026133905
 20
16.17683544457063
 30
0.0
 10
94.07377300187244
 20
15.89768035176834
 30
0.0
 10
93.1815177566138
 20
13.99988947614704
 30
0.0
 10
92.05832942002529
 20
17.42310310093793
 30
0.0
 10
91.31704843660413
 20
16.49834528291232
 30
0.0
  0
SPLINE
  5
76
330
1F
100
AcDbEntity
  8
0
  6
Continuous
 62
     7
370
    25
100
AcDbSpline
210
0.0
220
0.0
230
1.0
 70
     8
 71
     3
 72
     8
 73
     4
 74
     0
 42
0.00000001
 43
0.00000001
 40
0.3131790016807456
 40
0.3131790016807456
 40
0.3131790016807456
 40
0.3131790016807456
 40
0.3264807411584078
 40
0.3264807411584078
 40
0.3264807411584078
 40
0.3264807411584078
 10
-9.70237044280968
 20
2.735066168644438
 30
0.0
 10
-11.24740158475833
 20
3.120306579477754
 30
0.0
 10
-12.7860834248021
 20
3.500196470241321
 30
0.0
 10
-14.32538613122807
 20
3.47473016856991
 30
0.0
  0
SPLINE
  5
77
330
1F
100
AcDbEntity
  8
0
  6
Continuous
 62
     7
370
    25
100
AcDbSpline
210
0.0
220
0.0
230
1.0
 70
     8
 71
     3
 72
     8
 73
     4
 74
     0
 42
0.00000001
 43
0.00000001
 40
0.6706983810038972
 40
0.6706983810038972
 40
0.6706983810038972
 40
0.6706983810038972
 40
1.0
 40
1.0
 40
1.0
 40
1.0
 10
-7.010331727055046
 20
5.95370414983203
 30
0.0
 10
-8.262081081196346
 20
5.254676149780162
 30
0.0
 10
-9.789231414987471
 20
4.975491097110015
 30
0.0
 10
-9.702370438195612
 20
2.735066167493959
 30
0.0
  0
SPLINE
  5
78
330
1F
100
AcDbEntity
  8
0
  6
Continuous
 62
     7
370
    25
100
AcDbSpline
210
0.0
220
0.0
230
1.0
 70
     8
 71
     3
 72
     9
 73
     5
 74
     0
 42
0.00000001
 43
0.00000001
 40
0.6758210572693268
 40
0.6758210572693268
 40
0.6758210572693268
 40
0.6758210572693268
 40
0.7155417741235807
 40
1.0
 40
1.0
 40
1.0
 40
1.0
 10
-8.743194724005647
 20
10.82839705916561
 30
0.0
 10
-8.76146181018188
 20
10.58351707809951
 30
0.0
 10
-8.95601405762841
 20
8.540933986411309
 30
0.0
 10
-4.758147063835634
 20
8.077391677321552
 30
0.0
 10
-7.010331727055044
 20
5.953704149832031
 30
0.0
  0
SPLINE
  5
79
330
1F
100
AcDbEntity
  8
0
  6
Continuous
 62
     7
370
    25
100
AcDbSpline
210
0.0
220
0.0
230
1.0
 70
     8
 71
     3
 72
    13
 73
     9
 74
     0
 42
0.00000001
 43
0.00000001
 40
0.0
 40
0.0
 40
0.0
 40
0.0
 40
0.3018322287990375
 40
0.3909046764860698
 40
0.5170749474009484
 40
0.6468449257898915
 40
0.7710212669089629
 40
1.0
 40
1.0
 40
1.0
 40
1.0
 10
-8.743194724016027
 20
10.82839705902644
 30
0.0
 10
-8.902634604296791
 20
11.99569943888543
 30
0.0
 10
-12.84561271648118
 20
12.57676392677082
 30
0.0
 10
-12.23267621739289
 20
9.79204287744979
 30
0.0
 10
-14.05886618475905
 20
9.008920587950175
 30
0.0
 10
-13.66802714975862
 20
7.116955689093302
 30
0.0
 10
-14.15598106509938
 20
4.903183618543395
 30
0.0
 10
-16.73922880712254
 20
4.517226115854369
 30
0.0
 10
-14.32538613122736
 20
3.474730168569922
 30
0.0
  0
SPLINE
  5
7A
330
1F
100
AcDbEntity
  8
0
  6
Continuous
 62
     7
370
    25
100
AcDbSpline
210
0.0
220
0.0
230
1.0
 70
     8
 71
     3
 72
     9
 73
     5
 74
     0
 42
0.00000001
 43
0.00000001
 40
0.3523428039776957
 40
0.3523428039776957
 40
0.3523428039776957
 40
0.3523428039776957
 40
0.3670474084970973
 40
0.3748681853456775
 40
0.3748681853456775
 40
0.3748681853456775
 40
0.3748681853456775
 10
-23.29341789412844
 20
2.187399951312953
 30
0.0
 10
-24.98694169929136
 20
2.498011880965362
 30
0.0
 10
-27.57972531291398
 20
3.617510790870231
 30
0.0
 10
-30.22464552101324
 20
3.139173611964117
 30
0.0
 10
-31.14241851986217
 20
2.960446263269004
 30
0.0
  0
SPLINE
  5
7B
330
1F
100
AcDbEntity
  8
0
  6
Continuous
 62
     7
370
    25
100
AcDbSpline
210
0.0
220
0.0
230
1.0
 70
     8
 71
     3
 72
    10
 73
     6
 74
     0
 42
0.00000001
 43
0.00000001
 40
0.4244087681944627
 40
0.4244087681944627
 40
0.4244087681944627
 40
0.4244087681944627
 40
0.5171326954952792
 40
0.7621112343122289
 40
1.0
 40
1.0
 40
1.0
 40
1.0
 10
-22.12148912381187
 20
8.848691127257736
 30
0.0
 10
-22.17282313757505
 20
8.43591772792807
 30
0.0
 10
-22.90864016960322
 20
7.131482447203916
 30
0.0
 10
-25.68517920725198
 20
4.415113793448008
 30
0.0
 10
-21.54268328549574
 20
3.25679116119214
 30
0.0
 10
-23.29341789422518
 20
2.187399951330698
 30
0.0
  0
SPLINE
  5
7C
330
1F
100
AcDbEntity
  8
0
  6
Continuous
 62
     7
370
    25
100
AcDbSpline
210
0.0
220
0.0
230
1.0
 70
     8
 71
     3
 72
     8
 73
     4
 74
     0
 42
0.00000001
 43
0.00000001
 40
0.8370899267514682
 40
0.8370899267514682
 40
0.8370899267514682
 40
0.8370899267514682
 40
1.0
 40
1.0
 40
1.0
 40
1.0
 10
-24.69278341444974
 20
9.59570519555788
 30
0.0
 10
-24.2350957957681
 20
8.697939220272874
 30
0.0
 10
-23.2416431338753
 20
8.2109867101225
 30
0.0
 10
-22.12148912381187
 20
8.848691127257736
 30
0.0
  0
SPLINE
  5
7D
330
1F
100
AcDbEntity
  8
0
  6
Continuous
 62
     7
370
    25
100
AcDbSpline
210
0.0
220
0.0
230
1.0
 70
     8
 71
     3
 72
    11
 73
     7
 74
     0
 42
0.00000001
 43
0.00000001
 40
0.0
 40
0.0
 40
0.0
 40
0.0
 40
0.2811549071637566
 40
0.4817703032562272
 40
0.6843288779140615
 40
1.0
 40
1.0
 40
1.0
 40
1.0
 10
-24.69278341444775
 20
9.595705195553982
 30
0.0
 10
-25.38993853514771
 20
8.399157166168225
 30
0.0
 10
-27.22718116467916
 20
9.437287436566416
 30
0.0
 10
-29.15878542623548
 20
7.733184823368992
 30
0.0
 10
-30.30577014812075
 20
5.653362904749474
 30
0.0
 10
-30.87935040219631
 20
3.977719862353617
 30
0.0
 10
-31.1424185198613
 20
2.960446263269174
 30
0.0
  0
SPLINE
  5
7E
330
1F
100
AcDbEntity
  8
0
  6
Continuous
 62
     7
370
    25
100
AcDbSpline
210
0.0
220
0.0
230
1.0
 70
     8
 71
     3
 72
    10
 73
     6
 74
     0
 42
0.00000001
 43
0.00000001
 40
0.0
 40
0.0
 40
0.0
 40
0.0
 40
0.2786626086808935
 40
0.4684125142157243
 40
0.5334932333534215
 40
0.5334932333534215
 40
0.5334932333534215
 40
0.5334932333534215
 10
0.3742744701032269
 20
9.723236279019963
 30
0.0
 10
-0.7117306326098211
 20
10.74577870549431
 30
0.0
 10
-2.449641346602271
 20
8.685574275233495
 30
0.0
 10
-4.696471922855316
 20
8.122532283639654
 30
0.0
 10
-5.459628501152919
 20
7.324819449205166
 30
0.0
 10
-5.652902317889175
 20
7.115190798984987
 30
0.0
  0
SPLINE
  5
7F
330
1F
100
AcDbEntity
  8
0
  6
Continuous
 62
     7
370
    25
100
AcDbSpline
210
0.0
220
0.0
230
1.0
 70
     8
 71
     3
 72
     9
 73
     5
 74
     0
 42
0.00000001
 43
0.00000001
 40
0.3018555325259566
 40
0.3018555325259566
 40
0.3018555325259566
 40
0.3018555325259566
 40
0.3483195967291073
 40
0.3863635276474219
 40
0.3863635276474219
 40
0.3863635276474219
 40
0.3863635276474219
 10
1.134231990713912
 20
10.497118801243
 30
0.0
 10
0.9735783088692554
 20
10.36167507062312
 30
0.0
 10
0.6385638267935346
 20
10.15032298940513
 30
0.0
 10
0.442561711283075
 20
9.864260053258368
 30
0.0
 10
0.3742744716130356
 20
9.723236282137949
 30
0.0
  0
SPLINE
  5
80
330
1F
100
AcDbEntity
  8
0
  6
Continuous
 62
     7
370
    25
100
AcDbSpline
210
0.0
220
0.0
230
1.0
 70
     8
 71
     3
 72
     9
 73
     5
 74
     0
 42
0.00000001
 43
0.00000001
 40
0.0
 40
0.0
 40
0.0
 40
0.0
 40
0.3040755358368796
 40
0.4568825772693437
 40
0.4568825772693437
 40
0.4568825772693437
 40
0.4568825772693437
 10
1.13423199071392
 20
10.49711880124301
 30
0.0
 10
1.685650561208941
 20
13.62720893098795
 30
0.0
 10
-1.110785380104403
 20
12.44377884600334
 30
0.0
 10
-2.831743836932699
 20
14.78782476417808
 30
0.0
 10
-3.026808285914039
 20
15.59724572226956
 30
0.0
  0
SPLINE
  5
81
330
1F
100
AcDbEntity
  8
0
  6
Continuous
 62
     7
370
    25
100
AcDbSpline
210
0.0
220
0.0
230
1.0
 70
     8
 71
     3
 72
    12
 73
     8
 74
     0
 42
0.00000001
 43
0.00000001
 40
0.0
 40
0.0
 40
0.0
 40
0.0
 40
0.3606976679874052
 40
0.4584017416844167
 40
0.5772926160742452
 40
0.7030881132593961
 40
1.0
 40
1.0
 40
1.0
 40
1.0
 10
-3.026808286359961
 20
15.59724572411991
 30
0.0
 10
-8.744763479067517
 20
19.81673539983015
 30
0.0
 10
-4.077557782738745
 20
12.49399295362456
 30
0.0
 10
-8.449931640209638
 20
14.09638208967355
 30
0.0
 10
-7.550431197847003
 20
11.75966748355791
 30
0.0
 10
-8.671120618898243
 20
9.031590453951681
 30
0.0
 10
-4.157823934180866
 20
9.309271528642439
 30
0.0
 10
-5.652902317814358
 20
7.115190799066136
 30
0.0
  0
SPLINE
  5
82
330
1F
100
AcDbEntity
  8
0
  6
Continuous
 62
     7
370
    25
100
AcDbSpline
210
0.0
220
0.0
230
1.0
 70
     8
 71
     3
 72
     8
 73
     4
 74
     0
 42
0.00000001
 43
0.00000001
 40
0.0
 40
0.0
 40
0.0
 40
0.0
 40
0.1667657862250308
 40
0.1667657862250308
 40
0.1667657862250308
 40
0.1667657862250308
 10
4.30156171715814
 20
12.51119806219861
 30
0.0
 10
3.476935850611857
 20
12.90978123210021
 30
0.0
 10
2.771644672724169
 20
12.48129676661511
 30
0.0
 10
2.273176454384864
 20
11.91005680750715
 30
0.0
  0
SPLINE
  5
83
330
1F
100
AcDbEntity
  8
0
  6
Continuous
 62
     7
370
    25
100
AcDbSpline
210
0.0
220
0.0
230
1.0
 70
     8
 71
     3
 72
    10
 73
     6
 74
     0
 42
0.00000001
 43
0.00000001
 40
0.526855533410869
 40
0.526855533410869
 40
0.526855533410869
 40
0.526855533410869
 40
0.6122168732078129
 40
0.7261334901471379
 40
1.0
 40
1.0
 40
1.0
 40
1.0
 10
4.301561717159087
 20
12.51119806220034
 30
0.0
 10
4.525012703413421
 20
12.92005961984577
 30
0.0
 10
5.879710986813416
 20
13.67252812157417
 30
0.0
 10
3.072506454305585
 20
16.10282954543215
 30
0.0
 10
4.017051814364573
 20
18.26208293378068
 30
0.0
 10
3.773673429417437
 20
19.82543677088166
 30
0.0
  0
SPLINE
  5
84
330
1F
100
AcDbEntity
  8
0
  6
Continuous
 62
     7
370
    25
100
AcDbSpline
210
0.0
220
0.0
230
1.0
 70
     8
 71
     3
 72
     9
 73
     5
 74
     0
 42
0.00000001
 43
0.00000001
 40
0.5473957540164621
 40
0.5473957540164621
 40
0.5473957540164621
 40
0.5473957540164621
 40
0.6405303702157188
 40
0.7816245673368405
 40
0.7816245673368405
 40
0.7816245673368405
 40
0.7816245673368405
 10
3.773673429422703
 20
19.82543677087889
 30
0.0
 10
3.385878100931587
 20
20.02914544432584
 30
0.0
 10
2.026768114485569
 20
19.80787619277114
 30
0.0
 10
0.4660397768499739
 20
19.41111774567206
 30
0.0
 10
0.0000000000008237
 20
19.82543677088187
 30
0.0
  0
SPLINE
  5
85
330
1F
100
AcDbEntity
  8
0
  6
Continuous
 62
     7
370
    25
100
AcDbSpline
210
0.0
220
0.0
230
1.0
 70
     8
 71
     3
 72
    11
 73
     7
 74
     0
 42
0.00000001
 43
0.00000001
 40
0.0
 40
0.0
 40
0.0
 40
0.0
 40
0.2843324511724911
 40
0.42286073387412
 40
0.5691959568880249
 40
1.0
 40
1.0
 40
1.0
 40
1.0
 10
0.0
 20
19.82543677088166
 30
0.0
 10
-3.469092623938229
 20
20.67140587105963
 30
0.0
 10
1.22001084807169
 20
18.46824256250571
 30
0.0
 10
-2.024588641683675
 20
17.28335175552373
 30
0.0
 10
-1.644175172687072
 20
13.57562411781136
 30
0.0
 10
2.319742746180027
 20
14.41666861362364
 30
0.0
 10
2.273176454392679
 20
11.91005680751611
 30
0.0
  0
SPLINE
  5
86
330
1F
100
AcDbEntity
  8
0
  6
Continuous
 62
     7
370
    25
100
AcDbSpline
210
0.0
220
0.0
230
1.0
 70
     8
 71
     3
 72
    10
 73
     6
 74
     0
 42
0.00000001
 43
0.00000001
 40
0.4585570441710348
 40
0.4585570441710348
 40
0.4585570441710348
 40
0.4585570441710348
 40
0.4680290473667404
 40
0.4776255492521941
 40
0.488911641247557
 40
0.488911641247557
 40
0.488911641247557
 40
0.488911641247557
 10
-52.71802490581715
 20
8.261444005633154
 30
0.0
 10
-53.05242109258106
 20
9.416379895841747
 30
0.0
 10
-53.96513432808372
 20
11.38219388759786
 30
0.0
 10
-50.15657482125661
 20
14.01831398585934
 30
0.0
 10
-51.53267311970733
 20
16.81212005594595
 30
0.0
 10
-52.78544589682064
 20
17.74152035339747
 30
0.0
  0
SPLINE
  5
87
330
1F
100
AcDbEntity
  8
0
  6
Continuous
 62
     7
370
    25
100
AcDbSpline
210
0.0
220
0.0
230
1.0
 70
     8
 71
     3
 72
    10
 73
     6
 74
     0
 42
0.00000001
 43
0.00000001
 40
0.0
 40
0.0
 40
0.0
 40
0.0
 40
0.3583279478652158
 40
0.5635562167307403
 40
1.0
 40
1.0
 40
1.0
 40
1.0
 10
-47.91013559219956
 20
11.29146478328838
 30
0.0
 10
-47.08129776254258
 20
9.681358597129233
 30
0.0
 10
-48.54781521040404
 20
9.682889142876943
 30
0.0
 10
-51.19133527635611
 20
10.31670441196058
 30
0.0
 10
-51.0595491545845
 20
7.369686155434997
 30
0.0
 10
-52.71802490581709
 20
8.261444005632988
 30
0.0
  0
SPLINE
  5
88
330
1F
100
AcDbEntity
  8
0
  6
Continuous
 62
     7
370
    25
100
AcDbSpline
210
0.0
220
0.0
230
1.0
 70
     8
 71
     3
 72
    11
 73
     7
 74
     0
 42
0.00000001
 43
0.00000001
 40
0.345898944625215
 40
0.345898944625215
 40
0.345898944625215
 40
0.345898944625215
 40
0.3928449554956749
 40
0.4715002712769072
 40
0.5612542724427843
 40
0.6798655273322489
 40
0.6798655273322489
 40
0.6798655273322489
 40
0.6798655273322489
 10
-46.98762837106679
 20
16.052243804794
 30
0.0
 10
-46.97385321860492
 20
15.80800149178586
 30
0.0
 10
-46.89025495480434
 20
15.13542780614126
 30
0.0
 10
-46.63150387116795
 20
13.86527327016291
 30
0.0
 10
-48.29552766006341
 20
13.33419948859037
 30
0.0
 10
-48.32816046650826
 20
11.53657452261755
 30
0.0
 10
-47.9101355922101
 20
11.29146478329455
 30
0.0
  0
SPLINE
  5
89
330
1F
100
AcDbEntity
  8
0
  6
Continuous
 62
     7
370
    25
100
AcDbSpline
210
0.0
220
0.0
230
1.0
 70
     8
 71
     3
 72
     9
 73
     5
 74
     0
 42
0.00000001
 43
0.00000001
 40
0.0800522702936949
 40
0.0800522702936949
 40
0.0800522702936949
 40
0.0800522702936949
 40
0.50602647686271
 40
1.0
 40
1.0
 40
1.0
 40
1.0
 10
-46.98762837106194
 20
16.05224380479537
 30
0.0
 10
-47.30634146875371
 20
17.1822051092321
 30
0.0
 10
-49.77313923922635
 20
17.37809763710274
 30
0.0
 10
-51.32969935910304
 20
19.32303425052657
 30
0.0
 10
-52.78544589712373
 20
17.74152035362232
 30
0.0
  0
SPLINE
  5
8A
330
1F
100
AcDbEntity
  8
0
  6
Continuous
 62
     7
370
    25
100
AcDbSpline
210
0.0
220
0.0
230
1.0
 70
     8
 71
     3
 72
     8
 73
     4
 74
     0
 42
0.00000001
 43
0.00000001
 40
0.0
 40
0.0
 40
0.0
 40
0.0
 40
0.27918925331251
 40
0.27918925331251
 40
0.27918925331251
 40
0.27918925331251
 10
-18.75409821492605
 20
12.51119889110755
 30
0.0
 10
-19.47741156798271
 20
12.11284392078374
 30
0.0
 10
-21.71996740131186
 20
11.89122210090664
 30
0.0
 10
-22.12148912379305
 20
10.82839705907627
 30
0.0
  0
SPLINE
  5
8B
330
1F
100
AcDbEntity
  8
0
  6
Continuous
 62
     7
370
    25
100
AcDbSpline
210
0.0
220
0.0
230
1.0
 70
     8
 71
     3
 72
     9
 73
     5
 74
     0
 42
0.00000001
 43
0.00000001
 40
0.5484732109972673
 40
0.5484732109972673
 40
0.5484732109972673
 40
0.5484732109972673
 40
0.5850126958069741
 40
0.6590254168373375
 40
0.6590254168373375
 40
0.6590254168373375
 40
0.6590254168373375
 10
-18.37804786113271
 20
14.07944891844155
 30
0.0
 10
-18.48264138801078
 20
13.93288857030243
 30
0.0
 10
-18.75324768385576
 20
13.46936178120375
 30
0.0
 10
-18.79514224981078
 20
12.89571543442478
 30
0.0
 10
-18.75409821492605
 20
12.51119889110756
 30
0.0
  0
SPLINE
  5
8C
330
1F
100
AcDbEntity
  8
0
  6
Continuous
 62
     7
370
    25
100
AcDbSpline
210
0.0
220
0.0
230
1.0
 70
     8
 71
     3
 72
    11
 73
     7
 74
     0
 42
0.00000001
 43
0.00000001
 40
0.0
 40
0.0
 40
0.0
 40
0.0
 40
0.2018698620933764
 40
0.2492519372775667
 40
0.3930381070890194
 40
0.5231578784249269
 40
0.5231578784249269
 40
0.5231578784249269
 40
0.5231578784249269
 10
-18.37804786113271
 20
14.07944891844155
 30
0.0
 10
-19.53474700874483
 20
14.09870507701624
 30
0.0
 10
-19.01731707533158
 20
16.73109701069487
 30
0.0
 10
-21.10846779770882
 20
16.44964576536909
 30
0.0
 10
-22.51826454069804
 20
16.2254069534969
 30
0.0
 10
-23.95965451800409
 20
17.13386727156641
 30
0.0
 10
-24.05358059577107
 20
17.73862639846856
 30
0.0
  0
SPLINE
  5
8D
330
1F
100
AcDbEntity
  8
0
  6
Continuous
 62
     7
370
    25
100
AcDbSpline
210
0.0
220
0.0
230
1.0
 70
     8
 71
     3
 72
    14
 73
    10
 74
     0
 42
0.00000001
 43
0.00000001
 40
0.0
 40
0.0
 40
0.0
 40
0.0
 40
0.2527726889323104
 40
0.3477758043187316
 40
0.486507084926811
 40
0.6036497885916728
 40
0.6739354107905897
 40
0.8063120413811743
 40
1.0
 40
1.0
 40
1.0
 40
1.0
 10
-24.05358059577107
 20
17.73862639846855
 30
0.0
 10
-24.44062870599802
 20
16.87257913351254
 30
0.0
 10
-27.46316913364747
 20
17.44796979156623
 30
0.0
 10
-27.01953712974185
 20
15.10141864894215
 30
0.0
 10
-26.79656815778252
 20
13.25788678606012
 30
0.0
 10
-25.21878973300115
 20
13.58219368248126
 30
0.0
 10
-23.5250308709528
 20
13.83757208611543
 30
0.0
 10
-24.67301071840289
 20
11.33234768881406
 30
0.0
 10
-22.93665110900919
 20
10.42520912180339
 30
0.0
 10
-22.12148912381188
 20
10.82839705902645
 30
0.0
  0
SPLINE
  5
8E
330
1F
100
AcDbEntity
  8
0
  6
Continuous
 62
     7
370
    25
100
AcDbSpline
210
0.0
220
0.0
230
1.0
 70
     8
 71
     3
 72
     9
 73
     5
 74
     0
 42
0.00000001
 43
0.00000001
 40
0.0
 40
0.0
 40
0.0
 40
0.0
 40
0.3918361153176597
 40
0.5462009098276321
 40
0.5462009098276321
 40
0.5462009098276321
 40
0.5462009098276321
 10
-24.9585319461837
 20
10.82839705902644
 30
0.0
 10
-25.63442098781482
 20
9.442546957682964
 30
0.0
 10
-30.22559059863779
 20
11.19506771593214
 30
0.0
 10
-29.93536751707029
 20
8.35932958954177
 30
0.0
 10
-30.08658959853878
 20
7.697784364785539
 30
0.0
  0
SPLINE
  5
8F
330
1F
100
AcDbEntity
  8
0
  6
Continuous
 62
     7
370
    25
100
AcDbSpline
210
0.0
220
0.0
230
1.0
 70
     8
 71
     3
 72
    13
 73
     9
 74
     0
 42
0.00000001
 43
0.00000001
 40
0.3100138914228221
 40
0.3100138914228221
 40
0.3100138914228221
 40
0.3100138914228221
 40
0.3794183942774853
 40
0.4050934963696382
 40
0.5072405196421278
 40
0.5734854158007392
 40
0.7116462060479998
 40
0.7717370562209163
 40
0.7717370562209163
 40
0.7717370562209163
 40
0.7717370562209163
 10
-29.03081300748221
 20
16.43003799109948
 30
0.0
 10
-29.28706487157518
 20
15.91658679079895
 30
0.0
 10
-29.40494308686566
 20
15.16269022430017
 30
0.0
 10
-27.98194017362686
 20
15.46645970458404
 30
0.0
 10
-27.89730261130225
 20
13.77166751249964
 30
0.0
 10
-27.47946173397434
 20
11.86789766109643
 30
0.0
 10
-24.58412248230373
 20
12.64844600388742
 30
0.0
 10
-24.94451656193838
 20
11.23874949957857
 30
0.0
 10
-24.95853194618369
 20
10.82839705902645
 30
0.0
  0
SPLINE
  5
90
330
1F
100
AcDbEntity
  8
0
  6
Continuous
 62
     7
370
    25
100
AcDbSpline
210
0.0
220
0.0
230
1.0
 70
     8
 71
     3
 72
     8
 73
     4
 74
     0
 42
0.00000001
 43
0.00000001
 40
0.0
 40
0.0
 40
0.0
 40
0.0
 40
0.2365914062555832
 40
0.2365914062555832
 40
0.2365914062555832
 40
0.2365914062555832
 10
-29.03081300748222
 20
16.43003799109948
 30
0.0
 10
-30.43568915521111
 20
15.17171228285679
 30
0.0
 10
-30.9904900051577
 20
16.69276082839716
 30
0.0
 10
-31.81516846918628
 20
17.09082949718747
 30
0.0
  0
SPLINE
  5
91
330
1F
100
AcDbEntity
  8
0
  6
Continuous
 62
     7
370
    25
100
AcDbSpline
210
0.0
220
0.0
230
1.0
 70
     8
 71
     3
 72
    11
 73
     7
 74
     0
 42
0.00000001
 43
0.00000001
 40
0.0
 40
0.0
 40
0.0
 40
0.0
 40
0.351737873880486
 40
0.4950146612403233
 40
0.6788728885674394
 40
1.0
 40
1.0
 40
1.0
 40
1.0
 10
-31.81516846917933
 20
17.09082949718412
 30
0.0
 10
-34.18588595576355
 20
15.78190152120778
 30
0.0
 10
-29.29347941595735
 20
14.06301145436306
 30
0.0
 10
-33.20221599009792
 20
12.45347373348664
 30
0.0
 10
-29.75487433521314
 20
10.51888485892661
 30
0.0
 10
-32.02967053605165
 20
8.25647090439159
 30
0.0
 10
-30.08658959852195
 20
7.697784364859174
 30
0.0
  0
SPLINE
  5
92
330
1F
100
AcDbEntity
  8
0
  6
Continuous
 62
     7
370
    25
100
AcDbSpline
210
0.0
220
0.0
230
1.0
 70
     8
 71
     3
 72
    11
 73
     7
 74
     0
 42
0.00000001
 43
0.00000001
 40
0.4097996579060859
 40
0.4097996579060859
 40
0.4097996579060859
 40
0.4097996579060859
 40
0.4228221413590208
 40
0.5694597771771323
 40
0.7342991631793668
 40
0.7831713883617564
 40
0.7831713883617564
 40
0.7831713883617564
 40
0.7831713883617564
 10
41.96819574635381
 20
15.29569561891227
 30
0.0
 10
41.90865435262124
 20
15.2320593327226
 30
0.0
 10
41.15580046150445
 20
14.48611438157419
 30
0.0
 10
38.89809227404676
 20
14.08770959784256
 30
0.0
 10
37.72667494516955
 20
11.05829826447725
 30
0.0
 10
38.56364846687066
 20
9.957098116806776
 30
0.0
 10
38.79292212058263
 20
9.723236281645148
 30
0.0
  0
SPLINE
  5
93
330
1F
100
AcDbEntity
  8
0
  6
Continuous
 62
     7
370
    25
100
AcDbSpline
210
0.0
220
0.0
230
1.0
 70
     8
 71
     3
 72
     9
 73
     5
 74
     0
 42
0.00000001
 43
0.00000001
 40
0.0
 40
0.0
 40
0.0
 40
0.0
 40
0.364758050048671
 40
0.5594010302418922
 40
0.5594010302418922
 40
0.5594010302418922
 40
0.5594010302418922
 10
41.96819574635357
 20
15.29569561891201
 30
0.0
 10
42.06678509581963
 20
17.11850501544797
 30
0.0
 10
40.1033518776107
 20
18.11028512470836
 30
0.0
 10
37.60920167586958
 20
18.85465723407486
 30
0.0
 10
37.24127174965461
 20
19.39687475329909
 30
0.0
  0
SPLINE
  5
94
330
1F
100
AcDbEntity
  8
0
  6
Continuous
 62
     7
370
    25
100
AcDbSpline
210
0.0
220
0.0
230
1.0
 70
     8
 71
     3
 72
    10
 73
     6
 74
     0
 42
0.00000001
 43
0.00000001
 40
0.0
 40
0.0
 40
0.0
 40
0.0
 40
0.3858359924775191
 40
0.6350030220396505
 40
1.0
 40
1.0
 40
1.0
 40
1.0
 10
37.24127174965462
 20
19.39687475329909
 30
0.0
 10
32.04027714283546
 20
18.47149607984261
 30
0.0
 10
38.37068974225371
 20
15.74644159262674
 30
0.0
 10
31.77961079153775
 20
11.25922423566401
 30
0.0
 10
38.25383070671258
 20
9.299713936867297
 30
0.0
 10
38.79292212058382
 20
9.723236281643944
 30
0.0
  0
SPLINE
  5
95
330
1F
100
AcDbEntity
  8
0
  6
Continuous
 62
     7
370
    25
100
AcDbSpline
210
0.0
220
0.0
230
1.0
 70
     8
 71
     3
 72
     9
 73
     5
 74
     0
 42
0.00000001
 43
0.00000001
 40
0.0905976090266338
 40
0.0905976090266338
 40
0.0905976090266338
 40
0.0905976090266338
 40
0.1063896882952881
 40
0.1164103745687053
 40
0.1164103745687053
 40
0.1164103745687053
 40
0.1164103745687053
 10
68.11159367164709
 20
2.428571196422789
 30
0.0
 10
66.25509602701474
 20
2.72009216525165
 30
0.0
 10
63.22342250637647
 20
3.264877449418532
 30
0.0
 10
60.23763937694965
 20
2.589160679531386
 30
0.0
 10
59.07772762961184
 20
2.33515053597457
 30
0.0
  0
SPLINE
  5
96
330
1F
100
AcDbEntity
  8
0
  6
Continuous
 62
     7
370
    25
100
AcDbSpline
210
0.0
220
0.0
230
1.0
 70
     8
 71
     3
 72
    11
 73
     7
 74
     0
 42
0.00000001
 43
0.00000001
 40
0.4988348221271687
 40
0.4988348221271687
 40
0.4988348221271687
 40
0.4988348221271687
 40
0.5665272794140862
 40
0.6978135457821169
 40
0.8078316969192537
 40
1.0
 40
1.0
 40
1.0
 40
1.0
 10
64.70295500639985
 20
13.61445064509957
 30
0.0
 10
64.27964625351427
 20
13.06432177562632
 30
0.0
 10
63.50346148839176
 20
11.28676662175979
 30
0.0
 10
67.39079222010788
 20
9.26679102429687
 30
0.0
 10
62.61180565584089
 20
4.739552424879757
 30
0.0
 10
69.50884448111046
 20
5.102905903291291
 30
0.0
 10
68.11159367164689
 20
2.42857119642282
 30
0.0
  0
SPLINE
  5
97
330
1F
100
AcDbEntity
  8
0
  6
Continuous
 62
     7
370
    25
100
AcDbSpline
210
0.0
220
0.0
230
1.0
 70
     8
 71
     3
 72
     9
 73
     5
 74
     0
 42
0.00000001
 43
0.00000001
 40
0.0
 40
0.0
 40
0.0
 40
0.0
 40
0.1478763978438521
 40
0.283175895485701
 40
0.283175895485701
 40
0.283175895485701
 40
0.283175895485701
 10
64.70295500639985
 20
13.61445064509957
 30
0.0
 10
63.99077294920184
 20
14.55255706121858
 30
0.0
 10
62.01242789645282
 20
13.76745739057987
 30
0.0
 10
59.76156832629971
 20
13.19379202012052
 30
0.0
 10
59.07789772935473
 20
13.61445106153566
 30
0.0
  0
SPLINE
  5
98
330
1F
100
AcDbEntity
  8
0
  6
Continuous
 62
     7
370
    25
100
AcDbSpline
210
0.0
220
0.0
230
1.0
 70
     8
 71
     3
 72
    13
 73
     9
 74
     0
 42
0.00000001
 43
0.00000001
 40
0.0
 40
0.0
 40
0.0
 40
0.0
 40
0.2711946457168454
 40
0.3791133269590785
 40
0.525263495199663
 40
0.6494030423313145
 40
0.7948304801644979
 40
1.0
 40
1.0
 40
1.0
 40
1.0
 10
59.07789772935475
 20
13.61445106153566
 30
0.0
 10
54.40714186057791
 20
11.94568922758918
 30
0.0
 10
60.42611661488928
 20
11.88400508462848
 30
0.0
 10
58.09625391006727
 20
8.11534214939449
 30
0.0
 10
55.15352350564961
 20
9.189204956965478
 30
0.0
 10
55.13144527970893
 20
5.160531322626772
 30
0.0
 10
58.92924496054973
 20
6.349663679742549
 30
0.0
 10
59.76471224964599
 20
3.368832794898511
 30
0.0
 10
59.07772762959949
 20
2.335150535971865
 30
0.0
  0
SPLINE
  5
99
330
1F
100
AcDbEntity
  8
0
  6
Continuous
 62
     7
370
    25
100
AcDbSpline
210
0.0
220
0.0
230
1.0
 70
     8
 71
     3
 72
     8
 73
     4
 74
     0
 42
0.00000001
 43
0.00000001
 40
0.0
 40
0.0
 40
0.0
 40
0.0
 40
0.239317315452657
 40
0.239317315452657
 40
0.239317315452657
 40
0.239317315452657
 10
58.2036183541136
 20
15.1140337042933
 30
0.0
 10
57.6096179402512
 20
14.91656421328384
 30
0.0
 10
54.95715977398832
 20
13.31931297406648
 30
0.0
 10
55.59294550389578
 20
11.91005680751874
 30
0.0
  0
SPLINE
  5
9A
330
1F
100
AcDbEntity
  8
0
  6
Continuous
 62
     7
370
    25
100
AcDbSpline
210
0.0
220
0.0
230
1.0
 70
     8
 71
     3
 72
    12
 73
     8
 74
     0
 42
0.00000001
 43
0.00000001
 40
0.371530658403222
 40
0.371530658403222
 40
0.371530658403222
 40
0.371530658403222
 40
0.4589017807175506
 40
0.5210832272206982
 40
0.5811376523832378
 40
0.6999527605427387
 40
0.7497246610704705
 40
0.7497246610704705
 40
0.7497246610704705
 40
0.7497246610704705
 10
58.20361835411319
 20
15.11403370429503
 30
0.0
 10
58.05683555398675
 20
15.76065303512945
 30
0.0
 10
58.02477280834842
 20
17.00625619167601
 30
0.0
 10
58.36223677249519
 20
18.23780482354659
 30
0.0
 10
59.78811463189891
 20
20.08386229676095
 30
0.0
 10
57.02844562263376
 20
19.14764199243396
 30
0.0
 10
55.88616778491615
 20
19.52828237644923
 30
0.0
 10
55.59296388207746
 20
19.69775307045098
 30
0.0
  0
SPLINE
  5
9B
330
1F
100
AcDbEntity
  8
0
  6
Continuous
 62
     7
370
    25
100
AcDbSpline
210
0.0
220
0.0
230
1.0
 70
     8
 71
     3
 72
    18
 73
    14
 74
     0
 42
0.00000001
 43
0.00000001
 40
0.0
 40
0.0
 40
0.0
 40
0.0
 40
0.1534338223099266
 40
0.2001082261797792
 40
0.2639102301719466
 40
0.3432368199957725
 40
0.4451158670748543
 40
0.5513167042409087
 40
0.6504304033850816
 40
0.7068082939672544
 40
0.7511932877208919
 40
0.8029757804334683
 40
1.0
 40
1.0
 40
1.0
 40
1.0
 10
55.59296388205961
 20
19.6977530704613
 30
0.0
 10
53.84803290802638
 20
19.88939376037148
 30
0.0
 10
53.19052896503383
 20
19.16482114697535
 30
0.0
 10
49.90011679493641
 20
19.59694919218733
 30
0.0
 10
52.11614322798759
 20
18.25189404860132
 30
0.0
 10
53.46578882316986
 20
16.03998307496509
 30
0.0
 10
49.15255024314132
 20
15.72380205957907
 30
0.0
 10
52.42298198148085
 20
11.60133469615791
 30
0.0
 10
48.32435346799412
 20
12.87697989700957
 30
0.0
 10
48.31988736756597
 20
10.13312893792672
 30
0.0
 10
49.88079254653955
 20
10.59543333356019
 30
0.0
 10
52.1705288155528
 20
10.39774400622181
 30
0.0
 10
54.50612119003099
 20
10.2632998220589
 30
0.0
 10
55.59294550389696
 20
11.91005680751611
 30
0.0
  0
SPLINE
  5
9C
330
1F
100
AcDbEntity
  8
0
  6
Continuous
 62
     7
370
    25
100
AcDbSpline
210
0.0
220
0.0
230
1.0
 70
     8
 71
     3
 72
     8
 73
     4
 74
     0
 42
0.00000001
 43
0.00000001
 40
0.2719395714465067
 40
0.2719395714465067
 40
0.2719395714465067
 40
0.2719395714465067
 40
0.2837970955866232
 40
0.2837970955866232
 40
0.2837970955866232
 40
0.2837970955866232
 10
4.829480452770394
 20
2.636207208518559
 30
0.0
 10
3.442531244369217
 20
2.659300502776091
 30
0.0
 10
2.046157164598093
 20
2.520004594159609
 30
0.0
 10
0.6471791981152242
 20
2.359938501246408
 30
0.0
  0
SPLINE
  5
9D
330
1F
100
AcDbEntity
  8
0
  6
Continuous
 62
     7
370
    25
100
AcDbSpline
210
0.0
220
0.0
230
1.0
 70
     8
 71
     3
 72
     9
 73
     5
 74
     0
 42
0.00000001
 43
0.00000001
 40
0.6088564982711587
 40
0.6088564982711587
 40
0.6088564982711587
 40
0.6088564982711587
 40
0.7030282170412683
 40
1.0
 40
1.0
 40
1.0
 40
1.0
 10
8.147604956411726
 20
5.536043339792308
 30
0.0
 10
7.920351908057441
 20
5.261872941272858
 30
0.0
 10
7.08193160662053
 20
4.014561615138001
 30
0.0
 10
5.966950889523241
 20
2.918858392142278
 30
0.0
 10
4.829480452770647
 20
2.636207208518555
 30
0.0
  0
SPLINE
  5
9E
330
1F
100
AcDbEntity
  8
0
  6
Continuous
 62
     7
370
    25
100
AcDbSpline
210
0.0
220
0.0
230
1.0
 70
     8
 71
     3
 72
    10
 73
     6
 74
     0
 42
0.00000001
 43
0.00000001
 40
0.0
 40
0.0
 40
0.0
 40
0.0
 40
0.1620600527194202
 40
0.2541364897830657
 40
0.4030493642244119
 40
0.4030493642244119
 40
0.4030493642244119
 40
0.4030493642244119
 10
8.147604956411842
 20
5.536043339792447
 30
0.0
 10
7.595265004351844
 20
6.06423572955036
 30
0.0
 10
9.095550615225578
 20
8.521837070680633
 30
0.0
 10
6.166575061139428
 20
8.764648523836374
 30
0.0
 10
5.341143079909862
 20
9.720082055527996
 30
0.0
 10
4.829450004898844
 20
10.49711880124301
 30
0.0
  0
SPLINE
  5
9F
330
1F
100
AcDbEntity
  8
0
  6
Continuous
 62
     7
370
    25
100
AcDbSpline
210
0.0
220
0.0
230
1.0
 70
     8
 71
     3
 72
    11
 73
     7
 74
     0
 42
0.00000001
 43
0.00000001
 40
0.0
 40
0.0
 40
0.0
 40
0.0
 40
0.3215633449581743
 40
0.4654182727010659
 40
0.6825010191731132
 40
1.0
 40
1.0
 40
1.0
 40
1.0
 10
4.829450004898844
 20
10.49711880124301
 30
0.0
 10
2.569635636216341
 20
11.67307006755628
 30
0.0
 10
3.359203163444267
 20
9.064828113076867
 30
0.0
 10
0.2547082207753946
 20
7.635403911823977
 30
0.0
 10
3.634589950363035
 20
5.137846922680971
 30
0.0
 10
1.075551707465827
 20
3.342882116123567
 30
0.0
 10
0.6471791981308046
 20
2.359938501248191
 30
0.0
  0
SPLINE
  5
A0
330
1F
100
AcDbEntity
  8
0
  6
Continuous
 62
     7
370
    25
100
AcDbSpline
210
0.0
220
0.0
230
1.0
 70
     8
 71
     3
 72
    10
 73
     6
 74
     0
 42
0.00000001
 43
0.00000001
 40
0.1950779480759975
 40
0.1950779480759975
 40
0.1950779480759975
 40
0.1950779480759975
 40
0.2012277690511365
 40
0.2212236694275538
 40
0.229233227266686
 40
0.229233227266686
 40
0.229233227266686
 40
0.229233227266686
 10
31.40184266021574
 20
1.684900168046616
 30
0.0
 10
30.69165021022041
 20
1.546469496484319
 30
0.0
 10
27.68545914685422
 20
1.232593840785396
 30
0.0
 10
23.85130221144001
 20
3.911554196554921
 30
0.0
 10
20.66876012521952
 20
3.367621089963265
 30
0.0
 10
19.75312013374349
 20
3.124197037414188
 30
0.0
  0
SPLINE
  5
A1
330
1F
100
AcDbEntity
  8
0
  6
Continuous
 62
     7
370
    25
100
AcDbSpline
210
0.0
220
0.0
230
1.0
 70
     8
 71
     3
 72
     8
 73
     4
 74
     0
 42
0.00000001
 43
0.00000001
 40
0.7266256978412748
 40
0.7266256978412748
 40
0.7266256978412748
 40
0.7266256978412748
 40
1.0
 40
1.0
 40
1.0
 40
1.0
 10
30.50128948060082
 20
4.670055554918576
 30
0.0
 10
30.77774932916947
 20
3.673676760335382
 30
0.0
 10
32.53432153076953
 20
3.143995831636985
 30
0.0
 10
31.40184265942531
 20
1.684900167892546
 30
0.0
  0
SPLINE
  5
A2
330
1F
100
AcDbEntity
  8
0
  6
Continuous
 62
     7
370
    25
100
AcDbSpline
210
0.0
220
0.0
230
1.0
 70
     8
 71
     3
 72
    12
 73
     8
 74
     0
 42
0.00000001
 43
0.00000001
 40
0.0
 40
0.0
 40
0.0
 40
0.0
 40
0.1840181322958953
 40
0.2540920003418905
 40
0.3661523510736309
 40
0.4332106417740065
 40
0.4817925562707721
 40
0.4817925562707721
 40
0.4817925562707721
 40
0.4817925562707721
 10
30.50128948060082
 20
4.670055554918575
 30
0.0
 10
28.7880481469034
 20
3.674296031062043
 30
0.0
 10
28.15401387710187
 20
5.980395381373294
 30
0.0
 10
25.73728282934219
 20
6.692076955688725
 30
0.0
 10
24.02395915716381
 20
7.322025076302454
 30
0.0
 10
23.33840493857835
 20
8.748575823944776
 30
0.0
 10
22.87466000437096
 20
9.426555572545881
 30
0.0
 10
22.72543263745786
 20
9.723236281028836
 30
0.0
  0
SPLINE
  5
A3
330
1F
100
AcDbEntity
  8
0
  6
Continuous
 62
     7
370
    25
100
AcDbSpline
210
0.0
220
0.0
230
1.0
 70
     8
 71
     3
 72
     9
 73
     5
 74
     0
 42
0.00000001
 43
0.00000001
 40
0.0
 40
0.0
 40
0.0
 40
0.0
 40
0.4004364693298411
 40
1.0
 40
1.0
 40
1.0
 40
1.0
 10
22.72543263745376
 20
9.723236281036979
 30
0.0
 10
18.82637283645477
 20
10.66194605085721
 30
0.0
 10
23.44248591542989
 20
6.048208070872229
 30
0.0
 10
15.37527868570011
 20
5.992369049951582
 30
0.0
 10
19.75312012817804
 20
3.124197035934607
 30
0.0
  0
SPLINE
  5
A5
330
1F
100
AcDbEntity
  8
0
  6
Continuous
 62
     7
370
    25
100
AcDbSpline
210
0.0
220
0.0
230
1.0
 70
     8
 71
     3
 72
    10
 73
     6
 74
     0
 42
0.00000001
 43
0.00000001
 40
0.0799451350242029
 40
0.0799451350242029
 40
0.0799451350242029
 40
0.0799451350242029
 40
0.3423492879459046
 40
0.5629553463936641
 40
0.7664366128704851
 40
0.7664366128704851
 40
0.7664366128704851
 40
0.7664366128704851
 10
-40.5224329806546
 20
18.08350679171064
 30
0.0
 10
-40.8556798073405
 20
18.71931102483686
 30
0.0
 10
-42.92866354658874
 20
17.56310132835713
 30
0.0
 10
-42.52942167928092
 20
19.98248532003181
 30
0.0
 10
-43.27287279475721
 20
20.67367514799433
 30
0.0
 10
-43.63170839110375
 20
21.000000000001
 30
0.0
  0
SPLINE
  5
A6
330
1F
100
AcDbEntity
  8
0
  6
Continuous
 62
     7
370
    25
100
AcDbSpline
210
0.0
220
0.0
230
1.0
 70
     8
 71
     3
 72
    10
 73
     6
 74
     0
 42
0.00000001
 43
0.00000001
 40
0.0
 40
0.0
 40
0.0
 40
0.0
 40
0.2567836926003971
 40
0.3934225616553127
 40
0.4092740298959826
 40
0.4092740298959826
 40
0.4092740298959826
 40
0.4092740298959826
 10
-35.55569438097491
 20
19.82543677088166
 30
0.0
 10
-36.61534431719877
 20
20.9908036871278
 30
0.0
 10
-38.63908846358793
 20
20.35356085647303
 30
0.0
 10
-40.38317436452789
 20
18.87619889503902
 30
0.0
 10
-40.51341106993188
 20
18.15948862074178
 30
0.0
 10
-40.52243298067796
 20
18.08350679169169
 30
0.0
  0
SPLINE
  5
A7
330
1F
100
AcDbEntity
  8
0
  6
Continuous
 62
     7
370
    25
100
AcDbSpline
210
0.0
220
0.0
230
1.0
 70
     8
 71
     3
 72
     8
 73
     4
 74
     0
 42
0.00000001
 43
0.00000001
 40
0.7243107657703056
 40
0.7243107657703056
 40
0.7243107657703056
 40
0.7243107657703056
 40
0.8171451254534796
 40
0.8171451254534796
 40
0.8171451254534796
 40
0.8171451254534796
 10
-35.55569438097486
 20
19.82543677088217
 30
0.0
 10
-35.50490022167205
 20
20.23903315116717
 30
0.0
 10
-35.54071947323971
 20
20.623859511728
 30
0.0
 10
-35.58660967671032
 20
21.00000000000811
 30
0.0
  0
SPLINE
  5
A8
330
1F
100
AcDbEntity
  8
0
  6
Continuous
 62
     7
370
    25
100
AcDbSpline
210
0.0
220
0.0
230
1.0
 70
     8
 71
     3
 72
    12
 73
     8
 74
     0
 42
0.00000001
 43
0.00000001
 40
0.0
 40
0.0
 40
0.0
 40
0.0
 40
0.304126853209911
 40
0.4390829864492278
 40
0.5424924254237645
 40
0.6639648211962957
 40
0.7376943920934851
 40
0.7376943920934851
 40
0.7376943920934851
 40
0.7376943920934851
 10
-16.81396979246999
 20
16.51889312147507
 30
0.0
 10
-19.05752005915278
 20
14.46974674713078
 30
0.0
 10
-18.93537671608137
 20
20.87796921777324
 30
0.0
 10
-21.40503228136198
 20
17.04467375642111
 30
0.0
 10
-23.12001604011077
 20
18.8199063332084
 30
0.0
 10
-22.09601076850237
 20
20.6279041692374
 30
0.0
 10
-23.26509490117249
 20
20.86007319913368
 30
0.0
 10
-23.62852113783786
 20
20.99999999933144
 30
0.0
  0
SPLINE
  5
A9
330
1F
100
AcDbEntity
  8
0
  6
Continuous
 62
     7
370
    25
100
AcDbSpline
210
0.0
220
0.0
230
1.0
 70
     8
 71
     3
 72
     9
 73
     5
 74
     0
 42
0.00000001
 43
0.00000001
 40
0.0268549222865274
 40
0.0268549222865274
 40
0.0268549222865274
 40
0.0268549222865274
 40
0.237420211273683
 40
0.3559673949499697
 40
0.3559673949499697
 40
0.3559673949499697
 40
0.3559673949499697
 10
-15.20874432545823
 20
21.00000000366606
 30
0.0
 10
-16.01981306585354
 20
20.34563733331855
 30
0.0
 10
-17.11616891417189
 20
18.80193208919034
 30
0.0
 10
-16.72541516664666
 20
17.10279817750587
 30
0.0
 10
-16.81396979247037
 20
16.51889312147261
 30
0.0
  0
SPLINE
  5
AB
330
1F
100
AcDbEntity
  8
0
  6
Continuous
 62
     7
370
    25
100
AcDbSpline
210
0.0
220
0.0
230
1.0
 70
     8
 71
     3
 72
    11
 73
     7
 74
     0
 42
0.00000001
 43
0.00000001
 40
0.0
 40
0.0
 40
0.0
 40
0.0
 40
0.2540147757520156
 40
0.3828633135022144
 40
0.5221136916874497
 40
0.6235132101160105
 40
0.6235132101160105
 40
0.6235132101160105
 40
0.6235132101160105
 10
65.97225249690437
 20
14.86021952439223
 30
0.0
 10
64.68312772034632
 20
18.91294691066997
 30
0.0
 10
62.93081005657103
 20
13.03062932905076
 30
0.0
 10
58.9682957497971
 20
17.42115097043979
 30
0.0
 10
62.66719020295608
 20
19.07924351244691
 30
0.0
 10
61.272125133065
 20
20.60049686983142
 30
0.0
 10
60.54742964620993
 20
21.00000000342822
 30
0.0
  0
SPLINE
  5
AC
330
1F
100
AcDbEntity
  8
0
  6
Continuous
 62
     7
370
    25
100
AcDbSpline
210
0.0
220
0.0
230
1.0
 70
     8
 71
     3
 72
    10
 73
     6
 74
     0
 42
0.00000001
 43
0.00000001
 40
0.1683638971594454
 40
0.1683638971594454
 40
0.1683638971594454
 40
0.1683638971594454
 40
0.2765285319407578
 40
0.3621903771697872
 40
0.4417966965125646
 40
0.4417966965125646
 40
0.4417966965125646
 40
0.4417966965125646
 10
68.43577253665921
 20
21.00000000000207
 30
0.0
 10
67.43441064310818
 20
20.35888803619228
 30
0.0
 10
65.90465127361836
 20
19.15564335694524
 30
0.0
 10
67.70204179241559
 20
16.40800352636262
 30
0.0
 10
66.58431201996675
 20
15.3865309849786
 30
0.0
 10
65.97225249602201
 20
14.86021952363349
 30
0.0
  0
SPLINE
  5
AE
330
1F
100
AcDbEntity
  8
0
  6
Continuous
 62
     7
370
    25
100
AcDbSpline
210
0.0
220
0.0
230
1.0
 70
     8
 71
     3
 72
    10
 73
     6
 74
     0
 42
0.00000001
 43
0.00000001
 40
0.4222680715581598
 40
0.4222680715581598
 40
0.4222680715581598
 40
0.4222680715581598
 40
0.4282824802655657
 40
0.4414398922526978
 40
0.451070898474724
 40
0.451070898474724
 40
0.451070898474724
 40
0.451070898474724
 10
-47.23258079814514
 20
2.35270690088337
 30
0.0
 10
-47.73537878035361
 20
2.913666008407855
 30
0.0
 10
-49.39055410974838
 20
4.841618594095624
 30
0.0
 10
-54.63050737778609
 20
0.2521945981757232
 30
0.0
 10
-52.92611242367944
 20
3.684364730242278
 30
0.0
 10
-52.58727232989532
 20
5.150777409579643
 30
0.0
  0
SPLINE
  5
AF
330
1F
100
AcDbEntity
  8
0
  6
Continuous
 62
     7
370
    25
100
AcDbSpline
210
0.0
220
0.0
230
1.0
 70
     8
 71
     3
 72
    10
 73
     6
 74
     0
 42
0.00000001
 43
0.00000001
 40
0.5708407043401057
 40
0.5708407043401057
 40
0.5708407043401057
 40
0.5708407043401057
 40
0.6724124069552778
 40
0.7477940190403245
 40
1.0
 40
1.0
 40
1.0
 40
1.0
 10
-45.21871965311351
 20
8.261487718852734
 30
0.0
 10
-45.69052986245129
 20
8.133063564070582
 30
0.0
 10
-46.2308135069466
 20
7.207736825042305
 30
0.0
 10
-47.77028099565202
 20
5.290456864072446
 30
0.0
 10
-44.52574906123056
 20
3.517463543493585
 30
0.0
 10
-47.23258079772742
 20
2.352706900417318
 30
0.0
  0
SPLINE
  5
B0
330
1F
100
AcDbEntity
  8
0
  6
Continuous
 62
     7
370
    25
100
AcDbSpline
210
0.0
220
0.0
230
1.0
 70
     8
 71
     3
 72
     8
 73
     4
 74
     0
 42
0.00000001
 43
0.00000001
 40
0.9058463000634425
 40
0.9058463000634425
 40
0.9058463000634425
 40
0.9058463000634425
 40
1.0
 40
1.0
 40
1.0
 40
1.0
 10
-45.88578677683925
 20
9.595705196620841
 30
0.0
 10
-46.00425175285532
 20
9.068351295496583
 30
0.0
 10
-46.01923524747292
 20
8.559653887638731
 30
0.0
 10
-45.2187196531135
 20
8.261487718852738
 30
0.0
  0
SPLINE
  5
B1
330
1F
100
AcDbEntity
  8
0
  6
Continuous
 62
     7
370
    25
100
AcDbSpline
210
0.0
220
0.0
230
1.0
 70
     8
 71
     3
 72
    12
 73
     8
 74
     0
 42
0.00000001
 43
0.00000001
 40
0.0
 40
0.0
 40
0.0
 40
0.0
 40
0.3004667152513813
 40
0.4086277215315818
 40
0.5573439094628909
 40
0.6609486937385172
 40
1.0
 40
1.0
 40
1.0
 40
1.0
 10
-45.88578677679996
 20
9.595705196795683
 30
0.0
 10
-47.27153151519735
 20
10.78185424886564
 30
0.0
 10
-47.08573649590754
 20
7.895458228370922
 30
0.0
 10
-49.13257521681134
 20
8.308672851665719
 30
0.0
 10
-50.23468929307451
 20
8.440443600475232
 30
0.0
 10
-52.1810478538784
 20
7.337979571083092
 30
0.0
 10
-50.25549581547681
 20
5.068348259085278
 30
0.0
 10
-52.58727232998077
 20
5.15077740920982
 30
0.0
  0
SPLINE
  5
B2
330
1F
100
AcDbEntity
  8
0
  6
Continuous
 62
     7
370
    25
100
AcDbSpline
210
0.0
220
0.0
230
1.0
 70
    11
 71
     3
 72
    18
 73
    14
 74
     0
 42
0.00000001
 43
0.00000001
 40
0.0
 40
0.0
 40
0.0
 40
0.0
 40
0.0978225334594938
 40
0.2015519240307039
 40
0.2616624607532741
 40
0.3323950846826162
 40
0.4150893619512164
 40
0.5676596343934733
 40
0.6193489860303006
 40
0.6950548860636414
 40
0.7294006771416242
 40
0.8483780854820822
 40
1.0
 40
1.0
 40
1.0
 40
1.0
 10
-85.90258226881166
 20
14.07942656365461
 30
0.0
 10
-85.6628622542734
 20
13.45996242244397
 30
0.0
 10
-86.82745373593596
 20
11.06101209174844
 30
0.0
 10
-85.52435868229476
 20
8.829213294693975
 30
0.0
 10
-83.76866295896454
 20
7.103452337295037
 30
0.0
 10
-84.54101335417032
 20
5.018943469193488
 30
0.0
 10
-87.42078985400047
 20
2.179418396842874
 30
0.0
 10
-87.62710596556633
 20
7.382169267042959
 30
0.0
 10
-91.44130227718864
 20
7.308915704876677
 30
0.0
 10
-89.20313134814985
 20
10.21711801991278
 30
0.0
 10
-92.41675147686168
 20
9.349478198057733
 30
0.0
 10
-90.38853960305018
 20
14.41703970012023
 30
0.0
 10
-86.2741409094147
 20
15.03957690677006
 30
0.0
 10
-85.90258226881166
 20
14.07942656365461
 30
0.0
  0
SPLINE
  5
B4
330
1F
100
AcDbEntity
  8
0
  6
Continuous
 62
     7
370
    25
100
AcDbSpline
210
0.0
220
0.0
230
1.0
 70
     8
 71
     3
 72
    12
 73
     8
 74
     0
 42
0.00000001
 43
0.00000001
 40
0.0
 40
0.0
 40
0.0
 40
0.0
 40
0.3104085340677789
 40
0.4389281570564371
 40
0.6102054456552216
 40
0.7230835244869901
 40
0.7944767014237549
 40
0.7944767014237549
 40
0.7944767014237549
 40
0.7944767014237549
 10
10.65006163446242
 20
17.09082949718412
 30
0.0
 10
9.96239000513547
 20
18.00077531616278
 30
0.0
 10
6.579333546628689
 20
17.06856824221797
 30
0.0
 10
6.149558588571589
 20
20.28806835418599
 30
0.0
 10
4.006589650782757
 20
20.68990376768088
 30
0.0
 10
2.402529614101108
 20
20.3556903562324
 30
0.0
 10
1.725241751348711
 20
20.8020952175693
 30
0.0
 10
1.461241260794358
 20
21.0000000052188
 30
0.0
  0
SPLINE
  5
B5
330
1F
100
AcDbEntity
  8
0
  6
Continuous
 62
     7
370
    25
100
AcDbSpline
210
0.0
220
0.0
230
1.0
 70
     8
 71
     3
 72
     9
 73
     5
 74
     0
 42
0.00000001
 43
0.00000001
 40
0.7140812032530504
 40
0.7140812032530504
 40
0.7140812032530504
 40
0.7140812032530504
 40
0.7744636852365301
 40
0.9337930116095542
 40
0.9337930116095542
 40
0.9337930116095542
 40
0.9337930116095542
 10
10.65006163446242
 20
17.09082949718412
 30
0.0
 10
10.71009001157636
 20
17.51400585628581
 30
0.0
 10
10.87081835502417
 20
19.03163937710949
 30
0.0
 10
9.067102497509774
 20
20.00009930484262
 30
0.0
 10
9.227148026733937
 20
21.00000000000763
 30
0.0
  0
SPLINE
  5
B6
330
1F
100
AcDbEntity
  8
0
  6
Continuous
 62
     7
370
    25
100
AcDbSpline
210
0.0
220
0.0
230
1.0
 70
     8
 71
     3
 72
     9
 73
     5
 74
     0
 42
0.00000001
 43
0.00000001
 40
0.3952397756578013
 40
0.3952397756578013
 40
0.3952397756578013
 40
0.3952397756578013
 40
0.4003397464880767
 40
0.418784016388122
 40
0.418784016388122
 40
0.418784016388122
 40
0.418784016388122
 10
-38.24933106129806
 20
3.310657198676624
 30
0.0
 10
-38.84722305229209
 20
3.392541594386019
 30
0.0
 10
-41.63991110650762
 20
3.457735551439542
 30
0.0
 10
-44.69132791178538
 20
0.511179030360868
 30
0.0
 10
-46.34348719772434
 20
1.525847895954401
 30
0.0
  0
SPLINE
  5
B7
330
1F
100
AcDbEntity
  8
0
  6
Continuous
 62
     7
370
    25
100
AcDbSpline
210
0.0
220
0.0
230
1.0
 70
     8
 71
     3
 72
     9
 73
     5
 74
     0
 42
0.00000001
 43
0.00000001
 40
0.5542957754764084
 40
0.5542957754764084
 40
0.5542957754764084
 40
0.5542957754764084
 40
0.6788594701029421
 40
1.0
 40
1.0
 40
1.0
 40
1.0
 10
-37.67532573099241
 20
7.697784364859174
 30
0.0
 10
-37.49805246609735
 20
7.294486404218784
 30
0.0
 10
-35.25378430719506
 20
6.007604090731005
 30
0.0
 10
-40.16538320454347
 20
4.769866868527747
 30
0.0
 10
-38.24933106129806
 20
3.310657198676623
 30
0.0
  0
SPLINE
  5
B8
330
1F
100
AcDbEntity
  8
0
  6
Continuous
 62
     7
370
    25
100
AcDbSpline
210
0.0
220
0.0
230
1.0
 70
     8
 71
     3
 72
    12
 73
     8
 74
     0
 42
0.00000001
 43
0.00000001
 40
0.0
 40
0.0
 40
0.0
 40
0.0
 40
0.318631533595119
 40
0.4534211604140946
 40
0.5470439464396221
 40
0.7133920103356312
 40
1.0
 40
1.0
 40
1.0
 40
1.0
 10
-37.67532573099241
 20
7.697784364859175
 30
0.0
 10
-38.57685325066439
 20
9.049712482187566
 30
0.0
 10
-41.30724168832886
 20
9.318007237741497
 30
0.0
 10
-42.92363422449373
 20
6.794718470836735
 30
0.0
 10
-44.975948157556
 20
7.506738951370492
 30
0.0
 10
-46.76542211811517
 20
4.271616095854912
 30
0.0
 10
-43.85980369002546
 20
2.836385581284397
 30
0.0
 10
-46.34348719777237
 20
1.525847895983901
 30
0.0
  0
SPLINE
  5
B9
330
1F
100
AcDbEntity
  8
0
  6
Continuous
 62
     7
370
    25
100
AcDbSpline
210
0.0
220
0.0
230
1.0
 70
     8
 71
     3
 72
    13
 73
     9
 74
     0
 42
0.00000001
 43
0.00000001
 40
0.0
 40
0.0
 40
0.0
 40
0.0
 40
0.2280811487566557
 40
0.3800680445398343
 40
0.5125675363304477
 40
0.5649546120354473
 40
0.682768549484371
 40
0.7466819166522707
 40
0.7466819166522707
 40
0.7466819166522707
 40
0.7466819166522707
 10
21.59302235019229
 20
15.11403358620372
 30
0.0
 10
20.53409238478389
 20
16.68085422626999
 30
0.0
 10
19.06701835695815
 20
16.6171066504038
 30
0.0
 10
14.56199349689905
 20
16.21113666555333
 30
0.0
 10
16.2696543588209
 20
19.65797138253268
 30
0.0
 10
14.1070097655854
 20
19.30980696760165
 30
0.0
 10
12.86688417566858
 20
19.21206203673891
 30
0.0
 10
11.83863146361677
 20
19.62945536425204
 30
0.0
 10
11.50827325631218
 20
19.82539193223218
 30
0.0
  0
SPLINE
  5
BA
330
1F
100
AcDbEntity
  8
0
  6
Continuous
 62
     7
370
    25
100
AcDbSpline
210
0.0
220
0.0
230
1.0
 70
     8
 71
     3
 72
    11
 73
     7
 74
     0
 42
0.00000001
 43
0.00000001
 40
0.0
 40
0.0
 40
0.0
 40
0.0
 40
0.2869220952856646
 40
0.4686640470934424
 40
0.6650607282884657
 40
1.0
 40
1.0
 40
1.0
 40
1.0
 10
18.65245191404433
 20
8.848691127257736
 30
0.0
 10
16.16764619440965
 20
7.359902053023969
 30
0.0
 10
16.22263988506316
 20
10.44171372967012
 30
0.0
 10
13.57850449736744
 20
12.40612476083232
 30
0.0
 10
11.8851595394415
 20
15.72350146152445
 30
0.0
 10
13.10924752535769
 20
18.45198793600277
 30
0.0
 10
11.50827325631218
 20
19.82539193223219
 30
0.0
  0
SPLINE
  5
BB
330
1F
100
AcDbEntity
  8
0
  6
Continuous
 62
     7
370
    25
100
AcDbSpline
210
0.0
220
0.0
230
1.0
 70
     8
 71
     3
 72
     9
 73
     5
 74
     0
 42
0.00000001
 43
0.00000001
 40
0.0
 40
0.0
 40
0.0
 40
0.0
 40
0.3243554511609831
 40
0.4403736945909376
 40
0.4403736945909376
 40
0.4403736945909376
 40
0.4403736945909376
 10
22.48589936204798
 20
10.8283970590263
 30
0.0
 10
21.97500526394121
 20
12.67122286025167
 30
0.0
 10
17.73284247431896
 20
11.82087109108843
 30
0.0
 10
18.88522830116256
 20
9.271979303817016
 30
0.0
 10
18.6524519140189
 20
8.848691127211492
 30
0.0
  0
SPLINE
  5
BC
330
1F
100
AcDbEntity
  8
0
  6
Continuous
 62
     7
370
    25
100
AcDbSpline
210
0.0
220
0.0
230
1.0
 70
     8
 71
     3
 72
    10
 73
     6
 74
     0
 42
0.00000001
 43
0.00000001
 40
0.5379494745412687
 40
0.5379494745412687
 40
0.5379494745412687
 40
0.5379494745412687
 40
0.6207220998360028
 40
0.693155228634808
 40
0.7667406284058124
 40
0.7667406284058124
 40
0.7667406284058124
 40
0.7667406284058124
 10
22.48589936204549
 20
10.82839705898998
 30
0.0
 10
22.52626566986311
 20
11.41499232655311
 30
0.0
 10
22.92093819040008
 20
12.5957640767979
 30
0.0
 10
21.1116936957512
 20
13.49036865373696
 30
0.0
 10
21.50233118487824
 20
14.58388764772505
 30
0.0
 10
21.59302235019228
 20
15.11403358620372
 30
0.0
  0
SPLINE
  5
BE
330
1F
100
AcDbEntity
  8
0
  6
Continuous
 62
     7
370
    25
100
AcDbSpline
210
0.0
220
0.0
230
1.0
 70
     8
 71
     3
 72
    12
 73
     8
 74
     0
 42
0.00000001
 43
0.00000001
 40
0.0
 40
0.0
 40
0.0
 40
0.0
 40
0.3060373390967067
 40
0.4581823316527224
 40
0.5563039244519314
 40
0.7178960583577009
 40
0.9310797766893251
 40
0.9310797766893251
 40
0.9310797766893251
 40
0.9310797766893251
 10
32.88447740919244
 20
13.61445106153566
 30
0.0
 10
30.89442974682086
 20
14.02736558280466
 30
0.0
 10
30.17951655653146
 20
15.45370030179594
 30
0.0
 10
29.25368394572036
 20
18.78059546418748
 30
0.0
 10
26.56137151625127
 20
17.69485376271663
 30
0.0
 10
27.88808544308116
 20
22.11876487343444
 30
0.0
 10
24.18327726087367
 20
19.77813045400313
 30
0.0
 10
24.39078438084569
 20
21.00000000026942
 30
0.0
  0
SPLINE
  5
BF
330
1F
100
AcDbEntity
  8
0
  6
Continuous
 62
     7
370
    25
100
AcDbSpline
210
0.0
220
0.0
230
1.0
 70
     8
 71
     3
 72
    11
 73
     7
 74
     0
 42
0.00000001
 43
0.00000001
 40
0.0
 40
0.0
 40
0.0
 40
0.0
 40
0.2331227607750983
 40
0.3149590444123408
 40
0.3932814474638793
 40
0.4826665369776837
 40
0.4826665369776837
 40
0.4826665369776837
 40
0.4826665369776837
 10
37.01157243639027
 20
20.64279668747315
 30
0.0
 10
35.49105145085577
 20
21.23014501090465
 30
0.0
 10
31.95472797561173
 20
19.54812368064511
 30
0.0
 10
32.89584593255655
 20
16.4598032489161
 30
0.0
 10
35.03454857357979
 20
15.01750952857677
 30
0.0
 10
33.42384798797703
 20
14.19760591072548
 30
0.0
 10
32.88447740924925
 20
13.61445106159709
 30
0.0
  0
SPLINE
  5
C0
330
1F
100
AcDbEntity
  8
0
  6
Continuous
 62
     7
370
    25
100
AcDbSpline
210
0.0
220
0.0
230
1.0
 70
     8
 71
     3
 72
     8
 73
     4
 74
     0
 42
0.00000001
 43
0.00000001
 40
0.6776603510505669
 40
0.6776603510505669
 40
0.6776603510505669
 40
0.6776603510505669
 40
0.7062142865802721
 40
0.7062142865802721
 40
0.7062142865802721
 40
0.7062142865802721
 10
37.01157243598999
 20
20.64279668159375
 30
0.0
 10
37.01950432838964
 20
20.75929844256308
 30
0.0
 10
37.03162544808275
 20
20.87862908087425
 30
0.0
 10
37.04634968034453
 20
21.00000000014138
 30
0.0
  0
SPLINE
  5
C1
330
1F
100
AcDbEntity
  8
0
  6
Continuous
 62
     7
370
    25
100
AcDbSpline
210
0.0
220
0.0
230
1.0
 70
     8
 71
     3
 72
    14
 73
    10
 74
     0
 42
0.00000001
 43
0.00000001
 40
0.0
 40
0.0
 40
0.0
 40
0.0
 40
0.2190224927852703
 40
0.3283648306706222
 40
0.4510351161771469
 40
0.5355591070451693
 40
0.6430149222276561
 40
0.7244300796952362
 40
0.9814421005887842
 40
0.9814421005887842
 40
0.9814421005887842
 40
0.9814421005887842
 10
30.50128948060082
 20
6.626221091416562
 30
0.0
 10
28.61744060993253
 20
5.44914077284654
 30
0.0
 10
28.22418805888843
 20
8.651351092995226
 30
0.0
 10
25.30605982987339
 20
8.543929118490405
 30
0.0
 10
23.60099622249933
 20
10.32110132577731
 30
0.0
 10
24.46209990235058
 20
11.92239196266198
 30
0.0
 10
26.25599583232978
 20
14.08047652949057
 30
0.0
 10
22.04329665860064
 20
12.70205245124094
 30
0.0
 10
23.73855367829464
 20
18.04129712490035
 30
0.0
 10
23.95647965921304
 20
18.31042328718161
 30
0.0
  0
SPLINE
  5
C2
330
1F
100
AcDbEntity
  8
0
  6
Continuous
 62
     7
370
    25
100
AcDbSpline
210
0.0
220
0.0
230
1.0
 70
     8
 71
     3
 72
     9
 73
     5
 74
     0
 42
0.00000001
 43
0.00000001
 40
0.0990098191970271
 40
0.0990098191970271
 40
0.0990098191970271
 40
0.0990098191970271
 40
0.3936857950897324
 40
0.5636505352244713
 40
0.5636505352244713
 40
0.5636505352244713
 40
0.5636505352244713
 10
31.40131224727415
 20
11.26284873139764
 30
0.0
 10
30.40266385851729
 20
10.45156086971561
 30
0.0
 10
28.07845133425455
 20
8.502953143285092
 30
0.0
 10
30.29645095500604
 20
7.254344278175029
 30
0.0
 10
30.50128948060083
 20
6.626221091416562
 30
0.0
  0
SPLINE
  5
C3
330
1F
100
AcDbEntity
  8
0
  6
Continuous
 62
     7
370
    25
100
AcDbSpline
210
0.0
220
0.0
230
1.0
 70
     8
 71
     3
 72
    15
 73
    11
 74
     0
 42
0.00000001
 43
0.00000001
 40
0.0
 40
0.0
 40
0.0
 40
0.0
 40
0.1412339174837281
 40
0.2023052803541509
 40
0.2783021017993619
 40
0.3784745416955049
 40
0.4777953235346594
 40
0.5946625893840927
 40
0.6871109492301499
 40
0.6890769650038177
 40
0.6890769650038177
 40
0.6890769650038177
 40
0.6890769650038177
 10
31.40131224727349
 20
11.2628487313971
 30
0.0
 10
30.24152029823982
 20
11.2376168267523
 30
0.0
 10
30.97616665268958
 20
14.2834123667276
 30
0.0
 10
28.17879855748664
 20
13.17866070775979
 30
0.0
 10
29.14436517648313
 20
15.51985509735172
 30
0.0
 10
27.468244362747
 20
16.83310903023355
 30
0.0
 10
24.66010332214434
 20
16.33940639495675
 30
0.0
 10
26.19705363086369
 20
20.75511162066975
 30
0.0
 10
24.4303615014076
 20
18.24872395306313
 30
0.0
 10
23.96601377374618
 20
18.30868241655676
 30
0.0
 10
23.95647965922147
 20
18.31042328717866
 30
0.0
  0
SPLINE
  5
C4
330
1F
100
AcDbEntity
  8
0
  6
Continuous
 62
     7
370
    25
100
AcDbSpline
210
0.0
220
0.0
230
1.0
 70
     8
 71
     3
 72
    10
 73
     6
 74
     0
 42
0.00000001
 43
0.00000001
 40
0.234039814920436
 40
0.234039814920436
 40
0.234039814920436
 40
0.234039814920436
 40
0.2414533365202614
 40
0.2528112022159885
 40
0.2665484381416674
 40
0.2665484381416674
 40
0.2665484381416674
 40
0.2665484381416674
 10
18.09831621477433
 20
2.62049192365161
 30
0.0
 10
17.2440235328653
 20
2.343014186623532
 30
0.0
 10
15.06618044751662
 20
1.627278565497889
 30
0.0
 10
11.21001016673785
 20
1.53016644145503
 30
0.0
 10
8.311369233233407
 20
2.27950330010212
 30
0.0
 10
6.714952513411729
 20
2.493576974240259
 30
0.0
  0
SPLINE
  5
C5
330
1F
100
AcDbEntity
  8
0
  6
Continuous
 62
     7
370
    25
100
AcDbSpline
210
0.0
220
0.0
230
1.0
 70
     8
 71
     3
 72
     8
 73
     4
 74
     0
 42
0.00000001
 43
0.00000001
 40
0.6921034084249971
 40
0.6921034084249971
 40
0.6921034084249971
 40
0.6921034084249971
 40
1.0
 40
1.0
 40
1.0
 40
1.0
 10
17.08709734959903
 20
6.064036445112308
 30
0.0
 10
16.89345498706979
 20
4.582687691035131
 30
0.0
 10
14.02590964136565
 20
3.880157117420668
 30
0.0
 10
18.09831621403467
 20
2.620491923411362
 30
0.0
  0
SPLINE
  5
C6
330
1F
100
AcDbEntity
  8
0
  6
Continuous
 62
     7
370
    25
100
AcDbSpline
210
0.0
220
0.0
230
1.0
 70
     8
 71
     3
 72
     8
 73
     4
 74
     0
 42
0.00000001
 43
0.00000001
 40
0.0
 40
0.0
 40
0.0
 40
0.0
 40
0.1476033659910039
 40
0.1476033659910039
 40
0.1476033659910039
 40
0.1476033659910039
 10
17.08709734959764
 20
6.064036445101686
 30
0.0
 10
15.18094303456769
 20
5.662811484447843
 30
0.0
 10
14.82429527961505
 20
6.628573008520723
 30
0.0
 10
14.60424071661721
 20
7.697784364857754
 30
0.0
  0
SPLINE
  5
C7
330
1F
100
AcDbEntity
  8
0
  6
Continuous
 62
     7
370
    25
100
AcDbSpline
210
0.0
220
0.0
230
1.0
 70
     8
 71
     3
 72
    11
 73
     7
 74
     0
 42
0.00000001
 43
0.00000001
 40
0.0
 40
0.0
 40
0.0
 40
0.0
 40
0.3720647885740858
 40
0.4717876251454382
 40
0.6602768240715065
 40
1.0
 40
1.0
 40
1.0
 40
1.0
 10
14.60424071661692
 20
7.697784364859175
 30
0.0
 10
13.44069789103035
 20
9.261557497981235
 30
0.0
 10
11.05178924640179
 20
7.791791376135809
 30
0.0
 10
11.83888646512839
 20
5.021170729540792
 30
0.0
 10
8.496919658625053
 20
4.977659840435568
 30
0.0
 10
8.329988219598015
 20
2.443098995470537
 30
0.0
 10
6.714952513429536
 20
2.493576974237872
 30
0.0
  0
SPLINE
  5
C8
330
1F
100
AcDbEntity
  8
0
  6
Continuous
 62
     7
370
    25
100
AcDbSpline
210
0.0
220
0.0
230
1.0
 70
     8
 71
     3
 72
    10
 73
     6
 74
     0
 42
0.00000001
 43
0.00000001
 40
0.0085996879363351
 40
0.0085996879363351
 40
0.0085996879363351
 40
0.0085996879363351
 40
0.1886913501591496
 40
0.3306975656747957
 40
0.3914471681341097
 40
0.3914471681341097
 40
0.3914471681341097
 40
0.3914471681341097
 10
10.54585148567038
 20
15.50202768268191
 30
0.0
 10
10.21001149977389
 20
16.86048914983811
 30
0.0
 10
8.344146831336255
 20
16.28105850649275
 30
0.0
 10
6.217929345550615
 20
16.75711561439422
 30
0.0
 10
5.429725004216582
 20
17.48356473914765
 30
0.0
 10
5.22008137679615
 20
17.7386270416223
 30
0.0
  0
SPLINE
  5
C9
330
1F
100
AcDbEntity
  8
0
  6
Continuous
 62
     7
370
    25
100
AcDbSpline
210
0.0
220
0.0
230
1.0
 70
     8
 71
     3
 72
    11
 73
     7
 74
     0
 42
0.00000001
 43
0.00000001
 40
0.0
 40
0.0
 40
0.0
 40
0.0
 40
0.4039760516762765
 40
0.5667402761978502
 40
0.668624240363483
 40
1.0
 40
1.0
 40
1.0
 40
1.0
 10
9.02949678700605
 20
6.330568455358808
 30
0.0
 10
10.96154156411071
 20
11.43634199248069
 30
0.0
 10
7.191056671726882
 20
8.638800917501115
 30
0.0
 10
5.363019046511719
 20
12.41796946527748
 30
0.0
 10
8.114518739048721
 20
14.29305303485568
 30
0.0
 10
3.960384867981535
 20
16.44048087607537
 30
0.0
 10
5.220081376798197
 20
17.73862704161981
 30
0.0
  0
SPLINE
  5
CA
330
1F
100
AcDbEntity
  8
0
  6
Continuous
 62
     7
370
    25
100
AcDbSpline
210
0.0
220
0.0
230
1.0
 70
     8
 71
     3
 72
    11
 73
     7
 74
     0
 42
0.00000001
 43
0.00000001
 40
0.0
 40
0.0
 40
0.0
 40
0.0
 40
0.2499377909554391
 40
0.3502924325962273
 40
0.4479549250435113
 40
0.5040368850614488
 40
0.5040368850614488
 40
0.5040368850614488
 40
0.5040368850614488
 10
12.5537855193538
 20
10.10667935200275
 30
0.0
 10
10.92998080737037
 20
9.981758724421255
 30
0.0
 10
10.37781395332335
 20
9.012167990364768
 30
0.0
 10
10.94783372593985
 20
6.926643583657886
 30
0.0
 10
9.766359264694719
 20
6.719944183449941
 30
0.0
 10
9.213833251643804
 20
6.446435173706739
 30
0.0
 10
9.02949678688444
 20
6.330568455282369
 30
0.0
  0
SPLINE
  5
CB
330
1F
100
AcDbEntity
  8
0
  6
Continuous
 62
     7
370
    25
100
AcDbSpline
210
0.0
220
0.0
230
1.0
 70
     8
 71
     3
 72
    11
 73
     7
 74
     0
 42
0.00000001
 43
0.00000001
 40
0.316101743817261
 40
0.316101743817261
 40
0.316101743817261
 40
0.316101743817261
 40
0.3752898148895477
 40
0.5301029490784087
 40
0.6159094508820511
 40
0.636791123941087
 40
0.636791123941087
 40
0.636791123941087
 40
0.636791123941087
 10
12.55378551935702
 20
10.10667935200214
 30
0.0
 10
12.12038726832685
 20
10.18988575463838
 30
0.0
 10
10.65398996245083
 20
10.49918171158549
 30
0.0
 10
12.245263339095
 20
13.42587768097325
 30
0.0
 10
10.73685057814352
 20
14.70516319676927
 30
0.0
 10
10.56623397333092
 20
15.36816169911139
 30
0.0
 10
10.54585148562306
 20
15.50202768267024
 30
0.0
  0
SPLINE
  5
CC
330
1F
100
AcDbEntity
  8
0
  6
Continuous
 62
     7
370
    25
100
AcDbSpline
210
0.0
220
0.0
230
1.0
 70
     8
 71
     3
 72
     9
 73
     5
 74
     0
 42
0.00000001
 43
0.00000001
 40
0.7539305441429752
 40
0.7539305441429752
 40
0.7539305441429752
 40
0.7539305441429752
 40
0.823830908698764
 40
0.8483669997891179
 40
0.8483669997891179
 40
0.8483669997891179
 40
0.8483669997891179
 10
23.24391120902066
 20
19.39687475329936
 30
0.0
 10
22.99537296179765
 20
19.8666445932063
 30
0.0
 10
22.56052304304044
 20
20.25440338173732
 30
0.0
 10
22.37073817138075
 20
20.84025096477312
 30
0.0
 10
22.33819387981726
 20
20.99999999999944
 30
0.0
  0
SPLINE
  5
CE
330
1F
100
AcDbEntity
  8
0
  6
Continuous
 62
     7
370
    25
100
AcDbSpline
210
0.0
220
0.0
230
1.0
 70
     8
 71
     3
 72
    10
 73
     6
 74
     0
 42
0.00000001
 43
0.00000001
 40
0.0
 40
0.0
 40
0.0
 40
0.0
 40
0.3159817533685075
 40
0.5134149897881619
 40
0.8862662068275423
 40
0.8862662068275423
 40
0.8862662068275423
 40
0.8862662068275423
 10
21.68498000326565
 20
17.09082949718412
 30
0.0
 10
21.38993169964204
 20
19.46806972714506
 30
0.0
 10
17.48909270049536
 20
16.55876259892165
 30
0.0
 10
17.63807455552591
 20
22.56398684080578
 30
0.0
 10
13.3829508172726
 20
19.53502075111231
 30
0.0
 10
12.6010788582488
 20
20.99999999983952
 30
0.0
  0
SPLINE
  5
CF
330
1F
100
AcDbEntity
  8
0
  6
Continuous
 62
     7
370
    25
100
AcDbSpline
210
0.0
220
0.0
230
1.0
 70
     8
 71
     3
 72
     8
 73
     4
 74
     0
 42
0.00000001
 43
0.00000001
 40
0.8636660007546911
 40
0.8636660007546911
 40
0.8636660007546911
 40
0.8636660007546911
 40
1.0
 40
1.0
 40
1.0
 40
1.0
 10
21.68498000326273
 20
17.09082949713573
 30
0.0
 10
21.73736665559468
 20
17.958002044616
 30
0.0
 10
21.99153280028518
 20
18.73519127446994
 30
0.0
 10
23.24391120902079
 20
19.39687475329909
 30
0.0
  0
SPLINE
  5
D0
330
1F
100
AcDbEntity
  8
0
  6
Continuous
 62
     7
370
    25
100
AcDbSpline
210
0.0
220
0.0
230
1.0
 70
     8
 71
     3
 72
     9
 73
     5
 74
     0
 42
0.00000001
 43
0.00000001
 40
0.1234235315124004
 40
0.1234235315124004
 40
0.1234235315124004
 40
0.1234235315124004
 40
0.1501369342897727
 40
0.1632055212467152
 40
0.1632055212467152
 40
0.1632055212467152
 40
0.1632055212467152
 10
56.63853201152799
 20
1.879939291396235
 30
0.0
 10
53.5332938518408
 20
1.484814833762315
 30
0.0
 10
48.8431125968503
 20
2.408234010030411
 30
0.0
 10
44.14099972724531
 20
3.009557599775919
 30
0.0
 10
42.59845813559749
 20
3.114279449844728
 30
0.0
  0
SPLINE
  5
D1
330
1F
100
AcDbEntity
  8
0
  6
Continuous
 62
     7
370
    25
100
AcDbSpline
210
0.0
220
0.0
230
1.0
 70
     8
 71
     3
 72
    10
 73
     6
 74
     0
 42
0.00000001
 43
0.00000001
 40
0.5638731627715433
 40
0.5638731627715433
 40
0.5638731627715433
 40
0.5638731627715433
 40
0.6534657387856949
 40
0.7805319079810421
 40
1.0
 40
1.0
 40
1.0
 40
1.0
 10
53.28456515146826
 20
8.261487718852532
 30
0.0
 10
53.14500612141148
 20
7.740048091414224
 30
0.0
 10
53.1765711453362
 20
6.362108520778252
 30
0.0
 10
54.57566931854071
 20
3.89186710279559
 30
0.0
 10
57.55597001280255
 20
3.824329218941625
 30
0.0
 10
56.63853201152799
 20
1.879939291396235
 30
0.0
  0
SPLINE
  5
D2
330
1F
100
AcDbEntity
  8
0
  6
Continuous
 62
     7
370
    25
100
AcDbSpline
210
0.0
220
0.0
230
1.0
 70
     8
 71
     3
 72
     8
 73
     4
 74
     0
 42
0.00000001
 43
0.00000001
 40
0.7529541816597294
 40
0.7529541816597294
 40
0.7529541816597294
 40
0.7529541816597294
 40
1.0
 40
1.0
 40
1.0
 40
1.0
 10
47.22906016286415
 20
8.84869112723965
 30
0.0
 10
49.56882760143939
 20
8.206566776666238
 30
0.0
 10
51.55818500878044
 20
11.60589465749442
 30
0.0
 10
53.28456515146831
 20
8.26148771885274
 30
0.0
  0
SPLINE
  5
D3
330
1F
100
AcDbEntity
  8
0
  6
Continuous
 62
     7
370
    25
100
AcDbSpline
210
0.0
220
0.0
230
1.0
 70
     8
 71
     3
 72
     9
 73
     5
 74
     0
 42
0.00000001
 43
0.00000001
 40
0.0
 40
0.0
 40
0.0
 40
0.0
 40
0.608585424698708
 40
1.0
 40
1.0
 40
1.0
 40
1.0
 10
47.22906016279823
 20
8.848691127257736
 30
0.0
 10
46.15721243438746
 20
8.509906653645812
 30
0.0
 10
40.69327669136046
 20
6.962895874568967
 30
0.0
 10
44.63022325101051
 20
3.896095877298382
 30
0.0
 10
42.59845813934765
 20
3.114279449590134
 30
0.0
  0
SPLINE
  5
D4
330
1F
100
AcDbEntity
  8
0
  6
Continuous
 62
     7
370
    25
100
AcDbSpline
210
0.0
220
0.0
230
1.0
 70
     8
 71
     3
 72
     9
 73
     5
 74
     0
 42
0.00000001
 43
0.00000001
 40
0.1678459407746306
 40
0.1678459407746306
 40
0.1678459407746306
 40
0.1678459407746306
 40
0.1851633298553506
 40
0.1921409695952092
 40
0.1921409695952092
 40
0.1921409695952092
 40
0.1921409695952092
 10
40.95622924495072
 20
3.188127147679447
 30
0.0
 10
38.91475481652397
 20
3.229851410487352
 30
0.0
 10
36.05894065584407
 20
3.008956723921309
 30
0.0
 10
33.23030100215983
 20
2.130161498946697
 30
0.0
 10
32.42137247896748
 20
1.920221818227491
 30
0.0
  0
SPLINE
  5
D5
330
1F
100
AcDbEntity
  8
0
  6
Continuous
 62
     7
370
    25
100
AcDbSpline
210
0.0
220
0.0
230
1.0
 70
     8
 71
     3
 72
     9
 73
     5
 74
     0
 42
0.00000001
 43
0.00000001
 40
0.0
 40
0.0
 40
0.0
 40
0.0
 40
0.3358923103177575
 40
0.3455572305983485
 40
0.3455572305983485
 40
0.3455572305983485
 40
0.3455572305983485
 10
40.95622924173706
 20
3.188127147745129
 30
0.0
 10
43.73760191002016
 20
4.363171689218261
 30
0.0
 10
39.92758272051316
 20
5.301140757122968
 30
0.0
 10
40.41700963617408
 20
6.109347567552395
 30
0.0
 10
40.4334503982261
 20
6.131959956221447
 30
0.0
  0
SPLINE
  5
D6
330
1F
100
AcDbEntity
  8
0
  6
Continuous
 62
     7
370
    25
100
AcDbSpline
210
0.0
220
0.0
230
1.0
 70
     8
 71
     3
 72
     8
 73
     4
 74
     0
 42
0.00000001
 43
0.00000001
 40
0.8895604563571152
 40
0.8895604563571152
 40
0.8895604563571152
 40
0.8895604563571152
 40
0.9974470721269713
 40
0.9974470721269713
 40
0.9974470721269713
 40
0.9974470721269713
 10
40.39299531509536
 20
8.261487718852736
 30
0.0
 10
40.82134255185859
 20
7.725348379221127
 30
0.0
 10
40.98625870548367
 20
7.081504037322601
 30
0.0
 10
40.43345039834961
 20
6.131959956136016
 30
0.0
  0
SPLINE
  5
D7
330
1F
100
AcDbEntity
  8
0
  6
Continuous
 62
     7
370
    25
100
AcDbSpline
210
0.0
220
0.0
230
1.0
 70
     8
 71
     3
 72
     9
 73
     5
 74
     0
 42
0.00000001
 43
0.00000001
 40
0.6204181401021789
 40
0.6204181401021789
 40
0.6204181401021789
 40
0.6204181401021789
 40
0.7893128141682954
 40
1.0
 40
1.0
 40
1.0
 40
1.0
 10
32.42098864956551
 20
10.49711880125028
 30
0.0
 10
32.9618020832697
 20
9.304389990545264
 30
0.0
 10
35.91532167711367
 20
7.546255515591362
 30
0.0
 10
38.78083896997651
 20
8.423030760711459
 30
0.0
 10
40.39299531509535
 20
8.261487718852738
 30
0.0
  0
SPLINE
  5
D8
330
1F
100
AcDbEntity
  8
0
  6
Continuous
 62
     7
370
    25
100
AcDbSpline
210
0.0
220
0.0
230
1.0
 70
     8
 71
     3
 72
     8
 73
     4
 74
     0
 42
0.00000001
 43
0.00000001
 40
0.0
 40
0.0
 40
0.0
 40
0.0
 40
1.0
 40
1.0
 40
1.0
 40
1.0
 10
32.42098864956881
 20
10.49711880124301
 30
0.0
 10
27.58311587626032
 20
6.653515243132023
 30
0.0
 10
35.55996384619769
 20
5.574112748206086
 30
0.0
 10
32.42137247896731
 20
1.920221818227444
 30
0.0
  0
SPLINE
  5
D9
330
1F
100
AcDbEntity
  8
0
  6
Continuous
 62
     7
370
    25
100
AcDbSpline
210
0.0
220
0.0
230
1.0
 70
     8
 71
     3
 72
     8
 73
     4
 74
     0
 42
0.00000001
 43
0.00000001
 40
0.5839843759019018
 40
0.5839843759019018
 40
0.5839843759019018
 40
0.5839843759019018
 40
1.0
 40
1.0
 40
1.0
 40
1.0
 10
41.78346159396676
 20
8.261487718853317
 30
0.0
 10
42.63198199139612
 20
9.233206339099713
 30
0.0
 10
45.43477602924132
 20
8.289959956583706
 30
0.0
 10
45.49137167095535
 20
10.49711880124301
 30
0.0
  0
SPLINE
  5
DA
330
1F
100
AcDbEntity
  8
0
  6
Continuous
 62
     7
370
    25
100
AcDbSpline
210
0.0
220
0.0
230
1.0
 70
     8
 71
     3
 72
    10
 73
     6
 74
     0
 42
0.00000001
 43
0.00000001
 40
0.5087736747870328
 40
0.5087736747870328
 40
0.5087736747870328
 40
0.5087736747870328
 40
0.5634538399499808
 40
0.663169221886232
 40
0.6631732988528252
 40
0.6631732988528252
 40
0.6631732988528252
 40
0.6631732988528252
 10
47.90332663311415
 20
13.79056503107737
 30
0.0
 10
47.72786842449479
 20
13.34827916107945
 30
0.0
 10
47.24785367500432
 20
12.10288367831959
 30
0.0
 10
45.50165353514441
 20
11.21662561109669
 30
0.0
 10
45.49137082828356
 20
10.4970599635222
 30
0.0
 10
45.49137040974949
 20
10.49703054429285
 30
0.0
  0
SPLINE
  5
DB
330
1F
100
AcDbEntity
  8
0
  6
Continuous
 62
     7
370
    25
100
AcDbSpline
210
0.0
220
0.0
230
1.0
 70
     8
 71
     3
 72
    11
 73
     7
 74
     0
 42
0.00000001
 43
0.00000001
 40
0.0
 40
0.0
 40
0.0
 40
0.0
 40
0.2684966261742263
 40
0.5179814553093669
 40
0.6512106455102374
 40
1.0
 40
1.0
 40
1.0
 40
1.0
 10
47.90332663311415
 20
13.79056503107736
 30
0.0
 10
47.28011785157462
 20
14.98481500643875
 30
0.0
 10
44.62734104698112
 20
15.65192853238515
 30
0.0
 10
42.32077455078684
 20
13.8592209902627
 30
0.0
 10
39.16516005896856
 20
12.1840208062386
 30
0.0
 10
40.98567016831853
 20
8.90109091482668
 30
0.0
 10
41.78346159396625
 20
8.261487718852738
 30
0.0
  0
SPLINE
  5
DC
330
1F
100
AcDbEntity
  8
0
  6
Continuous
 62
     7
370
    25
100
AcDbSpline
210
0.0
220
0.0
230
1.0
 70
     8
 71
     3
 72
     9
 73
     5
 74
     0
 42
0.00000001
 43
0.00000001
 40
0.3783046671837797
 40
0.3783046671837797
 40
0.3783046671837797
 40
0.3783046671837797
 40
0.384427904357296
 40
0.3916453197006988
 40
0.3916453197006988
 40
0.3916453197006988
 40
0.3916453197006988
 10
-32.35134711220189
 20
2.732786637783745
 30
0.0
 10
-33.06851026098932
 20
2.611354275685001
 30
0.0
 10
-34.62626376933354
 20
2.435507636347002
 30
0.0
 10
-36.15817745541057
 20
2.862937628617244
 30
0.0
 10
-36.99385232703532
 20
3.062289999785329
 30
0.0
  0
SPLINE
  5
DD
330
1F
100
AcDbEntity
  8
0
  6
Continuous
 62
     7
370
    25
100
AcDbSpline
210
0.0
220
0.0
230
1.0
 70
     8
 71
     3
 72
     9
 73
     5
 74
     0
 42
0.00000001
 43
0.00000001
 40
0.6443890354044166
 40
0.6443890354044166
 40
0.6443890354044166
 40
0.6443890354044166
 40
0.7088409430925648
 40
1.0
 40
1.0
 40
1.0
 40
1.0
 10
-30.61448348308331
 20
6.579023245806659
 30
0.0
 10
-30.77277489418939
 20
6.3599352016987
 30
0.0
 10
-31.76640655109163
 20
5.223479283002238
 30
0.0
 10
-33.04662955796139
 20
4.260999485349437
 30
0.0
 10
-32.351347112189
 20
2.732786637785927
 30
0.0
  0
SPLINE
  5
DE
330
1F
100
AcDbEntity
  8
0
  6
Continuous
 62
     7
370
    25
100
AcDbSpline
210
0.0
220
0.0
230
1.0
 70
     8
 71
     3
 72
     9
 73
     5
 74
     0
 42
0.00000001
 43
0.00000001
 40
0.6193738659042186
 40
0.6193738659042186
 40
0.6193738659042186
 40
0.6193738659042186
 40
0.7165900673121288
 40
1.0
 40
1.0
 40
1.0
 40
1.0
 10
-32.27355536201916
 20
10.82839705902645
 30
0.0
 10
-32.13441443685053
 20
10.48883487469612
 30
0.0
 10
-32.56967239809024
 20
8.709211748861485
 30
0.0
 10
-31.72956043909173
 20
7.173965490763717
 30
0.0
 10
-30.61448348308331
 20
6.579023245806656
 30
0.0
  0
SPLINE
  5
DF
330
1F
100
AcDbEntity
  8
0
  6
Continuous
 62
     7
370
    25
100
AcDbSpline
210
0.0
220
0.0
230
1.0
 70
     8
 71
     3
 72
    11
 73
     7
 74
     0
 42
0.00000001
 43
0.00000001
 40
0.0
 40
0.0
 40
0.0
 40
0.0
 40
0.3291588635154214
 40
0.5045933192774571
 40
0.6841833390556936
 40
1.0
 40
1.0
 40
1.0
 40
1.0
 10
-32.27355536201916
 20
10.82839705902644
 30
0.0
 10
-33.79211567444045
 20
10.7533639530502
 30
0.0
 10
-34.0379042962681
 20
8.970874275793541
 30
0.0
 10
-37.18105682689918
 20
7.894990410256312
 30
0.0
 10
-34.44234073238694
 20
5.263471031716199
 30
0.0
 10
-38.08312215498289
 20
4.506094760549231
 30
0.0
 10
-36.99385232710762
 20
3.062289999802574
 30
0.0
  0
SPLINE
  5
E1
330
1F
100
AcDbEntity
  8
0
  6
Continuous
 62
     7
370
    25
100
AcDbSpline
210
0.0
220
0.0
230
1.0
 70
     8
 71
     3
 72
    13
 73
     9
 74
     0
 42
0.00000001
 43
0.00000001
 40
0.0
 40
0.0
 40
0.0
 40
0.0
 40
0.2123151166515866
 40
0.3647891055624573
 40
0.5038714080366666
 40
0.6370767216742216
 40
0.7570828980848998
 40
0.9112236910448082
 40
0.9112236910448082
 40
0.9112236910448082
 40
0.9112236910448082
 10
-28.56865074090881
 20
17.09082949718412
 30
0.0
 10
-28.99216388173883
 20
18.28133670375943
 30
0.0
 10
-30.63436272696417
 20
16.88221509524714
 30
0.0
 10
-31.72313958755395
 20
19.37758191609179
 30
0.0
 10
-32.9770592291473
 20
17.96651435143864
 30
0.0
 10
-35.19693456498542
 20
18.64959913524944
 30
0.0
 10
-32.97617510137815
 20
20.00724266234218
 30
0.0
 10
-34.78926752920897
 20
20.56585285773458
 30
0.0
 10
-34.89596589804767
 20
21.00000000055454
 30
0.0
  0
SPLINE
  5
E2
330
1F
100
AcDbEntity
  8
0
  6
Continuous
 62
     7
370
    25
100
AcDbSpline
210
0.0
220
0.0
230
1.0
 70
     8
 71
     3
 72
     9
 73
     5
 74
     0
 42
0.00000001
 43
0.00000001
 40
0.0
 40
0.0
 40
0.0
 40
0.0
 40
0.1857417282248296
 40
0.276438947633088
 40
0.276438947633088
 40
0.276438947633088
 40
0.276438947633088
 10
-24.05358059577107
 20
18.78411206802263
 30
0.0
 10
-25.40047252242089
 20
19.534091915777
 30
0.0
 10
-26.42565116056591
 20
17.48603299842789
 30
0.0
 10
-28.09752917996046
 20
17.55720703278525
 30
0.0
 10
-28.56865074090881
 20
17.09082949718411
 30
0.0
  0
SPLINE
  5
E3
330
1F
100
AcDbEntity
  8
0
  6
Continuous
 62
     7
370
    25
100
AcDbSpline
210
0.0
220
0.0
230
1.0
 70
     8
 71
     3
 72
     9
 73
     5
 74
     0
 42
0.00000001
 43
0.00000001
 40
0.5961449042948403
 40
0.5961449042948403
 40
0.5961449042948403
 40
0.5961449042948403
 40
0.6924569329050877
 40
0.7828658247288458
 40
0.7828658247288458
 40
0.7828658247288458
 40
0.7828658247288458
 10
-24.05358059580019
 20
18.78411206813569
 30
0.0
 10
-24.15983060090696
 20
19.19654370475832
 30
0.0
 10
-25.08730883811106
 20
19.72212299199509
 30
0.0
 10
-25.42055823609719
 20
20.57356340855709
 30
0.0
 10
-25.51417689535437
 20
20.99999999979206
 30
0.0
  0
SPLINE
  5
E4
330
1F
100
AcDbEntity
  8
0
  6
Continuous
 62
     7
370
    25
100
AcDbSpline
210
0.0
220
0.0
230
1.0
 70
     8
 71
     3
 72
    10
 73
     6
 74
     0
 42
0.00000001
 43
0.00000001
 40
0.241715895436557
 40
0.241715895436557
 40
0.241715895436557
 40
0.241715895436557
 40
0.3257084150205903
 40
0.4077724625288965
 40
0.4408347874517149
 40
0.4408347874517149
 40
0.4408347874517149
 40
0.4408347874517149
 10
-40.48072016159306
 20
10.02922966098809
 30
0.0
 10
-40.92190920792241
 20
9.934781100535497
 30
0.0
 10
-41.75877357485844
 20
9.672897943692435
 30
0.0
 10
-42.57042334279207
 20
9.011331595055832
 30
0.0
 10
-43.07357950049203
 20
8.629154958710695
 30
0.0
 10
-43.22377252083754
 20
8.534160080947878
 30
0.0
  0
SPLINE
  5
E5
330
1F
100
AcDbEntity
  8
0
  6
Continuous
 62
     7
370
    25
100
AcDbSpline
210
0.0
220
0.0
230
1.0
 70
     8
 71
     3
 72
    11
 73
     7
 74
     0
 42
0.00000001
 43
0.00000001
 40
0.4746074294719825
 40
0.4746074294719825
 40
0.4746074294719825
 40
0.4746074294719825
 40
0.5100488975647005
 40
0.6286157286976807
 40
0.7098274084981763
 40
1.0
 40
1.0
 40
1.0
 40
1.0
 10
-40.48072016483909
 20
17.0908294971841
 30
0.0
 10
-40.45936765418053
 20
16.90573102645221
 30
0.0
 10
-40.36680484893188
 20
16.09766955760322
 30
0.0
 10
-42.06989007531836
 20
15.61973803642762
 30
0.0
 10
-41.35065406612953
 20
12.8965006480694
 30
0.0
 10
-42.27267790488715
 20
11.28154969864217
 30
0.0
 10
-40.48072016160665
 20
10.02922966098518
 30
0.0
  0
SPLINE
  5
E6
330
1F
100
AcDbEntity
  8
0
  6
Continuous
 62
     7
370
    25
100
AcDbSpline
210
0.0
220
0.0
230
1.0
 70
     8
 71
     3
 72
     9
 73
     5
 74
     0
 42
0.00000001
 43
0.00000001
 40
0.0
 40
0.0
 40
0.0
 40
0.0
 40
0.2986425392415547
 40
0.4468982307135569
 40
0.4468982307135569
 40
0.4468982307135569
 40
0.4468982307135569
 10
-40.48072016483909
 20
17.09082949718412
 30
0.0
 10
-41.26433997289258
 20
17.20036532117057
 30
0.0
 10
-43.06494568582967
 20
16.40909032779197
 30
0.0
 10
-43.86435758424493
 20
17.80853495166952
 30
0.0
 10
-43.90244053292311
 20
18.30669700167497
 30
0.0
  0
SPLINE
  5
E7
330
1F
100
AcDbEntity
  8
0
  6
Continuous
 62
     7
370
    25
100
AcDbSpline
210
0.0
220
0.0
230
1.0
 70
     8
 71
     3
 72
    11
 73
     7
 74
     0
 42
0.00000001
 43
0.00000001
 40
0.0
 40
0.0
 40
0.0
 40
0.0
 40
0.401546982690426
 40
0.5486997445814755
 40
0.75203202058751
 40
1.0
 40
1.0
 40
1.0
 40
1.0
 10
-43.90244053292311
 20
18.30669700167498
 30
0.0
 10
-47.35537506959418
 20
18.06186865297443
 30
0.0
 10
-43.85778230369516
 20
15.01330392300786
 30
0.0
 10
-48.13276356914313
 20
12.06223037794714
 30
0.0
 10
-42.70603155205615
 20
11.92727959637342
 30
0.0
 10
-45.61967634601385
 20
8.643729506969688
 30
0.0
 10
-43.22377252214181
 20
8.534160080122941
 30
0.0
  0
SPLINE
  5
E8
330
1F
100
AcDbEntity
  8
0
  6
Continuous
 62
     7
370
    25
100
AcDbSpline
210
0.0
220
0.0
230
1.0
 70
     8
 71
     3
 72
     8
 73
     4
 74
     0
 42
0.00000001
 43
0.00000001
 40
0.0
 40
0.0
 40
0.0
 40
0.0
 40
0.18347731756668
 40
0.18347731756668
 40
0.18347731756668
 40
0.18347731756668
 10
-36.99410237649855
 20
9.128808909356959
 30
0.0
 10
-37.5808174873688
 20
10.13433993375038
 30
0.0
 10
-38.55598038515836
 20
10.27527123404952
 30
0.0
 10
-39.54558869612906
 20
10.17739861282851
 30
0.0
  0
SPLINE
  5
E9
330
1F
100
AcDbEntity
  8
0
  6
Continuous
 62
     7
370
    25
100
AcDbSpline
210
0.0
220
0.0
230
1.0
 70
     8
 71
     3
 72
    11
 73
     7
 74
     0
 42
0.00000001
 43
0.00000001
 40
0.0
 40
0.0
 40
0.0
 40
0.0
 40
0.18902294207268
 40
0.2802758606241461
 40
0.3540414569473377
 40
0.4102166291151987
 40
0.4102166291151987
 40
0.4102166291151987
 40
0.4102166291151987
 10
-33.1866946368377
 20
11.91005680751611
 30
0.0
 10
-33.50481149399214
 20
11.10820843095811
 30
0.0
 10
-34.83487879352406
 20
11.26725096500155
 30
0.0
 10
-35.67007065972383
 20
10.0952773316416
 30
0.0
 10
-36.3294975734815
 20
9.666791524021471
 30
0.0
 10
-36.80331311043606
 20
9.300230998121533
 30
0.0
 10
-36.99410237649855
 20
9.128808909356957
 30
0.0
  0
SPLINE
  5
EA
330
1F
100
AcDbEntity
  8
0
  6
Continuous
 62
     7
370
    25
100
AcDbSpline
210
0.0
220
0.0
230
1.0
 70
     8
 71
     3
 72
    11
 73
     7
 74
     0
 42
0.00000001
 43
0.00000001
 40
0.0
 40
0.0
 40
0.0
 40
0.0
 40
0.1917222684777053
 40
0.330187479189364
 40
0.4118732618046444
 40
0.507735745530822
 40
0.507735745530822
 40
0.507735745530822
 40
0.507735745530822
 10
-33.79607907909548
 20
17.09082949718412
 30
0.0
 10
-34.80345506822919
 20
14.90558046386827
 30
0.0
 10
-33.44156633972359
 20
15.98053474220368
 30
0.0
 10
-31.61249405648572
 20
13.47405338684642
 30
0.0
 10
-33.52284330479988
 20
13.31421142571635
 30
0.0
 10
-33.41294950837257
 20
12.29939033714301
 30
0.0
 10
-33.18669463683771
 20
11.91005680751611
 30
0.0
  0
SPLINE
  5
EB
330
1F
100
AcDbEntity
  8
0
  6
Continuous
 62
     7
370
    25
100
AcDbSpline
210
0.0
220
0.0
230
1.0
 70
     8
 71
     3
 72
     9
 73
     5
 74
     0
 42
0.00000001
 43
0.00000001
 40
0.3942575959973146
 40
0.3942575959973146
 40
0.3942575959973146
 40
0.3942575959973146
 40
0.5575499915154127
 40
0.6155978972467947
 40
0.6155978972467947
 40
0.6155978972467947
 40
0.6155978972467947
 10
-33.79607907909107
 20
17.0908294971843
 30
0.0
 10
-34.5851827293415
 20
17.05785538957278
 30
0.0
 10
-35.7892783522227
 20
17.30627541950343
 30
0.0
 10
-35.85589674724929
 20
18.13204296835463
 30
0.0
 10
-35.83415428941611
 20
18.37057695111958
 30
0.0
  0
SPLINE
  5
EC
330
1F
100
AcDbEntity
  8
0
  6
Continuous
 62
     7
370
    25
100
AcDbSpline
210
0.0
220
0.0
230
1.0
 70
     8
 71
     3
 72
    13
 73
     9
 74
     0
 42
0.00000001
 43
0.00000001
 40
0.0363582255928637
 40
0.0363582255928637
 40
0.0363582255928637
 40
0.0363582255928637
 40
0.3014840311589586
 40
0.3917964310130303
 40
0.52463222015603
 40
0.6227228946239867
 40
0.7216776379331995
 40
1.0
 40
1.0
 40
1.0
 40
1.0
 10
-35.83415428940635
 20
18.370576951112
 30
0.0
 10
-36.39648184518726
 20
19.62501273262158
 30
0.0
 10
-40.15964097740984
 20
18.64866098869504
 30
0.0
 10
-38.16592203380557
 20
16.24614092248874
 30
0.0
 10
-40.87886956702467
 20
15.58537870138802
 30
0.0
 10
-38.90161374744473
 20
13.96476355240646
 30
0.0
 10
-42.27107905858544
 20
12.70434470524528
 30
0.0
 10
-37.40133691446811
 20
10.91401360904368
 30
0.0
 10
-39.54558869079291
 20
10.17739861335625
 30
0.0
  0
SPLINE
  5
ED
330
1F
100
AcDbEntity
  8
0
  6
Continuous
 62
     7
370
    25
100
AcDbSpline
210
0.0
220
0.0
230
1.0
 70
     8
 71
     3
 72
     9
 73
     5
 74
     0
 42
0.00000001
 43
0.00000001
 40
0.2856250651599661
 40
0.2856250651599661
 40
0.2856250651599661
 40
0.2856250651599661
 40
0.3038485076284944
 40
0.3104290473176917
 40
0.3104290473176917
 40
0.3104290473176917
 40
0.3104290473176917
 10
0.0000143771895864
 20
2.284948585768878
 30
0.0
 10
-2.151013992023375
 20
2.034278848998912
 30
0.0
 10
-5.083775778427946
 20
1.696505606778664
 30
0.0
 10
-7.977459316141699
 20
2.315764776134198
 30
0.0
 10
-8.743252000398362
 20
2.498984836907782
 30
0.0
  0
SPLINE
  5
EE
330
1F
100
AcDbEntity
  8
0
  6
Continuous
 62
     7
370
    25
100
AcDbSpline
210
0.0
220
0.0
230
1.0
 70
     8
 71
     3
 72
    12
 73
     8
 74
     0
 42
0.00000001
 43
0.00000001
 40
0.5297685563086273
 40
0.5297685563086273
 40
0.5297685563086273
 40
0.5297685563086273
 40
0.5339891135077469
 40
0.6357597891838968
 40
0.7388423566046404
 40
0.8127985263014571
 40
1.0
 40
1.0
 40
1.0
 40
1.0
 10
0.0119801018922358
 20
7.761781772131651
 30
0.0
 10
0.0081264578712603
 20
7.740464244258408
 30
0.0
 10
-0.092065343754183
 20
7.204706909099306
 30
0.0
 10
-0.4728310757935478
 20
6.132588666152627
 30
0.0
 10
1.613645073162806
 20
5.757567006559475
 30
0.0
 10
0.1073445223112272
 20
4.161054437822579
 30
0.0
 10
-0.080558801553556
 20
3.173885149083463
 30
0.0
 10
0.0000143771896648
 20
2.284948585768885
 30
0.0
  0
SPLINE
  5
EF
330
1F
100
AcDbEntity
  8
0
  6
Continuous
 62
     7
370
    25
100
AcDbSpline
210
0.0
220
0.0
230
1.0
 70
     8
 71
     3
 72
    12
 73
     8
 74
     0
 42
0.00000001
 43
0.00000001
 40
0.0600814392687373
 40
0.0600814392687373
 40
0.0600814392687373
 40
0.0600814392687373
 40
0.27340310739817
 40
0.3845251784608371
 40
0.5622742675892286
 40
0.643357705009565
 40
1.0
 40
1.0
 40
1.0
 40
1.0
 10
0.0119801018928473
 20
7.761781772131085
 30
0.0
 10
-0.6077654167716974
 20
7.092162051695612
 30
0.0
 10
-3.586221301946684
 20
8.889016802594826
 30
0.0
 10
-2.246435555253036
 20
5.378546322444577
 30
0.0
 10
-5.054085136244475
 20
7.001127948767142
 30
0.0
 10
-6.003454982305025
 20
4.181829228105891
 30
0.0
 10
-8.84976025479259
 20
4.856905434176833
 30
0.0
 10
-8.743252000867335
 20
2.498984837019985
 30
0.0
  0
SPLINE
  5
F0
330
1F
100
AcDbEntity
  8
0
  6
Continuous
 62
     7
370
    25
100
AcDbSpline
210
0.0
220
0.0
230
1.0
 70
     8
 71
     3
 72
     8
 73
     4
 74
     0
 42
0.00000001
 43
0.00000001
 40
0.3320705471704972
 40
0.3320705471704972
 40
0.3320705471704972
 40
0.3320705471704972
 40
0.3489521729936496
 40
0.3489521729936496
 40
0.3489521729936496
 40
0.3489521729936496
 10
-16.266469679477
 20
3.230920518794588
 30
0.0
 10
-18.22085899361284
 20
2.807701125594548
 30
0.0
 10
-20.17532110586172
 20
1.986142764089321
 30
0.0
 10
-22.12148912343078
 20
2.053057922062047
 30
0.0
  0
SPLINE
  5
F1
330
1F
100
AcDbEntity
  8
0
  6
Continuous
 62
     7
370
    25
100
AcDbSpline
210
0.0
220
0.0
230
1.0
 70
     8
 71
     3
 72
     9
 73
     5
 74
     0
 42
0.00000001
 43
0.00000001
 40
0.6162961164022909
 40
0.6162961164022909
 40
0.6162961164022909
 40
0.6162961164022909
 40
0.7238363363322773
 40
1.0
 40
1.0
 40
1.0
 40
1.0
 10
-15.45654276685103
 20
8.848691127257734
 30
0.0
 10
-15.68683843453586
 20
8.397378204284719
 30
0.0
 10
-14.50757657424535
 20
5.810388046446931
 30
0.0
 10
-18.81172231443217
 20
5.361109513871409
 30
0.0
 10
-16.26646967947821
 20
3.230920518794325
 30
0.0
  0
SPLINE
  5
F2
330
1F
100
AcDbEntity
  8
0
  6
Continuous
 62
     7
370
    25
100
AcDbSpline
210
0.0
220
0.0
230
1.0
 70
     8
 71
     3
 72
     8
 73
     4
 74
     0
 42
0.00000001
 43
0.00000001
 40
0.7716778148907318
 40
0.7716778148907318
 40
0.7716778148907318
 40
0.7716778148907318
 40
1.0
 40
1.0
 40
1.0
 40
1.0
 10
-18.18113582777348
 20
10.8795783600259
 30
0.0
 10
-17.57261909869823
 20
9.898992486406662
 30
0.0
 10
-16.56773864517534
 20
9.190046631032319
 30
0.0
 10
-15.45654276685103
 20
8.848691127257736
 30
0.0
  0
SPLINE
  5
F3
330
1F
100
AcDbEntity
  8
0
  6
Continuous
 62
     7
370
    25
100
AcDbSpline
210
0.0
220
0.0
230
1.0
 70
     8
 71
     3
 72
    12
 73
     8
 74
     0
 42
0.00000001
 43
0.00000001
 40
0.0629823321574736
 40
0.0629823321574736
 40
0.0629823321574736
 40
0.0629823321574736
 40
0.2569283215237545
 40
0.4373346661422626
 40
0.6187397685871846
 40
0.7146863570095172
 40
1.0
 40
1.0
 40
1.0
 40
1.0
 10
-18.18113582707519
 20
10.87957836124249
 30
0.0
 10
-19.01344895728362
 20
11.349557069761
 30
0.0
 10
-21.51627717967881
 20
10.46155742553842
 30
0.0
 10
-19.57814273225111
 20
7.358055523142109
 30
0.0
 10
-22.31817972707411
 20
6.502236512981577
 30
0.0
 10
-22.32760207732649
 20
3.606683487739524
 30
0.0
 10
-19.12952182109597
 20
3.047822053515896
 30
0.0
 10
-22.12148912381188
 20
2.053057922075149
 30
0.0
  0
SPLINE
  5
F4
330
1F
100
AcDbEntity
  8
0
  6
Continuous
 62
     7
370
    25
100
AcDbSpline
210
0.0
220
0.0
230
1.0
 70
     8
 71
     3
 72
    11
 73
     7
 74
     0
 42
0.00000001
 43
0.00000001
 40
0.0
 40
0.0
 40
0.0
 40
0.0
 40
0.2136410426952065
 40
0.3676831307230299
 40
0.4795583289006332
 40
0.533557605068597
 40
0.533557605068597
 40
0.533557605068597
 40
0.533557605068597
 10
-8.743194724016027
 20
12.51119806219861
 30
0.0
 10
-9.495288425091653
 20
13.49433927797998
 30
0.0
 10
-11.50176444036067
 20
14.25101192989755
 30
0.0
 10
-14.17237098788774
 20
12.30493818330828
 30
0.0
 10
-13.22726946476518
 20
10.20447049995441
 30
0.0
 10
-14.03501736559519
 20
9.735766747782677
 30
0.0
 10
-14.32535551385036
 20
9.595709206630278
 30
0.0
  0
SPLINE
  5
F5
330
1F
100
AcDbEntity
  8
0
  6
Continuous
 62
     7
370
    25
100
AcDbSpline
210
0.0
220
0.0
230
1.0
 70
     8
 71
     3
 72
     9
 73
     5
 74
     0
 42
0.00000001
 43
0.00000001
 40
0.4174468777067753
 40
0.4174468777067753
 40
0.4174468777067753
 40
0.4174468777067753
 40
0.5224867812194584
 40
0.5832058129886127
 40
0.5832058129886127
 40
0.5832058129886127
 40
0.5832058129886127
 10
-7.839868900878037
 20
15.29569561859128
 30
0.0
 10
-7.898173953442519
 20
14.67496255237871
 30
0.0
 10
-8.956297998026358
 20
13.93888567531546
 30
0.0
 10
-8.779186541091166
 20
12.88499822100181
 30
0.0
 10
-8.743194724016027
 20
12.51119806219861
 30
0.0
  0
SPLINE
  5
F6
330
1F
100
AcDbEntity
  8
0
  6
Continuous
 62
     7
370
    25
100
AcDbSpline
210
0.0
220
0.0
230
1.0
 70
     8
 71
     3
 72
    12
 73
     8
 74
     0
 42
0.00000001
 43
0.00000001
 40
0.0
 40
0.0
 40
0.0
 40
0.0
 40
0.296807654001542
 40
0.440463489838826
 40
0.4932539672426114
 40
0.5617772868939447
 40
0.7113128924904989
 40
0.7113128924904989
 40
0.7113128924904989
 40
0.7113128924904989
 10
-7.839868900878039
 20
15.29569561859128
 30
0.0
 10
-8.329333256489049
 20
16.65963683999879
 30
0.0
 10
-10.9486584523915
 20
16.08268566276304
 30
0.0
 10
-11.59418937715541
 20
18.417626769558
 30
0.0
 10
-10.92130917939299
 20
19.51138715553332
 30
0.0
 10
-12.2587485254101
 20
20.04497923253662
 30
0.0
 10
-13.15490770078095
 20
19.8675449952623
 30
0.0
 10
-13.64664006598941
 20
19.82543677112162
 30
0.0
  0
SPLINE
  5
F7
330
1F
100
AcDbEntity
  8
0
  6
Continuous
 62
     7
370
    25
100
AcDbSpline
210
0.0
220
0.0
230
1.0
 70
     8
 71
     3
 72
    10
 73
     6
 74
     0
 42
0.00000001
 43
0.00000001
 40
0.0
 40
0.0
 40
0.0
 40
0.0
 40
0.4252228117965133
 40
0.5962103378892595
 40
1.0
 40
1.0
 40
1.0
 40
1.0
 10
-13.64664006879156
 20
19.82543677088166
 30
0.0
 10
-16.80430373350821
 20
19.44250288483378
 30
0.0
 10
-13.880154736943
 20
15.7719254164221
 30
0.0
 10
-18.28503270715295
 20
13.20614858557031
 30
0.0
 10
-15.78169534812312
 20
9.595560073032736
 30
0.0
 10
-14.32535551384871
 20
9.59570920663108
 30
0.0
  0
SPLINE
  5
101
330
1F
100
AcDbEntity
  8
0
  6
Continuous
 62
     7
370
    25
100
AcDbSpline
210
0.0
220
0.0
230
1.0
 70
     8
 71
     3
 72
     9
 73
     5
 74
     0
 42
0.00000001
 43
0.00000001
 40
0.4915162694368095
 40
0.4915162694368095
 40
0.4915162694368095
 40
0.4915162694368095
 40
0.4998880139786043
 40
0.5018804699916658
 40
0.5018804699916658
 40
0.5018804699916658
 40
0.5018804699916658
 10
-53.70809220323245
 20
18.30819807615469
 30
0.0
 10
-54.72794767150486
 20
18.85016917482443
 30
0.0
 10
-56.00419602457901
 20
19.32990641407049
 30
0.0
 10
-55.97195251263538
 20
20.385543524152
 30
0.0
 10
-55.92752560741092
 20
20.59999999976506
 30
0.0
  0
SPLINE
  5
102
330
1F
100
AcDbEntity
  8
0
  6
Continuous
 62
     7
370
    25
100
AcDbSpline
210
0.0
220
0.0
230
1.0
 70
     8
 71
     3
 72
    10
 73
     6
 74
     0
 42
0.00000001
 43
0.00000001
 40
0.0
 40
0.0
 40
0.0
 40
0.0
 40
0.3231091684346121
 40
0.4746450625304053
 40
1.0
 40
1.0
 40
1.0
 40
1.0
 10
-46.34190709074357
 20
18.30669700167498
 30
0.0
 10
-48.07849817975454
 20
16.8610394388196
 30
0.0
 10
-47.72083936186618
 20
19.97656980151939
 30
0.0
 10
-51.20138574209798
 20
18.64184487244269
 30
0.0
 10
-52.19542431111523
 20
22.22066918363404
 30
0.0
 10
-53.70809220323245
 20
18.30819807615469
 30
0.0
  0
SPLINE
  5
103
330
1F
100
AcDbEntity
  8
0
  6
Continuous
 62
     7
370
    25
100
AcDbSpline
210
0.0
220
0.0
230
1.0
 70
     8
 71
     3
 72
     8
 73
     4
 74
     0
 42
0.00000001
 43
0.00000001
 40
0.0
 40
0.0
 40
0.0
 40
0.0
 40
0.1900014791027309
 40
0.1900014791027309
 40
0.1900014791027309
 40
0.1900014791027309
 10
-43.82455466738084
 20
19.39687410898877
 30
0.0
 10
-44.92879545984716
 20
19.84285338217064
 30
0.0
 10
-45.7707100769825
 20
19.14300489040778
 30
0.0
 10
-46.34190709071679
 20
18.30669700171417
 30
0.0
  0
SPLINE
  5
104
330
1F
100
AcDbEntity
  8
0
  6
Continuous
 62
     7
370
    25
100
AcDbSpline
210
0.0
220
0.0
230
1.0
 70
     8
 71
     3
 72
     9
 73
     5
 74
     0
 42
0.00000001
 43
0.00000001
 40
0.5574742355127913
 40
0.5574742355127913
 40
0.5574742355127913
 40
0.5574742355127913
 40
0.6117209669843765
 40
0.8618329954160431
 40
0.8618329954160431
 40
0.8618329954160431
 40
0.8618329954160431
 10
-43.82455466738065
 20
19.39687410899639
 30
0.0
 10
-43.82045746366245
 20
19.55788901798125
 30
0.0
 10
-43.91844023451076
 20
20.37729228205683
 30
0.0
 10
-45.49769736780285
 20
20.42414998231028
 30
0.0
 10
-45.84460712601037
 20
21.00000000258066
 30
0.0
  0
SPLINE
  5
10A
330
1F
100
AcDbEntity
  8
0
  6
Continuous
 62
     7
370
    25
100
AcDbSpline
210
0.0
220
0.0
230
1.0
 70
     8
 71
     3
 72
     9
 73
     5
 74
     0
 42
0.00000001
 43
0.00000001
 40
0.0
 40
0.0
 40
0.0
 40
0.0
 40
0.3882516353706649
 40
0.3923308060044734
 40
0.3923308060044734
 40
0.3923308060044734
 40
0.3923308060044734
 10
-7.839868900878039
 20
17.09082949718412
 30
0.0
 10
-11.74342797153959
 20
18.10906265813645
 30
0.0
 10
-8.839681400858145
 20
18.95387119223541
 30
0.0
 10
-8.740836060918571
 20
20.58298979114936
 30
0.0
 10
-8.74010547448551
 20
20.59999999999999
 30
0.0
  0
SPLINE
  5
10B
330
1F
100
AcDbEntity
  8
0
  6
Continuous
 62
     7
370
    25
100
AcDbSpline
210
0.0
220
0.0
230
1.0
 70
     8
 71
     3
 72
     9
 73
     5
 74
     0
 42
0.00000001
 43
0.00000001
 40
0.0
 40
0.0
 40
0.0
 40
0.0
 40
0.2091464783597669
 40
0.3186492401383208
 40
0.3186492401383208
 40
0.3186492401383208
 40
0.3186492401383208
 10
-2.862636473608543
 20
17.09082949718412
 30
0.0
 10
-3.663749543905571
 20
18.20915536331536
 30
0.0
 10
-5.639329647467529
 20
18.92723588404417
 30
0.0
 10
-7.633131532819497
 20
17.68364489752724
 30
0.0
 10
-7.839868900878041
 20
17.09082949718412
 30
0.0
  0
SPLINE
  5
10C
330
1F
100
AcDbEntity
  8
0
  6
Continuous
 62
     7
370
    25
100
AcDbSpline
210
0.0
220
0.0
230
1.0
 70
     8
 71
     3
 72
     9
 73
     5
 74
     0
 42
0.00000001
 43
0.00000001
 40
0.5550482256361273
 40
0.5550482256361273
 40
0.5550482256361273
 40
0.5550482256361273
 40
0.6545558942538339
 40
0.8519652622311553
 40
0.8519652622311553
 40
0.8519652622311553
 40
0.8519652622311553
 10
-2.862636473607147
 20
17.09082949718652
 30
0.0
 10
-2.6013558225656
 20
17.54000205281851
 30
0.0
 10
-1.128723747611348
 20
18.61239522630196
 30
0.0
 10
-3.384906480863321
 20
20.1112557994991
 30
0.0
 10
-3.542823092946457
 20
20.59999998054822
 30
0.0
  0
SPLINE
  5
10E
330
1F
100
AcDbEntity
  8
0
  6
Continuous
 62
     7
370
    25
100
AcDbSpline
210
0.0
220
0.0
230
1.0
 70
     8
 71
     3
 72
     8
 73
     4
 74
     0
 42
0.00000001
 43
0.00000001
 40
0.9947582087180425
 40
0.9947582087180425
 40
0.9947582087180425
 40
0.9947582087180425
 40
1.0
 40
1.0
 40
1.0
 40
1.0
 10
-0.6470809188133598
 20
20.59999998122498
 30
0.0
 10
-0.5581726547862416
 20
20.58379783405723
 30
0.0
 10
-0.4667930106625033
 20
20.56688255078717
 30
0.0
 10
-0.3728860015904869
 20
20.54924109556879
 30
0.0
  0
SPLINE
  5
10F
330
1F
100
AcDbEntity
  8
0
  6
Continuous
 62
     7
370
    25
100
AcDbSpline
210
0.0
220
0.0
230
1.0
 70
     8
 71
     3
 72
     8
 73
     4
 74
     0
 42
0.00000001
 43
0.00000001
 40
0.8364507722489138
 40
0.8364507722489138
 40
0.8364507722489138
 40
0.8364507722489138
 40
0.8394870304850549
 40
0.8394870304850549
 40
0.8394870304850549
 40
0.8394870304850549
 10
-0.3728860015897598
 20
20.54924109556611
 30
0.0
 10
-0.3774430253454955
 20
20.56603036580319
 30
0.0
 10
-0.3819165707811867
 20
20.58295312132789
 30
0.0
 10
-0.3863141735883551
 20
20.59999999992131
 30
0.0
  0
SPLINE
  5
115
330
1F
100
AcDbEntity
  8
0
  6
Continuous
 62
     7
370
    25
100
AcDbSpline
210
0.0
220
0.0
230
1.0
 70
     8
 71
     3
 72
     8
 73
     4
 74
     0
 42
0.00000001
 43
0.00000001
 40
0.0
 40
0.0
 40
0.0
 40
0.0
 40
0.5917555656107928
 40
0.5917555656107928
 40
0.5917555656107928
 40
0.5917555656107928
 10
43.54471888053608
 20
17.09082949718412
 30
0.0
 10
44.06499210157592
 20
19.88855795860778
 30
0.0
 10
39.98305113356398
 20
19.19301719586303
 30
0.0
 10
39.30006155715452
 20
20.59999999999222
 30
0.0
  0
SPLINE
  5
116
330
1F
100
AcDbEntity
  8
0
  6
Continuous
 62
     7
370
    25
100
AcDbSpline
210
0.0
220
0.0
230
1.0
 70
     8
 71
     3
 72
     8
 73
     4
 74
     0
 42
0.00000001
 43
0.00000001
 40
0.0
 40
0.0
 40
0.0
 40
0.0
 40
0.2897593613660064
 40
0.2897593613660064
 40
0.2897593613660064
 40
0.2897593613660064
 10
48.64309523639607
 20
15.11403358620372
 30
0.0
 10
48.05900644551665
 20
16.38638330747126
 30
0.0
 10
45.08289624678076
 20
18.01900714375164
 30
0.0
 10
43.54471888053572
 20
17.0908294971839
 30
0.0
  0
SPLINE
  5
117
330
1F
100
AcDbEntity
  8
0
  6
Continuous
 62
     7
370
    25
100
AcDbSpline
210
0.0
220
0.0
230
1.0
 70
     8
 71
     3
 72
    11
 73
     7
 74
     0
 42
0.00000001
 43
0.00000001
 40
0.0
 40
0.0
 40
0.0
 40
0.0
 40
0.1562003954734638
 40
0.233096098432181
 40
0.3508243954351858
 40
0.4524160402635695
 40
0.4524160402635695
 40
0.4524160402635695
 40
0.4524160402635695
 10
54.53048258189587
 20
20.64279218372666
 30
0.0
 10
55.29648969120468
 20
19.51721660341584
 30
0.0
 10
50.53747493150799
 20
21.15199503255548
 30
0.0
 10
47.18345973445599
 20
19.21956595798927
 30
0.0
 10
52.06532616076404
 20
17.12376804758884
 30
0.0
 10
49.31419225194876
 20
15.85394393047697
 30
0.0
 10
48.64309523639608
 20
15.11403358620372
 30
0.0
  0
SPLINE
  5
118
330
1F
100
AcDbEntity
  8
0
  6
Continuous
 62
     7
370
    25
100
AcDbSpline
210
0.0
220
0.0
230
1.0
 70
     8
 71
     3
 72
     8
 73
     4
 74
     0
 42
0.00000001
 43
0.00000001
 40
0.8192138654710657
 40
0.8192138654710657
 40
0.8192138654710657
 40
0.8192138654710657
 40
0.8418726378451025
 40
0.8418726378451025
 40
0.8418726378451025
 40
0.8418726378451025
 10
54.53048258189587
 20
20.64279218372666
 30
0.0
 10
54.4230103985745
 20
20.76035378358807
 30
0.0
 10
54.31489378949227
 20
20.87925894944494
 30
0.0
 10
54.20914807001353
 20
20.99999999653868
 30
0.0
  0
SPLINE
  5
120
330
1F
100
AcDbEntity
  8
0
  6
Continuous
 62
     7
370
    25
100
AcDbSpline
210
0.0
220
0.0
230
1.0
 70
     8
 71
     3
 72
     9
 73
     5
 74
     0
 42
0.00000001
 43
0.00000001
 40
0.4576729536600409
 40
0.4576729536600409
 40
0.4576729536600409
 40
0.4576729536600409
 40
0.5128760736746277
 40
1.0
 40
1.0
 40
1.0
 40
1.0
 10
87.08162356868475
 20
20.60000000000989
 30
0.0
 10
87.08519416741045
 20
20.39987320470066
 30
0.0
 10
87.22493094023231
 20
18.44075622755337
 30
0.0
 10
89.11367050119175
 20
16.75252312383203
 30
0.0
 10
90.96521059229357
 20
17.09082949718412
 30
0.0
  0
SPLINE
  5
121
330
1F
100
AcDbEntity
  8
0
  6
Continuous
 62
     7
370
    25
100
AcDbSpline
210
0.0
220
0.0
230
1.0
 70
     8
 71
     3
 72
    10
 73
     6
 74
     0
 42
0.00000001
 43
0.00000001
 40
0.0
 40
0.0
 40
0.0
 40
0.0
 40
0.3902656230003397
 40
0.6114038082796408
 40
1.0
 40
1.0
 40
1.0
 40
1.0
 10
97.43257883411627
 20
15.08282994742114
 30
0.0
 10
96.5536409163077
 20
14.69109839246303
 30
0.0
 10
95.67410356472766
 20
18.33508198488626
 30
0.0
 10
92.7758678297952
 20
15.25392307714197
 30
0.0
 10
92.08405167134123
 20
19.06951406754069
 30
0.0
 10
90.96521059229357
 20
17.09082949718412
 30
0.0
  0
SPLINE
  5
122
330
1F
100
AcDbEntity
  8
0
  6
Continuous
 62
     7
370
    25
100
AcDbSpline
210
0.0
220
0.0
230
1.0
 70
     8
 71
     3
 72
     9
 73
     5
 74
     0
 42
0.00000001
 43
0.00000001
 40
0.9614575241716782
 40
0.9614575241716782
 40
0.9614575241716782
 40
0.9614575241716782
 40
0.9691289817229142
 40
0.9767468489086142
 40
0.9767468489086142
 40
0.9767468489086142
 40
0.9767468489086142
 10
97.40206765958615
 20
21.00000000007571
 30
0.0
 10
97.5318406883646
 20
20.04487832883746
 30
0.0
 10
97.28634126013473
 20
17.56809909411296
 30
0.0
 10
97.19700259209549
 20
15.93327703992895
 30
0.0
 10
97.43257883411628
 20
15.08282994742106
 30
0.0
  0
CIRCLE
  5
133
330
1F
100
AcDbEntity
  8
0
  6
Continuous
 62
     7
370
    25
100
AcDbCircle
 10
78.2909410797
 20
3.2383331388
 30
0.0
 40
7.75
  0
CIRCLE
  5
134
330
1F
100
AcDbEntity
  8
0
  6
Continuous
 62
     7
370
    25
100
AcDbCircle
 10
-71.0
 20
3.2383331388
 30
0.0
 40
12.15000000000001
  0
SPLINE
  5
135
330
1F
100
AcDbEntity
  8
0
  6
Continuous
 62
     7
370
    25
100
AcDbSpline
210
0.0
220
0.0
230
1.0
 70
    11
 71
     3
 72
    17
 73
    13
 74
     0
 42
0.00000001
 43
0.00000001
 40
0.0
 40
0.0
 40
0.0
 40
0.0
 40
0.0905448132856255
 40
0.2281350681459162
 40
0.29270049942729
 40
0.4346373965966305
 40
0.4928413206186779
 40
0.6531016593696954
 40
0.7402670986078821
 40
0.8406375344765643
 40
0.9260433441810118
 40
1.0
 40
1.0
 40
1.0
 40
1.0
 10
88.40019972959823
 20
-3.150751586042473
 30
0.0
 10
87.49744635406131
 20
-3.134139587518247
 30
0.0
 10
87.82177212547296
 20
-8.474194726531556
 30
0.0
 10
79.0129477158555
 20
-7.091001474035064
 30
0.0
 10
85.16867944657766
 20
-10.2877535996356
 30
0.0
 10
88.22099639621446
 20
-8.124287559777482
 30
0.0
 10
93.1771519803734
 20
-11.53918290087243
 30
0.0
 10
93.84737843978176
 20
-5.294744091587221
 30
0.0
 10
97.44373237221302
 20
-0.490312410093563
 30
0.0
 10
90.36564398253641
 20
0.43855400845363
 30
0.0
 10
92.20928954989594
 20
-6.264305744865937
 30
0.0
 10
89.13756522035698
 20
-3.164320202650542
 30
0.0
 10
88.40019972959823
 20
-3.150751586042473
 30
0.0
  0
SPLINE
  5
136
330
1F
100
AcDbEntity
  8
0
  6
Continuous
 62
     7
370
    25
100
AcDbSpline
210
0.0
220
0.0
230
1.0
 70
    11
 71
     3
 72
    20
 73
    16
 74
     0
 42
0.00000001
 43
0.00000001
 40
0.0
 40
0.0
 40
0.0
 40
0.0
 40
0.0971884073553159
 40
0.182937080818383
 40
0.2425702823106011
 40
0.3280223624700689
 40
0.4246642047080512
 40
0.4587777131635676
 40
0.5452957510620053
 40
0.6261391444113584
 40
0.6992659918568419
 40
0.7735892627368626
 40
0.8479818157267853
 40
0.932498223821383
 40
1.0
 40
1.0
 40
1.0
 40
1.0
 10
74.15432919738409
 20
20.2795886706455
 30
0.0
 10
72.85979306297193
 20
20.7311529963511
 30
0.0
 10
69.19889280558819
 20
18.23881698864751
 30
0.0
 10
74.27825289145672
 20
14.96615580656415
 30
0.0
 10
68.86576824998771
 20
14.15281840011003
 30
0.0
 10
74.32109879832385
 20
10.13508742331171
 30
0.0
 10
74.43019548230001
 20
14.76518862803848
 30
0.0
 10
77.57031402542121
 20
15.53485507200671
 30
0.0
 10
79.10446504098617
 20
11.63702722840668
 30
0.0
 10
82.98967048119108
 20
16.25216983399109
 30
0.0
 10
76.9674948039169
 20
17.58861217964765
 30
0.0
 10
83.49412728912738
 20
18.47728689338046
 30
0.0
 10
78.46811540287909
 20
21.50533967789617
 30
0.0
 10
76.37174605730472
 20
17.33059643307203
 30
0.0
 10
75.05344351336163
 20
19.96595667611565
 30
0.0
 10
74.15432919738409
 20
20.2795886706455
 30
0.0
  0
SPLINE
  5
137
330
1F
100
AcDbEntity
  8
0
  6
Continuous
 62
     7
370
    25
100
AcDbSpline
210
0.0
220
0.0
230
1.0
 70
    11
 71
     3
 72
    19
 73
    15
 74
     0
 42
0.00000001
 43
0.00000001
 40
0.0
 40
0.0
 40
0.0
 40
0.0
 40
0.0439189149658393
 40
0.158389431739153
 40
0.2150424423997158
 40
0.3358318174019635
 40
0.3937729092309429
 40
0.4515635211185793
 40
0.573625228723122
 40
0.6668642769939049
 40
0.7324416706926453
 40
0.8236704911192919
 40
0.939222076804379
 40
0.9999999999999999
 40
0.9999999999999999
 40
0.9999999999999999
 40
0.9999999999999999
 10
58.30422301199789
 20
-3.150751586042473
 30
0.0
 10
57.91960057636062
 20
-3.705382091068682
 30
0.0
 10
55.81690012253979
 20
-5.09481391223486
 30
0.0
 10
61.47305089134802
 20
-7.198490107892599
 30
0.0
 10
57.40347300650864
 20
-11.17632318774791
 30
0.0
 10
64.44365910608704
 20
-11.86007106403963
 30
0.0
 10
64.2044726542084
 20
-6.94287851729668
 30
0.0
 10
68.41666682243007
 20
-11.16978099847978
 30
0.0
 10
64.45498728222375
 20
-4.098276299054633
 30
0.0
 10
68.94439232231889
 20
-1.437176225127646
 30
0.0
 10
64.08574193982099
 20
1.299970602204756
 30
0.0
 10
64.29174160906655
 20
-5.840100495513083
 30
0.0
 10
59.27825006307938
 20
0.7845535150311621
 30
0.0
 10
58.83648918639353
 20
-2.383216908497483
 30
0.0
 10
58.30422301199789
 20
-3.150751586042473
 30
0.0
  0
SPLINE
  5
138
330
1F
100
AcDbEntity
  8
0
  6
Continuous
 62
     7
370
    25
100
AcDbSpline
210
0.0
220
0.0
230
1.0
 70
    11
 71
     3
 72
    21
 73
    17
 74
     0
 42
0.00000001
 43
0.00000001
 40
0.0
 40
0.0
 40
0.0
 40
0.0
 40
0.0655725179708336
 40
0.1305568564923464
 40
0.175192574996214
 40
0.2292474986250008
 40
0.3302798314120102
 40
0.4278817386307402
 40
0.4863036034193985
 40
0.5538252589970843
 40
0.6346945138058782
 40
0.731572503666468
 40
0.7896524811228011
 40
0.8787065237604459
 40
0.9358621543121756
 40
1.0
 40
1.0
 40
1.0
 40
1.0
 10
27.47680045563428
 20
-6.361980002391481
 30
0.0
 10
26.78216264850728
 20
-7.616755128349573
 30
0.0
 10
26.34839576686776
 20
-11.35722718634177
 30
0.0
 10
30.66850956739736
 20
-9.643798276431532
 30
0.0
 10
33.46278873117058
 20
-7.072706443774418
 30
0.0
 10
35.41469252575584
 20
-12.22380891742416
 30
0.0
 10
44.79664142657265
 20
-6.619376576728934
 30
0.0
 10
34.09522790216136
 20
-8.497249232880668
 30
0.0
 10
36.10747974274479
 20
-1.264415421912487
 30
0.0
 10
41.47591402631082
 20
-6.721430096162416
 30
0.0
 10
39.70450712325444
 20
1.8228995843595
 30
0.0
 10
32.63525967218546
 20
1.92884207147548
 30
0.0
 10
33.24556298144329
 20
-5.802662514266478
 30
0.0
 10
26.7496408084588
 20
2.609575533017654
 30
0.0
 10
30.30378214626814
 20
-3.942415988828985
 30
0.0
 10
28.15624016393184
 20
-5.134658315012979
 30
0.0
 10
27.47680045563428
 20
-6.361980002391481
 30
0.0
  0
SPLINE
  5
139
330
1F
100
AcDbEntity
  8
0
  6
Continuous
 62
     7
370
    25
100
AcDbSpline
210
0.0
220
0.0
230
1.0
 70
    11
 71
     3
 72
    29
 73
    25
 74
     0
 42
0.00000001
 43
0.00000001
 40
0.0
 40
0.0
 40
0.0
 40
0.0
 40
0.0590045376573386
 40
0.09836781162804
 40
0.1336102645249753
 40
0.1846802379633889
 40
0.2270570988151986
 40
0.2770419466459595
 40
0.3170850991488431
 40
0.3500232534464824
 40
0.3926481446727463
 40
0.4648356616168897
 40
0.534228130145916
 40
0.5912698993472654
 40
0.6433008263293057
 40
0.7301201785291216
 40
0.7613399562247631
 40
0.7905270929755774
 40
0.8291503210342925
 40
0.8725498378879905
 40
0.904301042636305
 40
0.942713976853728
 40
0.9629707795692732
 40
1.0
 40
1.0
 40
1.0
 40
1.0
 10
45.38153157302104
 20
-1.094505971634518
 30
0.0
 10
44.05545044104834
 20
-1.477155890652651
 30
0.0
 10
44.72893478083636
 20
-4.494383216760123
 30
0.0
 10
40.4500804910294
 20
-6.29504616003556
 30
0.0
 10
44.76110105568015
 20
-8.057744321331722
 30
0.0
 10
40.78594147586259
 20
-11.8543712017878
 30
0.0
 10
47.00808322650243
 20
-12.17995596573935
 30
0.0
 10
43.92279958494961
 20
-6.951487176425792
 30
0.0
 10
48.54731997054072
 20
-8.740022230221648
 30
0.0
 10
47.30023353126083
 20
-12.38438432192817
 30
0.0
 10
53.27451305957803
 20
-9.547962463672892
 30
0.0
 10
44.1787522041707
 20
-5.929371549555036
 30
0.0
 10
54.28062593013211
 20
-4.658400401781313
 30
0.0
 10
51.13641825856271
 20
-11.86955671250472
 30
0.0
 10
57.77102006264639
 20
-6.890415746565033
 30
0.0
 10
52.51983506999384
 20
-5.043090998146315
 30
0.0
 10
51.64475718260783
 20
-0.4733820812076167
 30
0.0
 10
55.6221529322872
 20
-1.599011403720155
 30
0.0
 10
51.73129961814413
 20
0.6534950653555999
 30
0.0
 10
48.40248387736511
 20
-0.5249798418079559
 30
0.0
 10
50.97107841600204
 20
-3.735158269031633
 30
0.0
 10
46.23819109894281
 20
-3.798484416202227
 30
0.0
 10
48.55529839234423
 20
-1.352432856682458
 30
0.0
 10
46.21373452713974
 20
-0.8543680303560331
 30
0.0
 10
45.38153157302104
 20
-1.094505971634518
 30
0.0
  0
SPLINE
  5
13A
330
1F
100
AcDbEntity
  8
0
  6
Continuous
 62
     7
370
    25
100
AcDbSpline
210
0.0
220
0.0
230
1.0
 70
    11
 71
     3
 72
    22
 73
    18
 74
     0
 42
0.00000001
 43
0.00000001
 40
0.0
 40
0.0
 40
0.0
 40
0.0
 40
0.0586761461969019
 40
0.1265238316110054
 40
0.1979856574092355
 40
0.2233569926047742
 40
0.2890549214079061
 40
0.3277810718051592
 40
0.3775160996225356
 40
0.4634063208885323
 40
0.5737337087470833
 40
0.6473100827244586
 40
0.7102420161873995
 40
0.7345256155345653
 40
0.8498141378111106
 40
0.8834140612402539
 40
1.0
 40
1.0
 40
1.0
 40
1.0
 10
11.97369322293795
 20
-1.901940535240081
 30
0.0
 10
10.77107726625137
 20
-2.150289910281856
 30
0.0
 10
8.948266674200303
 20
-4.220774315011233
 30
0.0
 10
11.85488289391247
 20
-10.49859632501618
 30
0.0
 10
11.88183403103863
 20
-4.130528190043666
 30
0.0
 10
16.11008147330998
 20
-4.440679718048131
 30
0.0
 10
12.7428942726313
 20
-6.97448115673252
 30
0.0
 10
13.09043787351656
 20
-11.51446327561273
 30
0.0
 10
16.03157151036216
 20
-5.523285878403468
 30
0.0
 10
17.95800861558659
 20
-14.50553206931487
 30
0.0
 10
27.89318081399147
 20
-8.12412532624874
 30
0.0
 10
18.11887632183445
 20
-5.282643524974715
 30
0.0
 10
24.22770132195823
 20
-5.411378776160506
 30
0.0
 10
25.04980675687507
 20
-1.318707900443876
 30
0.0
 10
18.03226193271975
 20
2.476038997427883
 30
0.0
 10
19.25841116763716
 20
-4.393081364202762
 30
0.0
 10
14.36321808722017
 20
-1.408485410691182
 30
0.0
 10
11.97369322293795
 20
-1.901940535240081
 30
0.0
  0
SPLINE
  5
13B
330
1F
100
AcDbEntity
  8
0
  6
Continuous
 62
     7
370
    25
100
AcDbSpline
210
0.0
220
0.0
230
1.0
 70
    11
 71
     3
 72
    20
 73
    16
 74
     0
 42
0.00000001
 43
0.00000001
 40
0.0
 40
0.0
 40
0.0
 40
0.0
 40
0.0497649970240088
 40
0.1403047848312051
 40
0.1881295205308543
 40
0.2603596886838394
 40
0.3483675570285269
 40
0.4251591389085213
 40
0.4975173100938366
 40
0.5556912890998132
 40
0.6741385425728078
 40
0.7295965884515813
 40
0.865003145143516
 40
0.9130398573853012
 40
0.9999999999999999
 40
0.9999999999999999
 40
0.9999999999999999
 40
0.9999999999999999
 10
-8.023965533023869
 20
-1.901940535240081
 30
0.0
 10
-8.471418302171166
 20
-2.759420793976284
 30
0.0
 10
-8.50047687712308
 20
-5.467591111077912
 30
0.0
 10
-3.060949718971861
 20
-7.048973050298172
 30
0.0
 10
-7.941662805762374
 20
-11.13122239753699
 30
0.0
 10
-1.209122308409612
 20
-9.16075398477472
 30
0.0
 10
0.3164094862215888
 20
-12.72710428154298
 30
0.0
 10
7.719755089315482
 20
-12.29245785410686
 30
0.0
 10
1.686194044207546
 20
-7.017104177151397
 30
0.0
 10
9.224044988518695
 20
-9.386191948106895
 30
0.0
 10
7.524015301332046
 20
-2.45920229861951
 30
0.0
 10
3.624688812606577
 20
1.701251028178507
 30
0.0
 10
-1.790562583635773
 20
-4.364607435918887
 30
0.0
 10
-3.956124644927712
 20
1.433860513942612
 30
0.0
 10
-7.24207948971478
 20
-0.4035659738387282
 30
0.0
 10
-8.023965533023869
 20
-1.901940535240081
 30
0.0
  0
SPLINE
  5
13D
330
1F
100
AcDbEntity
  8
0
  6
Continuous
 62
     7
370
    25
100
AcDbSpline
210
0.0
220
0.0
230
1.0
 70
     8
 71
     3
 72
    23
 73
    19
 74
     0
 42
0.00000001
 43
0.00000001
 40
0.0
 40
0.0
 40
0.0
 40
0.0
 40
0.0774419575120384
 40
0.1324187022082154
 40
0.1868452285137524
 40
0.255061428677066
 40
0.3331701545414421
 40
0.4089851063527042
 40
0.5151927882753641
 40
0.5455159981681827
 40
0.6050687109391566
 40
0.6426766604681116
 40
0.701103955434291
 40
0.7614003131348505
 40
0.81846544176462
 40
0.8634085040023953
 40
0.9339287066110206
 40
1.0
 40
1.0
 40
1.0
 40
1.0
 10
-24.02438648007177
 20
-1.901940535240081
 30
0.0
 10
-22.35722471584216
 20
-1.390838807361889
 30
0.0
 10
-19.50652976593563
 20
-0.5169013492147875
 30
0.0
 10
-19.38361819609709
 20
-5.609440661927648
 30
0.0
 10
-14.88640740384961
 20
-3.14547344854579
 30
0.0
 10
-14.92023003070262
 20
-9.93093551933303
 30
0.0
 10
-22.46215212402243
 20
-6.695566078607593
 30
0.0
 10
-15.1759960732003
 20
-12.07070622713553
 30
0.0
 10
-13.63835436125359
 20
-7.486073295241511
 30
0.0
 10
-8.47510694398204
 20
-8.499439616792143
 30
0.0
 10
-13.57356333145054
 20
-5.54558319640218
 30
0.0
 10
-8.936715985130814
 20
-4.546033055173186
 30
0.0
 10
-12.28598268560294
 20
-1.508284788165944
 30
0.0
 10
-14.22865495382929
 20
-0.277071109053618
 30
0.0
 10
-17.09437886934743
 20
2.192788857074817
 30
0.0
 10
-19.3165895681948
 20
-0.9535825371848883
 30
0.0
 10
-22.9533245145944
 20
0.7908877142844914
 30
0.0
 10
-24.80266503474919
 20
-1.024035687196733
 30
0.0
 10
-25.69721794370494
 20
-1.901940535240081
 30
0.0
  0
SPLINE
  5
13E
330
1F
100
AcDbEntity
  8
0
  6
Continuous
 62
     7
370
    25
100
AcDbSpline
210
0.0
220
0.0
230
1.0
 70
    11
 71
     3
 72
    20
 73
    16
 74
     0
 42
0.00000001
 43
0.00000001
 40
0.0
 40
0.0
 40
0.0
 40
0.0
 40
0.0598774966342342
 40
0.2406212728494924
 40
0.2898282903367503
 40
0.3606510081282791
 40
0.4354816274921709
 40
0.5476074445155452
 40
0.6261227078138799
 40
0.6581752381287723
 40
0.7235652840368436
 40
0.7893122452865377
 40
0.8466017938196193
 40
0.9280479192798105
 40
0.9999999999999999
 40
0.9999999999999999
 40
0.9999999999999999
 40
0.9999999999999999
 10
-40.31912639698731
 20
-8.058457199217273
 30
0.0
 10
-40.22503016825834
 20
-8.860858864454277
 30
0.0
 10
-36.12331145875258
 20
-11.5433878740974
 30
0.0
 10
-29.62176785984798
 20
-13.07220365695659
 30
0.0
 10
-27.78760838095899
 20
-6.915062942020489
 30
0.0
 10
-23.46301621825183
 20
-9.696460917756243
 30
0.0
 10
-21.278380174586
 20
-1.54284182677847
 30
0.0
 10
-29.76707978523797
 20
-8.796205573310596
 30
0.0
 10
-28.43365009194287
 20
-1.1499184086114
 30
0.0
 10
-31.98765282668375
 20
-2.516399691806174
 30
0.0
 10
-33.99855883447081
 20
1.719676490238073
 30
0.0
 10
-35.91347840964553
 20
-3.273417787420848
 30
0.0
 10
-31.89860983556681
 20
-6.673656248526127
 30
0.0
 10
-37.82074725171188
 20
-4.62341637426331
 30
0.0
 10
-40.43219758108057
 20
-7.094247393656722
 30
0.0
 10
-40.31912639698731
 20
-8.058457199217273
 30
0.0
  0
SPLINE
  5
13F
330
1F
100
AcDbEntity
  8
0
  6
Continuous
 62
     7
370
    25
100
AcDbSpline
210
0.0
220
0.0
230
1.0
 70
    11
 71
     3
 72
    15
 73
    11
 74
     0
 42
0.00000001
 43
0.00000001
 40
0.0
 40
0.0
 40
0.0
 40
0.0
 40
0.1594823701209014
 40
0.3111099199923016
 40
0.4151884449195298
 40
0.5052793321607263
 40
0.6012037520602508
 40
0.7512688975572553
 40
0.85039633568907
 40
0.9999999999999999
 40
0.9999999999999999
 40
0.9999999999999999
 40
0.9999999999999999
 10
-54.94838731177509
 20
-3.150751586042473
 30
0.0
 10
-56.21756497466909
 20
-5.638126865510084
 30
0.0
 10
-57.47103671072613
 20
-11.20624855492551
 30
0.0
 10
-46.84512685584751
 20
-12.34784590562042
 30
0.0
 10
-48.90449007976476
 20
-4.183029045889981
 30
0.0
 10
-43.46220248543185
 20
-6.670514752211743
 30
0.0
 10
-37.97545430234006
 20
-2.06459704418421
 30
0.0
 10
-45.80952051367434
 20
-0.5101960131109464
 30
0.0
 10
-50.86164897553395
 20
2.525007513692317
 30
0.0
 10
-53.75782544034953
 20
-0.8174500678704124
 30
0.0
 10
-54.94838731177509
 20
-3.150751586042473
 30
0.0
  0
SPLINE
  5
140
330
1F
100
AcDbEntity
  8
0
  6
Continuous
 62
     7
370
    25
100
AcDbSpline
210
0.0
220
0.0
230
1.0
 70
    11
 71
     3
 72
    17
 73
    13
 74
     0
 42
0.00000001
 43
0.00000001
 40
0.0
 40
0.0
 40
0.0
 40
0.0
 40
0.0880280264300815
 40
0.1835078268018331
 40
0.2962721626420001
 40
0.4207625914883585
 40
0.5208241404930088
 40
0.5926257909821754
 40
0.6975936923780199
 40
0.7818818814115617
 40
0.8809964543892043
 40
0.9999999999999999
 40
0.9999999999999999
 40
0.9999999999999999
 40
0.9999999999999999
 10
-94.16653659655394
 20
-3.150751586042473
 30
0.0
 10
-94.38157207283874
 20
-4.197635676211488
 30
0.0
 10
-98.38194977214269
 20
-6.572769629499063
 30
0.0
 10
-92.67616850896127
 20
-9.60516091240862
 30
0.0
 10
-88.28601437635028
 20
-11.40059626611636
 30
0.0
 10
-82.81930973301705
 20
-5.486320955766778
 30
0.0
 10
-88.60637853462849
 20
-2.825275618192468
 30
0.0
 10
-85.59692237322628
 20
2.842225342160342
 30
0.0
 10
-92.36342273553971
 20
0.5431904446234516
 30
0.0
 10
-93.74283548091756
 20
7.118659606558642
 30
0.0
 10
-99.05072080916725
 20
0.5487968554863613
 30
0.0
 10
-93.87583390619744
 20
-1.735487338665555
 30
0.0
 10
-94.16653659655394
 20
-3.150751586042473
 30
0.0
  0
LINE
  5
15D
330
1F
100
AcDbEntity
  8
0
  6
Continuous
 62
     7
370
    25
100
AcDbLine
 10
-35.5866096768
 20
21.0
 30
0.0
 11
-43.6317083911
 21
21.0
 31
0.0
  0
LINE
  5
15E
330
1F
100
AcDbEntity
  8
0
  6
Continuous
 62
     7
370
    25
100
AcDbLine
 10
-15.2087443225
 20
21.0
 30
0.0
 11
-23.6285211378
 21
20.9999999993
 31
0.0
  0
LINE
  5
15F
330
1F
100
AcDbEntity
  8
0
  6
Continuous
 62
     7
370
    25
100
AcDbLine
 10
68.4357725367
 20
21.0
 30
0.0
 11
60.5474296462
 21
21.0000000034
 31
0.0
  0
LINE
  5
160
330
1F
100
AcDbEntity
  8
0
  6
Continuous
 62
     7
370
    25
100
AcDbLine
 10
9.2271480267
 20
21.0
 30
0.0
 11
1.4612412608
 21
21.0000000052
 31
0.0
  0
LINE
  5
161
330
1F
100
AcDbEntity
  8
0
  6
Continuous
 62
     7
370
    25
100
AcDbLine
 10
37.0463496815
 20
21.0
 30
0.0
 11
24.3907843808
 21
21.0000000003
 31
0.0
  0
LINE
  5
162
330
1F
100
AcDbEntity
  8
0
  6
Continuous
 62
     7
370
    25
100
AcDbLine
 10
22.3381938798
 20
21.0
 30
0.0
 11
12.6010788582
 21
20.9999999998
 31
0.0
  0
LINE
  5
163
330
1F
100
AcDbEntity
  8
0
  6
Continuous
 62
     7
370
    25
100
AcDbLine
 10
-25.5141768943
 20
21.0
 30
0.0
 11
-34.895965898
 21
21.0000000006
 31
0.0
  0
LINE
  5
164
330
1F
100
AcDbEntity
  8
0
  6
Continuous
 62
     7
370
    25
100
AcDbLine
 10
-106.0
 20
3.4
 30
0.0
 11
-99.6
 21
3.4
 31
0.0
  0
LINE
  5
165
330
1F
100
AcDbEntity
  8
0
  6
Continuous
 62
     7
370
    25
100
AcDbLine
 10
-99.6
 20
3.4
 30
0.0
 11
-99.6
 21
6.6
 31
0.0
  0
LINE
  5
166
330
1F
100
AcDbEntity
  8
0
  6
Continuous
 62
     7
370
    25
100
AcDbLine
 10
-99.6
 20
6.6
 30
0.0
 11
-106.0
 21
6.6
 31
0.0
  0
LINE
  5
167
330
1F
100
AcDbEntity
  8
0
  6
Continuous
 62
     7
370
    25
100
AcDbLine
 10
-106.0
 20
8.9293918501
 30
0.0
 11
-106.0
 21
0.0
 31
0.0
  0
LINE
  5
168
330
1F
100
AcDbEntity
  8
0
  6
Continuous
 62
     7
370
    25
100
AcDbLine
 10
-106.0
 20
8.9293918501
 30
0.0
 11
-85.8621388167
 21
27.0
 31
0.0
  0
LINE
  5
169
330
1F
100
AcDbEntity
  8
0
  6
Continuous
 62
     7
370
    25
100
AcDbLine
 10
-58.8204783729
 20
27.0
 30
0.0
 11
-58.8204783729
 21
20.6
 31
0.0
  0
LINE
  5
16A
330
1F
100
AcDbEntity
  8
0
  6
Continuous
 62
     7
370
    25
100
AcDbLine
 10
-58.8204783729
 20
20.6
 30
0.0
 11
-55.9275256085
 21
20.6
 31
0.0
  0
LINE
  5
16B
330
1F
100
AcDbEntity
  8
0
  6
Continuous
 62
     7
370
    25
100
AcDbLine
 10
-59.2204783729
 20
21.0
 30
0.0
 11
-45.8446071303
 21
21.0
 31
0.0
  0
LINE
  5
16C
330
1F
100
AcDbEntity
  8
0
  6
Continuous
 62
     7
370
    25
100
AcDbLine
 10
-47.6204783729
 20
21.0
 30
0.0
 11
-47.6204783729
 21
27.0
 31
0.0
  0
LINE
  5
16D
330
1F
100
AcDbEntity
  8
0
  6
Continuous
 62
     7
370
    25
100
AcDbLine
 10
-10.5240514749
 20
27.0
 30
0.0
 11
-10.5240514749
 21
20.6
 31
0.0
  0
LINE
  5
16E
330
1F
100
AcDbEntity
  8
0
  6
Continuous
 62
     7
370
    25
100
AcDbLine
 10
-10.5240514749
 20
20.6
 30
0.0
 11
-8.7401054745
 21
20.6
 31
0.0
  0
LINE
  5
16F
330
1F
100
AcDbEntity
  8
0
  6
Continuous
 62
     7
370
    25
100
AcDbLine
 10
-3.5428230929
 20
20.5999999805
 30
0.0
 11
-0.6470809154
 21
20.6
 31
0.0
  0
LINE
  5
170
330
1F
100
AcDbEntity
  8
0
  6
Continuous
 62
     7
370
    25
100
AcDbLine
 10
-0.3863141733
 20
20.6
 30
0.0
 11
0.6759485251
 21
20.6
 31
0.0
  0
LINE
  5
171
330
1F
100
AcDbEntity
  8
0
  6
Continuous
 62
     7
370
    25
100
AcDbLine
 10
0.6759485251
 20
20.6
 30
0.0
 11
0.6759485251
 21
27.0
 31
0.0
  0
LINE
  5
172
330
1F
100
AcDbEntity
  8
0
  6
Continuous
 62
     7
370
    25
100
AcDbLine
 10
37.7723754231
 20
27.0
 30
0.0
 11
37.7723754231
 21
20.6
 31
0.0
  0
LINE
  5
173
330
1F
100
AcDbEntity
  8
0
  6
Continuous
 62
     7
370
    25
100
AcDbLine
 10
37.7723754231
 20
20.6
 30
0.0
 11
39.3000615572
 21
20.6
 31
0.0
  0
LINE
  5
174
330
1F
100
AcDbEntity
  8
0
  6
Continuous
 62
     7
370
    25
100
AcDbLine
 10
37.3723754231
 20
21.0
 30
0.0
 11
54.209148074
 21
21.0
 31
0.0
  0
LINE
  5
175
330
1F
100
AcDbEntity
  8
0
  6
Continuous
 62
     7
370
    25
100
AcDbLine
 10
48.9723754231
 20
21.0
 30
0.0
 11
48.9723754231
 21
27.0
 31
0.0
  0
LINE
  5
176
330
1F
100
AcDbEntity
  8
0
  6
Continuous
 62
     7
370
    25
100
AcDbLine
 10
-85.8621388167
 20
27.0
 30
0.0
 11
97.6688023211
 21
27.0
 31
0.0
  0
LINE
  5
177
330
1F
100
AcDbEntity
  8
0
  6
Continuous
 62
     7
370
    25
100
AcDbLine
 10
86.0688023211
 20
27.0
 30
0.0
 11
86.0688023211
 21
25.0
 31
0.0
  0
LINE
  5
178
330
1F
100
AcDbEntity
  8
0
  6
Continuous
 62
     7
370
    25
100
AcDbLine
 10
86.2444585668
 20
25.0
 30
0.0
 11
86.0688023211
 21
25.0
 31
0.0
  0
LINE
  5
179
330
1F
100
AcDbEntity
  8
0
  6
Continuous
 62
     7
370
    25
100
AcDbLine
 10
86.2444585668
 20
25.0
 30
0.0
 11
86.2444585668
 21
20.6
 31
0.0
  0
LINE
  5
17A
330
1F
100
AcDbEntity
  8
0
  6
Continuous
 62
     7
370
    25
100
AcDbLine
 10
86.2444585668
 20
20.6
 30
0.0
 11
87.0816235687
 21
20.6
 31
0.0
  0
LINE
  5
17B
330
1F
100
AcDbEntity
  8
0
  6
Continuous
 62
     7
370
    25
100
AcDbLine
 10
85.6688023211
 20
21.0
 30
0.0
 11
97.6688023211
 21
21.0
 31
0.0
  0
LINE
  5
17C
330
1F
100
AcDbEntity
  8
0
  6
Continuous
 62
     7
370
    25
100
AcDbLine
 10
97.2688023211
 20
21.0
 30
0.0
 11
97.2688023211
 21
23.8991152037
 31
0.0
  0
LINE
  5
17D
330
1F
100
AcDbEntity
  8
0
  6
Continuous
 62
     7
370
    25
100
AcDbLine
 10
104.6562257892
 20
17.6
 30
0.0
 11
97.2688023211
 21
23.8991152037
 31
0.0
  0
LINE
  5
17E
330
1F
100
AcDbEntity
  8
0
  6
Continuous
 62
     7
370
    25
100
AcDbLine
 10
99.6
 20
17.6
 30
0.0
 11
104.6562257892
 21
17.6
 31
0.0
  0
LINE
  5
17F
330
1F
100
AcDbEntity
  8
0
  6
Continuous
 62
     7
370
    25
100
AcDbLine
 10
99.6
 20
14.4
 30
0.0
 11
99.6
 21
17.6
 31
0.0
  0
LINE
  5
180
330
1F
100
AcDbEntity
  8
0
  6
Continuous
 62
     7
370
    25
100
AcDbLine
 10
106.0
 20
14.4
 30
0.0
 11
99.6
 21
14.4
 31
0.0
  0
LINE
  5
181
330
1F
100
AcDbEntity
  8
0
  6
Continuous
 62
     7
370
    25
100
AcDbLine
 10
99.6
 20
6.6
 30
0.0
 11
106.0
 21
6.6
 31
0.0
  0
LINE
  5
182
330
1F
100
AcDbEntity
  8
0
  6
Continuous
 62
     7
370
    25
100
AcDbLine
 10
99.6
 20
3.4
 30
0.0
 11
99.6
 21
6.6
 31
0.0
  0
LINE
  5
183
330
1F
100
AcDbEntity
  8
0
  6
Continuous
 62
     7
370
    25
100
AcDbLine
 10
99.6
 20
3.4
 30
0.0
 11
106.0
 21
3.4
 31
0.0
  0
LINE
  5
184
330
1F
100
AcDbEntity
  8
0
  6
Continuous
 62
     7
370
    25
100
AcDbLine
 10
106.0
 20
18.0
 30
0.0
 11
106.0
 21
0.0
 31
0.0
  0
LINE
  5
185
330
1F
100
AcDbEntity
  8
0
  6
Continuous
 62
     7
370
    25
100
AcDbLine
 10
99.6
 20
0.0
 30
0.0
 11
106.0
 21
0.0
 31
0.0
  0
LINE
  5
186
330
1F
100
AcDbEntity
  8
0
  6
Continuous
 62
     7
370
    25
100
AcDbLine
 10
99.6
 20
0.0
 30
0.0
 11
99.6
 21
-13.8866668612
 31
0.0
  0
LINE
  5
187
330
1F
100
AcDbEntity
  8
0
  6
Continuous
 62
     7
370
    25
100
AcDbLine
 10
-99.6
 20
-13.8866668612
 30
0.0
 11
99.6
 21
-13.8866668612
 31
0.0
  0
LINE
  5
188
330
1F
100
AcDbEntity
  8
0
  6
Continuous
 62
     7
370
    25
100
AcDbLine
 10
-99.6
 20
0.0
 30
0.0
 11
-99.6
 21
-13.8866668612
 31
0.0
  0
LINE
  5
189
330
1F
100
AcDbEntity
  8
0
  6
Continuous
 62
     7
370
    25
100
AcDbLine
 10
-106.0
 20
0.0
 30
0.0
 11
-99.6
 21
0.0
 31
0.0
  0
LINE
  5
18A
330
1F
100
AcDbEntity
  8
0
  6
Continuous
 62
     7
370
    25
100
AcDbLine
 10
-25.6972179437
 20
-1.9019405352
 30
0.0
 11
-24.0243864801
 21
-1.9019405352
 31
0.0
  0
LINE
  5
18B
330
1F
100
AcDbEntity
  8
0
  6
Continuous
 62
     7
370
    25
100
AcDbLine
 10
85.6688023211
 20
27.0
 30
0.0
 11
85.6688023211
 21
21.0
 31
0.0
  0
LINE
  5
18C
330
1F
100
AcDbEntity
  8
0
  6
Continuous
 62
     7
370
    25
100
AcDbLine
 10
97.6688023211
 20
21.0
 30
0.0
 11
97.6688023211
 21
27.0
 31
0.0
  0
LINE
  5
18D
330
1F
100
AcDbEntity
  8
0
  6
Continuous
 62
     7
370
    25
100
AcDbLine
 10
49.3723754231
 20
21.0
 30
0.0
 11
49.3723754231
 21
27.0
 31
0.0
  0
LINE
  5
18E
330
1F
100
AcDbEntity
  8
0
  6
Continuous
 62
     7
370
    25
100
AcDbLine
 10
37.3723754231
 20
27.0
 30
0.0
 11
37.3723754231
 21
21.0
 31
0.0
  0
LINE
  5
18F
330
1F
100
AcDbEntity
  8
0
  6
Continuous
 62
     7
370
    25
100
AcDbLine
 10
1.0759485251
 20
21.0
 30
0.0
 11
1.0759485251
 21
27.0
 31
0.0
  0
LINE
  5
190
330
1F
100
AcDbEntity
  8
0
  6
Continuous
 62
     7
370
    25
100
AcDbLine
 10
-10.9240514749
 20
27.0
 30
0.0
 11
-10.9240514749
 21
21.0
 31
0.0
  0
LINE
  5
191
330
1F
100
AcDbEntity
  8
0
  6
Continuous
 62
     7
370
    25
100
AcDbLine
 10
-10.9240514749
 20
21.0
 30
0.0
 11
1.0759485251
 21
21.0
 31
0.0
  0
LINE
  5
192
330
1F
100
AcDbEntity
  8
0
  6
Continuous
 62
     7
370
    25
100
AcDbLine
 10
-59.2204783729
 20
27.0
 30
0.0
 11
-59.2204783729
 21
21.0
 31
0.0
  0
LINE
  5
193
330
1F
100
AcDbEntity
  8
0
  6
Continuous
 62
     7
370
    25
100
AcDbLine
 10
-47.2204783729
 20
21.0
 30
0.0
 11
-47.2204783729
 21
27.0
 31
0.0
  0
LINE
  5
194
330
1F
100
AcDbEntity
  8
0
  6
Continuous
 62
     7
370
    25
100
AcDbLine
 10
-100.0
 20
7.0
 30
0.0
 11
-106.0
 21
7.0
 31
0.0
  0
LINE
  5
195
330
1F
100
AcDbEntity
  8
0
  6
Continuous
 62
     7
370
    25
100
AcDbLine
 10
-106.0
 20
3.0
 30
0.0
 11
-100.0
 21
3.0
 31
0.0
  0
LINE
  5
196
330
1F
100
AcDbEntity
  8
0
  6
Continuous
 62
     7
370
    25
100
AcDbLine
 10
-100.0
 20
3.0
 30
0.0
 11
-100.0
 21
7.0
 31
0.0
  0
LINE
  5
197
330
1F
100
AcDbEntity
  8
0
  6
Continuous
 62
     7
370
    25
100
AcDbLine
 10
106.0
 20
3.0
 30
0.0
 11
100.0
 21
3.0
 31
0.0
  0
LINE
  5
198
330
1F
100
AcDbEntity
  8
0
  6
Continuous
 62
     7
370
    25
100
AcDbLine
 10
100.0
 20
3.0
 30
0.0
 11
100.0
 21
7.0
 31
0.0
  0
LINE
  5
199
330
1F
100
AcDbEntity
  8
0
  6
Continuous
 62
     7
370
    25
100
AcDbLine
 10
100.0
 20
7.0
 30
0.0
 11
106.0
 21
7.0
 31
0.0
  0
LINE
  5
19A
330
1F
100
AcDbEntity
  8
0
  6
Continuous
 62
     7
370
    25
100
AcDbLine
 10
106.0
 20
14.0
 30
0.0
 11
100.0
 21
14.0
 31
0.0
  0
LINE
  5
19B
330
1F
100
AcDbEntity
  8
0
  6
Continuous
 62
     7
370
    25
100
AcDbLine
 10
100.0
 20
14.0
 30
0.0
 11
100.0
 21
18.0
 31
0.0
  0
LINE
  5
19C
330
1F
100
AcDbEntity
  8
0
  6
Continuous
 62
     7
370
    25
100
AcDbLine
 10
100.0
 20
18.0
 30
0.0
 11
106.0
 21
18.0
 31
0.0
  0
MTEXT
  5
19E
330
1F
100
AcDbEntity
  8
0
  6
Continuous
 62
     7
100
AcDbMText
 10
-106.0
 20
-14.9062332529
 30
0.0
 40
4.83362
 41
0.0
 71
     1
 72
     1
  1
SOLIDWORKS \U+0434\U+043B\U+044F \U+0443\U+0447\U+0435\U+0431\U+043D\U+044B\U+0445 \U+0437\U+0430\U+0432\U+0435\U+0434\U+0435\U+043D\U+0438\U+0439.
  7
SLDTEXTSTYLE0
 73
     1
 44
1.0
  0
MTEXT
  5
19F
330
1F
100
AcDbEntity
  8
0
  6
Continuous
 62
     7
100
AcDbMText
 10
-106.0
 20
-22.1566632529
 30
0.0
 40
4.83362
 41
0.0
 71
     1
 72
     1
  1
\U+0422\U+043E\U+043B\U+044C\U+043A\U+043E \U+0434\U+043B\U+044F \U+043E\U+0431\U+0443\U+0447\U+0430\U+044E\U+0449\U+0438\U+0445 \U+0446\U+0435\U+043B\U+0435\U+0439.
  7
SLDTEXTSTYLE0
 73
     1
 44
1.0
  0
ENDSEC
  0
SECTION
  2
OBJECTS
  0
DICTIONARY
  5
C
330
0
100
AcDbDictionary
281
     1
  3
ACAD_GROUP
350
D
  3
ACAD_LAYOUT
350
1A
  3
ACAD_MLINESTYLE
350
17
  3
ACAD_PLOTSETTINGS
350
19
  3
ACAD_PLOTSTYLENAME
350
E
  3
ACAD_SCALELIST
350
47
  3
DWGPROPS
350
1A0
  0
DICTIONARY
  5
D
102
{ACAD_REACTORS
330
C
102
}
330
C
100
AcDbDictionary
281
     1
  0
DICTIONARY
  5
1A
102
{ACAD_REACTORS
330
C
102
}
330
C
100
AcDbDictionary
281
     1
  3
Layout1
350
1E
  3
Layout2
350
26
  3
Model
350
22
  0
DICTIONARY
  5
17
102
{ACAD_REACTORS
330
C
102
}
330
C
100
AcDbDictionary
281
     1
  3
Standard
350
18
  0
DICTIONARY
  5
19
102
{ACAD_REACTORS
330
C
102
}
330
C
100
AcDbDictionary
281
     1
  0
ACDBDICTIONARYWDFLT
  5
E
102
{ACAD_REACTORS
330
C
102
}
330
C
100
AcDbDictionary
281
     1
  3
Normal
350
F
100
AcDbDictionaryWithDefault
340
F
  0
DICTIONARY
  5
47
102
{ACAD_REACTORS
330
C
102
}
330
C
100
AcDbDictionary
281
     1
  3
A0
350
48
  3
A1
350
49
  3
A2
350
4A
  3
A3
350
4B
  3
A4
350
4C
  3
A5
350
4D
  3
A6
350
4E
  3
A7
350
4F
  3
A8
350
50
  3
A9
350
51
  3
B0
350
52
  3
B1
350
53
  3
B2
350
54
  3
B3
350
55
  3
B4
350
56
  3
B5
350
57
  3
B6
350
58
  3
B7
350
59
  3
B8
350
5A
  3
B9
350
5B
  3
C0
350
5C
  3
C1
350
5D
  3
C2
350
5E
  3
C3
350
5F
  3
C4
350
60
  3
C5
350
61
  3
C6
350
62
  3
C7
350
63
  3
C8
350
64
  3
C9
350
65
  3
D0
350
66
  3
D1
350
67
  3
D2
350
68
  0
XRECORD
  5
1A0
102
{ACAD_REACTORS
330
C
102
}
330
C
100
AcDbXrecord
280
     1
  1
DWGPROPS COOKIE
  2

  3

  4

  6

  7

  8
Student
  9

300
=
301
=
302
=
303
=
304
=
305
=
306
=
307
=
308
=
309
=
 40
0.0
 41
2461010.56280603
 42
2461010.562893079
  1

 90
        0
  0
LAYOUT
  5
1E
102
{ACAD_REACTORS
330
1A
102
}
330
1A
100
AcDbPlotSettings
  1

  2
none_device
  4

  6

 40
0.0
 41
0.0
 42
0.0
 43
0.0
 44
0.0
 45
0.0
 46
0.0
 47
0.0
 48
0.0
 49
0.0
140
0.0
141
0.0
142
1.0
143
1.0
 70
   688
 72
     1
 73
     0
 74
     5
  7

 75
    16
147
1.0
148
0.0
149
0.0
100
AcDbLayout
  1
Layout1
 70
     1
 71
     1
 10
0.0
 20
0.0
 11
420.0
 21
297.0
 12
0.0
 22
0.0
 32
0.0
 14
1.0000000000E+20
 24
1.0000000000E+20
 34
1.0000000000E+20
 15
-1.0000000000E+20
 25
-1.0000000000E+20
 35
-1.0000000000E+20
146
0.0
 13
0.0
 23
0.0
 33
0.0
 16
1.0
 26
0.0
 36
0.0
 17
0.0
 27
1.0
 37
0.0
 76
     0
330
1B
  0
LAYOUT
  5
26
102
{ACAD_REACTORS
330
1A
102
}
330
1A
100
AcDbPlotSettings
  1

  2
none_device
  4

  6

 40
0.0
 41
0.0
 42
0.0
 43
0.0
 44
0.0
 45
0.0
 46
0.0
 47
0.0
 48
0.0
 49
0.0
140
0.0
141
0.0
142
1.0
143
1.0
 70
   688
 72
     1
 73
     0
 74
     5
  7

 75
    16
147
1.0
148
0.0
149
0.0
100
AcDbLayout
  1
Layout2
 70
     1
 71
     2
 10
0.0
 20
0.0
 11
0.0
 21
0.0
 12
0.0
 22
0.0
 32
0.0
 14
0.0
 24
0.0
 34
0.0
 15
0.0
 25
0.0
 35
0.0
146
0.0
 13
0.0
 23
0.0
 33
0.0
 16
1.0
 26
0.0
 36
0.0
 17
0.0
 27
1.0
 37
0.0
 76
     0
330
23
  0
LAYOUT
  5
22
102
{ACAD_REACTORS
330
1A
102
}
330
1A
100
AcDbPlotSettings
  1

  2
none_device
  4
ANSI_A_(11.00_x_8.50_Inches)
  6

 40
6.35
 41
19.05
 42
6.35000508
 43
19.05000254
 44
279.4
 45
215.9
 46
133.34999746
 47
80.3452189513
 48
0.0
 49
0.0
140
0.0
141
0.0
142
0.0513679245
143
1.0
 70
  1696
 72
     0
 73
     0
 74
     0
  7

 75
     0
147
0.0179189148
148
-1300.4909072572
149
0.0
100
AcDbLayout
  1
Model
 70
     1
 71
     0
 10
0.0
 20
0.0
 11
420.0
 21
297.0
 12
0.0
 22
0.0
 32
0.0
 14
-106.0
 24
-13.8866668612
 34
0.0
 15
106.0
 25
27.0
 35
0.0
146
0.0
 13
0.0
 23
0.0
 33
0.0
 16
1.0
 26
0.0
 36
0.0
 17
0.0
 27
1.0
 37
0.0
 76
     0
330
1F
331
29
  0
MLINESTYLE
  5
18
102
{ACAD_REACTORS
330
17
102
}
330
17
100
AcDbMlineStyle
  2
Standard
 70
     0
  3

 62
   256
 51
90.0
 52
90.0
 71
     2
 49
0.5
 62
   256
  6
BYLAYER
 49
-0.5
 62
   256
  6
BYLAYER
  0
ACDBPLACEHOLDER
  5
F
102
{ACAD_REACTORS
330
E
102
}
330
E
  0
SCALE
  5
48
102
{ACAD_REACTORS
330
47
102
}
330
47
100
AcDbScale
 70
     0
300
1:1
140
1.0
141
1.0
290
     1
  0
SCALE
  5
49
102
{ACAD_REACTORS
330
47
102
}
330
47
100
AcDbScale
 70
     0
300
1:2
140
1.0
141
2.0
290
     0
  0
SCALE
  5
4A
102
{ACAD_REACTORS
330
47
102
}
330
47
100
AcDbScale
 70
     0
300
1:4
140
1.0
141
4.0
290
     0
  0
SCALE
  5
4B
102
{ACAD_REACTORS
330
47
102
}
330
47
100
AcDbScale
 70
     0
300
1:5
140
1.0
141
5.0
290
     0
  0
SCALE
  5
4C
102
{ACAD_REACTORS
330
47
102
}
330
47
100
AcDbScale
 70
     0
300
1:8
140
1.0
141
8.0
290
     0
  0
SCALE
  5
4D
102
{ACAD_REACTORS
330
47
102
}
330
47
100
AcDbScale
 70
     0
300
1:10
140
1.0
141
10.0
290
     0
  0
SCALE
  5
4E
102
{ACAD_REACTORS
330
47
102
}
330
47
100
AcDbScale
 70
     0
300
1:16
140
1.0
141
16.0
290
     0
  0
SCALE
  5
4F
102
{ACAD_REACTORS
330
47
102
}
330
47
100
AcDbScale
 70
     0
300
1:20
140
1.0
141
20.0
290
     0
  0
SCALE
  5
50
102
{ACAD_REACTORS
330
47
102
}
330
47
100
AcDbScale
 70
     0
300
1:30
140
1.0
141
30.0
290
     0
  0
SCALE
  5
51
102
{ACAD_REACTORS
330
47
102
}
330
47
100
AcDbScale
 70
     0
300
1:40
140
1.0
141
40.0
290
     0
  0
SCALE
  5
52
102
{ACAD_REACTORS
330
47
102
}
330
47
100
AcDbScale
 70
     0
300
1:50
140
1.0
141
50.0
290
     0
  0
SCALE
  5
53
102
{ACAD_REACTORS
330
47
102
}
330
47
100
AcDbScale
 70
     0
300
1:100
140
1.0
141
100.0
290
     0
  0
SCALE
  5
54
102
{ACAD_REACTORS
330
47
102
}
330
47
100
AcDbScale
 70
     0
300
2:1
140
2.0
141
1.0
290
     0
  0
SCALE
  5
55
102
{ACAD_REACTORS
330
47
102
}
330
47
100
AcDbScale
 70
     0
300
4:1
140
4.0
141
1.0
290
     0
  0
SCALE
  5
56
102
{ACAD_REACTORS
330
47
102
}
330
47
100
AcDbScale
 70
     0
300
8:1
140
8.0
141
1.0
290
     0
  0
SCALE
  5
57
102
{ACAD_REACTORS
330
47
102
}
330
47
100
AcDbScale
 70
     0
300
10:1
140
10.0
141
1.0
290
     0
  0
SCALE
  5
58
102
{ACAD_REACTORS
330
47
102
}
330
47
100
AcDbScale
 70
     0
300
100:1
140
100.0
141
1.0
290
     0
  0
SCALE
  5
59
102
{ACAD_REACTORS
330
47
102
}
330
47
100
AcDbScale
 70
     0
300
1/128" = 1'-0"
140
0.0078125
141
12.0
290
     0
  0
SCALE
  5
5A
102
{ACAD_REACTORS
330
47
102
}
330
47
100
AcDbScale
 70
     0
300
1/64" = 1'-0"
140
0.015625
141
12.0
290
     0
  0
SCALE
  5
5B
102
{ACAD_REACTORS
330
47
102
}
330
47
100
AcDbScale
 70
     0
300
1/32" = 1'-0"
140
0.03125
141
12.0
290
     0
  0
SCALE
  5
5C
102
{ACAD_REACTORS
330
47
102
}
330
47
100
AcDbScale
 70
     0
300
1/16" = 1'-0"
140
0.0625
141
12.0
290
     0
  0
SCALE
  5
5D
102
{ACAD_REACTORS
330
47
102
}
330
47
100
AcDbScale
 70
     0
300
3/32" = 1'-0"
140
0.09375
141
12.0
290
     0
  0
SCALE
  5
5E
102
{ACAD_REACTORS
330
47
102
}
330
47
100
AcDbScale
 70
     0
300
1/8" = 1'-0"
140
0.125
141
12.0
290
     0
  0
SCALE
  5
5F
102
{ACAD_REACTORS
330
47
102
}
330
47
100
AcDbScale
 70
     0
300
3/16" = 1'-0"
140
0.1875
141
12.0
290
     0
  0
SCALE
  5
60
102
{ACAD_REACTORS
330
47
102
}
330
47
100
AcDbScale
 70
     0
300
1/4" = 1'-0"
140
0.25
141
12.0
290
     0
  0
SCALE
  5
61
102
{ACAD_REACTORS
330
47
102
}
330
47
100
AcDbScale
 70
     0
300
3/8" = 1'-0"
140
0.375
141
12.0
290
     0
  0
SCALE
  5
62
102
{ACAD_REACTORS
330
47
102
}
330
47
100
AcDbScale
 70
     0
300
1/2" = 1'-0"
140
0.5
141
12.0
290
     0
  0
SCALE
  5
63
102
{ACAD_REACTORS
330
47
102
}
330
47
100
AcDbScale
 70
     0
300
3/4" = 1'-0"
140
0.75
141
12.0
290
     0
  0
SCALE
  5
64
102
{ACAD_REACTORS
330
47
102
}
330
47
100
AcDbScale
 70
     0
300
1" = 1'-0"
140
1.0
141
12.0
290
     0
  0
SCALE
  5
65
102
{ACAD_REACTORS
330
47
102
}
330
47
100
AcDbScale
 70
     0
300
1-1/2" = 1'-0"
140
1.5
141
12.0
290
     0
  0
SCALE
  5
66
102
{ACAD_REACTORS
330
47
102
}
330
47
100
AcDbScale
 70
     0
300
3" = 1'-0"
140
3.0
141
12.0
290
     0
  0
SCALE
  5
67
102
{ACAD_REACTORS
330
47
102
}
330
47
100
AcDbScale
 70
     0
300
6" = 1'-0"
140
6.0
141
12.0
290
     0
  0
SCALE
  5
68
102
{ACAD_REACTORS
330
47
102
}
330
47
100
AcDbScale
 70
     0
300
1'-0" = 1'-0"
140
12.0
141
12.0
290
     0
  0
ENDSEC
  0
EOF
